<svg xmlns="http://www.w3.org/2000/svg" xmlns:xlink="http://www.w3.org/1999/xlink" width="1080" zoomAndPan="magnify" viewBox="0 0 810 809.999993" height="1080" preserveAspectRatio="xMidYMid meet" version="1.0"><defs><g/></defs><path fill="#f0bb28" d="M 128.402344 258.355469 L 248.210938 505.25 L 239.613281 509.417969 L 119.808594 262.523438 Z M 128.402344 258.355469 " fill-opacity="1" fill-rule="nonzero"/><path fill="#f0bb28" d="M 248.210938 505.25 C 237.269531 563.847656 185.960938 608.121094 124.234375 608.121094 C 62.507812 608.121094 10.9375 563.847656 0 505.25 Z M 248.210938 505.25 " fill-opacity="1" fill-rule="evenodd"/><path fill="#f0bb28" d="M 560.488281 505.25 C 571.425781 563.847656 622.738281 608.121094 684.464844 608.121094 C 746.449219 608.121094 797.757812 563.847656 808.699219 505.25 Z M 560.488281 505.25 " fill-opacity="1" fill-rule="evenodd"/><path fill="#f0bb28" d="M 689.410156 507.332031 L 689.410156 281.273438 L 800.101562 509.417969 L 808.699219 505.25 L 688.890625 258.355469 L 679.773438 260.4375 L 679.773438 507.332031 Z M 689.410156 507.332031 " fill-opacity="1" fill-rule="nonzero"/><path fill="#f0bb28" d="M 119.285156 507.332031 L 119.285156 281.273438 L 8.59375 509.417969 L 0 505.25 L 119.808594 258.355469 L 128.921875 260.4375 L 128.921875 507.332031 Z M 119.285156 507.332031 " fill-opacity="1" fill-rule="nonzero"/><path fill="#f0bb28" d="M 680.296875 258.355469 L 560.488281 505.25 L 569.082031 509.417969 L 688.890625 262.523438 Z M 680.296875 258.355469 " fill-opacity="1" fill-rule="nonzero"/><path fill="#9e660c" d="M 390.15625 113.03125 L 418.542969 113.03125 L 418.542969 703.703125 L 390.15625 703.703125 Z M 390.15625 113.03125 " fill-opacity="1" fill-rule="nonzero"/><path fill="#9e660c" d="M 404.480469 182.308594 C 423.753906 182.308594 439.640625 202.101562 439.640625 226.320312 C 439.640625 250.28125 423.753906 270.074219 404.480469 270.074219 C 384.945312 270.074219 369.058594 250.28125 369.058594 226.320312 C 369.058594 202.101562 384.945312 182.308594 404.480469 182.308594 Z M 404.480469 182.308594 " fill-opacity="1" fill-rule="evenodd"/><path fill="#9e660c" d="M 404.480469 641.980469 C 423.753906 641.980469 439.640625 661.773438 439.640625 685.992188 C 439.640625 710.214844 423.753906 729.746094 404.480469 729.746094 C 384.945312 729.746094 369.058594 710.214844 369.058594 685.992188 C 369.058594 661.773438 384.945312 641.980469 404.480469 641.980469 Z M 404.480469 641.980469 " fill-opacity="1" fill-rule="evenodd"/><path fill="#9e660c" d="M 291.964844 698.753906 L 516.734375 698.753906 C 524.546875 698.753906 530.796875 705.003906 530.796875 712.820312 L 530.796875 734.433594 L 277.898438 734.433594 L 277.898438 712.820312 C 277.898438 705.003906 284.410156 698.753906 291.964844 698.753906 Z M 291.964844 698.753906 " fill-opacity="1" fill-rule="evenodd"/><path fill="#9e660c" d="M 229.71875 769.855469 L 578.980469 769.855469 L 578.980469 745.894531 C 578.980469 739.644531 573.773438 734.433594 567.519531 734.433594 L 241.4375 734.433594 C 234.925781 734.433594 229.71875 739.644531 229.71875 745.894531 Z M 229.71875 769.855469 " fill-opacity="1" fill-rule="evenodd"/><path fill="#9e660c" d="M 101.574219 266.6875 C 96.105469 265.386719 92.71875 259.917969 94.28125 254.449219 C 95.585938 248.980469 101.054688 245.59375 106.523438 246.894531 C 145.589844 256.792969 177.367188 237.78125 209.921875 218.507812 C 263.835938 186.472656 319.3125 153.398438 410.730469 226.0625 C 415.15625 229.445312 415.679688 235.957031 412.292969 240.382812 C 408.90625 244.8125 402.394531 245.332031 397.96875 241.949219 C 317.488281 178.140625 268.265625 207.308594 220.339844 235.957031 C 184.136719 257.3125 148.457031 278.667969 101.574219 266.6875 Z M 101.574219 266.6875 " fill-opacity="1" fill-rule="nonzero"/><path fill="#9e660c" d="M 702.171875 246.894531 C 707.644531 245.59375 713.113281 248.980469 714.414062 254.449219 C 715.976562 259.917969 712.589844 265.386719 707.121094 266.6875 C 660.242188 278.667969 624.558594 257.3125 588.617188 235.957031 C 540.433594 207.308594 491.207031 178.140625 410.730469 241.949219 C 406.300781 245.332031 399.789062 244.8125 396.40625 240.382812 C 393.019531 235.957031 393.539062 229.445312 397.96875 226.0625 C 489.644531 153.398438 544.863281 186.472656 598.773438 218.507812 C 631.332031 237.78125 663.367188 256.792969 702.171875 246.894531 Z M 702.171875 246.894531 " fill-opacity="1" fill-rule="nonzero"/><path fill="#9e660c" d="M 404.480469 40.367188 L 424.273438 73.445312 L 444.328125 106.519531 L 424.273438 130.742188 L 404.480469 154.699219 L 384.425781 130.742188 L 364.371094 106.519531 L 384.425781 73.445312 Z M 404.480469 40.367188 " fill-opacity="1" fill-rule="evenodd"/><path fill="#f0bb28" d="M 277.898438 727.925781 L 530.796875 727.925781 L 530.796875 734.433594 L 277.898438 734.433594 Z M 277.898438 727.925781 " fill-opacity="1" fill-rule="evenodd"/><path fill="#f0bb28" d="M 386.769531 266.429688 L 421.929688 266.429688 L 421.929688 272.9375 L 386.769531 272.9375 Z M 386.769531 266.429688 " fill-opacity="1" fill-rule="evenodd"/><path fill="#f0bb28" d="M 386.769531 639.375 L 421.929688 639.375 L 421.929688 645.886719 L 386.769531 645.886719 Z M 386.769531 639.375 " fill-opacity="1" fill-rule="evenodd"/><path fill="#f0bb28" d="M 386.769531 179.703125 L 421.929688 179.703125 L 421.929688 186.214844 L 386.769531 186.214844 Z M 386.769531 179.703125 " fill-opacity="1" fill-rule="evenodd"/><path fill="#f0bb28" d="M 386.769531 136.46875 L 421.929688 136.46875 L 421.929688 142.980469 L 386.769531 142.980469 Z M 386.769531 136.46875 " fill-opacity="1" fill-rule="evenodd"/><g fill="#9e660c" fill-opacity="1"><g transform="translate(347.972036, 758.249982)"><g><path d="M 3.9375 0.140625 C 3.382812 0.140625 2.945312 -0.015625 2.625 -0.328125 C 2.300781 -0.640625 2.140625 -1.050781 2.140625 -1.5625 C 2.140625 -2.070312 2.300781 -2.488281 2.625 -2.8125 C 2.945312 -3.144531 3.382812 -3.3125 3.9375 -3.3125 C 4.507812 -3.3125 4.953125 -3.15625 5.265625 -2.84375 C 5.585938 -2.53125 5.75 -2.113281 5.75 -1.59375 C 5.75 -1.082031 5.585938 -0.664062 5.265625 -0.34375 C 4.941406 -0.0195312 4.5 0.140625 3.9375 0.140625 Z M 3.9375 0.140625 "/></g></g></g></svg>