<svg xmlns="http://www.w3.org/2000/svg" xmlns:xlink="http://www.w3.org/1999/xlink" width="1080" zoomAndPan="magnify" viewBox="0 0 810 809.999993" height="1080" preserveAspectRatio="xMidYMid meet" version="1.0"><defs><g/></defs><path fill="#685f6c" d="M 756.125 487.058594 L 730.027344 304.390625 L 731.425781 304.390625 C 732.777344 304.390625 733.871094 303.296875 733.871094 301.941406 C 733.871094 300.589844 732.777344 299.496094 731.425781 299.496094 L 729.332031 299.496094 L 728.496094 293.648438 L 728.933594 293.648438 C 730.285156 293.648438 731.378906 292.554688 731.378906 291.203125 C 731.378906 289.851562 730.285156 288.753906 728.933594 288.753906 L 727.796875 288.753906 L 723.640625 259.664062 L 708.703125 259.664062 C 709.789062 249.992188 710.867188 240.3125 711.929688 230.644531 C 717.1875 232.382812 723.230469 231.769531 727.976562 228.6875 C 734.457031 224.503906 736.585938 216.523438 734.652344 209.328125 C 751.824219 200.910156 764.226562 182.949219 764.644531 163.566406 C 765.109375 141.613281 750.285156 120.542969 729.640625 113.203125 C 724.160156 111.269531 717.921875 110.144531 712.148438 111.390625 C 710.484375 99.304688 703.390625 88.121094 692.3125 82.246094 C 677.023438 74.121094 657.699219 77.132812 645.859375 89.757812 C 644.195312 91.546875 642.703125 93.503906 641.40625 95.558594 C 632.578125 83.933594 617.949219 76.933594 603.175781 78.476562 C 584.753906 80.410156 568.976562 94.382812 565.578125 112.6875 C 564.378906 119.050781 564.671875 125.464844 566.238281 131.605469 C 558.800781 127.738281 549.628906 127.25 542.046875 131.507812 C 540.75 132.242188 539.574219 133.074219 538.5 134.003906 C 534.21875 128.300781 525.777344 125.21875 518.710938 125.097656 C 509.535156 124.925781 500.902344 128.890625 494.910156 135.59375 C 494.882812 135.59375 494.859375 135.621094 494.835938 135.644531 C 494.394531 133.464844 493.734375 131.359375 492.804688 129.28125 C 490.382812 123.773438 486.371094 119.125 481.453125 115.773438 C 496.007812 94.847656 491.558594 63.183594 472.796875 45.734375 C 447.308594 22.042969 407.261719 24.46875 379.476562 42.378906 C 363.183594 52.878906 350.148438 67.636719 339.996094 84.082031 C 330.945312 79.75 320.011719 79.824219 311.300781 85.257812 C 305.457031 88.878906 301.320312 94.53125 299.21875 100.867188 C 290.386719 98.078125 280.210938 99.449219 271.945312 103.804688 C 259.371094 110.460938 250.90625 123.039062 247.679688 136.746094 C 240.78125 166.085938 261.132812 194.378906 288.359375 203.996094 C 303.988281 209.527344 321.308594 209.011719 337.085938 204.117188 C 344.839844 214.222656 356.140625 221.566406 368.640625 224.160156 C 381.875 226.902344 395.695312 224.234375 407.140625 217.355469 C 409.980469 224.578125 417.367188 229.640625 425.144531 231.132812 C 435.859375 233.167969 446.304688 228.050781 455.332031 222.472656 C 456.578125 234.390625 457.800781 246.355469 459.097656 258.300781 C 459.046875 258.59375 459 258.910156 459.097656 259.253906 C 459.117188 259.394531 459.152344 259.53125 459.171875 259.664062 L 450.011719 259.664062 L 445.855469 288.753906 L 445.503906 288.753906 C 444.152344 288.753906 443.058594 289.851562 443.058594 291.203125 C 443.058594 292.433594 443.980469 293.410156 445.164062 293.582031 L 444.320312 299.496094 L 443.011719 299.496094 C 441.660156 299.496094 440.566406 300.589844 440.566406 301.941406 C 440.566406 303.296875 441.660156 304.390625 443.011719 304.390625 L 443.621094 304.390625 L 417.527344 487.058594 L 366.785156 487.058594 L 366.785156 411.136719 L 339.921875 417.683594 C 339.804688 417.667969 339.699219 417.613281 339.578125 417.613281 C 339.046875 417.613281 338.582031 417.820312 338.179688 418.105469 L 0.0429688 500.519531 L 0.0429688 810.285156 L 809.9375 810.285156 L 809.9375 487.058594 Z M 529.964844 304.390625 L 531.359375 304.390625 C 532.710938 304.390625 533.804688 303.296875 533.804688 301.941406 C 533.804688 300.589844 532.710938 299.496094 531.359375 299.496094 L 529.265625 299.496094 L 528.429688 293.648438 L 528.867188 293.648438 C 530.21875 293.648438 531.3125 292.554688 531.3125 291.203125 C 531.3125 289.851562 530.21875 288.753906 528.867188 288.753906 L 527.730469 288.753906 L 523.574219 259.664062 L 503.453125 259.664062 C 504.390625 253.632812 505.359375 247.613281 506.308594 241.582031 C 515.113281 245.816406 526.390625 248.167969 534.390625 241.4375 C 535.050781 240.878906 535.65625 240.257812 536.226562 239.605469 C 543.636719 248.582031 555.535156 253.539062 567.238281 251.398438 C 578.617188 249.3125 588.347656 240.605469 592.078125 229.722656 C 596.234375 232.425781 601.203125 233.890625 606.304688 233.558594 C 614.183594 233.042969 621.152344 228.222656 625.066406 221.566406 C 629.421875 227.734375 636.296875 232.089844 643.925781 232.824219 C 650.410156 233.460938 656.941406 231.476562 662.152344 227.636719 C 661.601562 238.304688 661.042969 248.988281 660.46875 259.664062 L 650.074219 259.664062 L 645.917969 288.753906 L 645.570312 288.753906 C 644.21875 288.753906 643.125 289.851562 643.125 291.203125 C 643.125 292.433594 644.046875 293.410156 645.230469 293.582031 L 644.386719 299.496094 L 643.078125 299.496094 C 641.726562 299.496094 640.632812 300.589844 640.632812 301.941406 C 640.632812 303.296875 641.726562 304.390625 643.078125 304.390625 L 643.6875 304.390625 L 617.59375 487.058594 L 556.058594 487.058594 Z M 529.964844 304.390625 " fill-opacity="1" fill-rule="nonzero"/><path fill="#685f6c" d="M 764.644531 163.566406 C 765.109375 141.613281 750.285156 120.542969 729.640625 113.203125 C 724.160156 111.269531 717.921875 110.144531 712.148438 111.390625 C 710.484375 99.304688 703.390625 88.117188 692.3125 82.246094 C 677.023438 74.121094 657.699219 77.132812 645.859375 89.757812 C 644.195312 91.542969 642.703125 93.503906 641.40625 95.558594 C 632.578125 83.933594 617.949219 76.933594 603.175781 78.476562 C 584.753906 80.410156 568.976562 94.382812 565.578125 112.6875 C 564.378906 119.050781 564.671875 125.464844 566.238281 131.605469 C 558.800781 127.738281 549.628906 127.25 542.046875 131.507812 C 540.75 132.242188 539.574219 133.074219 538.5 134.003906 C 534.21875 128.300781 525.777344 125.21875 518.707031 125.097656 C 509.535156 124.925781 500.902344 128.890625 494.90625 135.59375 C 494.882812 135.59375 494.859375 135.621094 494.835938 135.644531 C 494.394531 133.464844 493.734375 131.359375 492.804688 129.28125 C 490.382812 123.773438 486.371094 119.125 481.453125 115.773438 C 496.007812 94.847656 491.554688 63.183594 472.796875 45.734375 C 447.308594 22.042969 407.261719 24.464844 379.476562 42.378906 C 363.183594 52.878906 350.144531 67.636719 339.996094 84.082031 C 330.945312 79.75 320.011719 79.824219 311.300781 85.253906 C 305.457031 88.878906 301.320312 94.53125 299.21875 100.867188 C 290.386719 98.078125 280.210938 99.449219 271.941406 103.804688 C 259.371094 110.460938 250.90625 123.039062 247.679688 136.746094 C 240.78125 166.085938 261.132812 194.378906 288.355469 203.996094 C 303.988281 209.523438 321.308594 209.011719 337.085938 204.117188 C 344.839844 214.222656 356.140625 221.566406 368.640625 224.160156 C 381.871094 226.902344 395.691406 224.234375 407.140625 217.355469 C 409.980469 224.578125 417.367188 229.640625 425.144531 231.132812 C 435.859375 233.164062 446.304688 228.050781 455.332031 222.472656 C 456.578125 234.390625 457.800781 246.355469 459.097656 258.300781 C 459.046875 258.59375 459 258.910156 459.097656 259.253906 C 459.117188 259.394531 459.152344 259.527344 459.171875 259.664062 L 503.453125 259.664062 C 504.390625 253.632812 505.359375 247.613281 506.308594 241.585938 C 515.113281 245.816406 526.390625 248.167969 534.390625 241.4375 C 535.050781 240.878906 535.65625 240.257812 536.226562 239.605469 C 543.636719 248.582031 555.535156 253.539062 567.238281 251.398438 C 578.617188 249.316406 588.347656 240.609375 592.078125 229.722656 C 596.234375 232.425781 601.203125 233.890625 606.304688 233.558594 C 614.183594 233.042969 621.152344 228.222656 625.066406 221.566406 C 629.421875 227.734375 636.296875 232.089844 643.925781 232.824219 C 650.410156 233.460938 656.941406 231.476562 662.152344 227.636719 C 661.601562 238.304688 661.042969 248.988281 660.46875 259.664062 L 708.703125 259.664062 C 709.789062 249.992188 710.867188 240.3125 711.929688 230.644531 C 717.1875 232.382812 723.230469 231.769531 727.976562 228.6875 C 734.457031 224.503906 736.585938 216.523438 734.65625 209.332031 C 751.824219 200.910156 764.226562 182.949219 764.644531 163.566406 Z M 365.839844 175.496094 C 362.464844 180.953125 355.875 183.910156 349.585938 182.09375 C 345.023438 180.773438 341.703125 177.128906 340.261719 172.785156 C 331.335938 177.828125 319.277344 176.582031 312.007812 169 C 303.550781 160.171875 304.453125 145.371094 312.800781 136.894531 C 314.738281 134.925781 318.167969 138.339844 316.261719 140.289062 C 309.714844 146.996094 308.96875 158.515625 315.488281 165.566406 C 321.75 172.335938 333.316406 172.710938 340.277344 166.890625 C 341.972656 165.476562 344.265625 166.722656 344.359375 168.8125 C 344.769531 178.050781 357.015625 180.820312 361.640625 172.984375 C 363.246094 170.265625 367.496094 172.820312 365.839844 175.496094 Z M 454.796875 185.5625 C 444.886719 186.589844 434.824219 178.550781 434.195312 168.449219 C 434.101562 166.90625 435.023438 165.425781 436.746094 165.53125 C 438.675781 165.648438 438.90625 167.300781 439.128906 168.8125 C 439.441406 170.925781 440.296875 172.882812 441.523438 174.621094 C 443.785156 177.832031 447.480469 180.21875 451.40625 180.6875 C 459.511719 181.65625 467.355469 173.726562 466.355469 165.582031 C 465.96875 162.4375 470.929688 161.664062 471.183594 164.785156 C 471.976562 174.546875 464.902344 184.511719 454.796875 185.5625 Z M 621.664062 191.230469 C 618.832031 200.957031 610.597656 208.753906 600.40625 210.179688 C 590.902344 211.507812 581.296875 206.957031 575.832031 199.238281 C 575.125 199.796875 574.367188 200.296875 573.554688 200.699219 C 569.828125 202.542969 565.527344 202.53125 561.851562 200.601562 C 558.089844 198.625 555.4375 194.714844 554.96875 190.496094 C 554.625 187.367188 559.492188 186.695312 559.816406 189.835938 C 560.1875 193.386719 563.03125 196.695312 566.671875 197.144531 C 568.253906 197.34375 569.746094 197.078125 571.097656 196.449219 C 572.503906 195.796875 573.5625 194.882812 574.382812 193.757812 C 574.398438 193.746094 574.410156 193.726562 574.425781 193.710938 C 574.453125 193.675781 574.492188 193.648438 574.519531 193.609375 C 575.078125 192.800781 575.613281 192.097656 576.671875 192.007812 C 577.664062 191.925781 578.597656 192.46875 579.042969 193.34375 C 579.394531 194.039062 579.351562 194.691406 579.125 195.304688 C 583.269531 202.074219 591.324219 206.375 599.296875 205.390625 C 607.4375 204.382812 614.96875 198.066406 616.929688 190.003906 C 617.675781 186.929688 622.542969 188.210938 621.664062 191.230469 Z M 736.789062 175.726562 C 734.21875 178.882812 729.792969 180.191406 725.917969 179.082031 C 724.601562 178.703125 724.054688 177.164062 724.421875 175.957031 C 724.820312 174.636719 726.3125 174.117188 727.542969 174.464844 C 727.636719 174.492188 727.734375 174.515625 727.832031 174.539062 C 727.84375 174.542969 727.835938 174.539062 727.851562 174.542969 C 728.039062 174.5625 728.226562 174.589844 728.414062 174.601562 C 728.894531 174.632812 729.117188 174.625 729.476562 174.5625 C 729.847656 174.5 730.214844 174.40625 730.574219 174.289062 C 730.652344 174.261719 730.726562 174.234375 730.804688 174.207031 C 730.832031 174.195312 730.820312 174.199219 730.863281 174.179688 C 731.03125 174.09375 731.203125 174.015625 731.367188 173.925781 C 731.535156 173.832031 731.699219 173.734375 731.863281 173.632812 C 731.929688 173.589844 732.1875 173.390625 732.273438 173.332031 C 732.523438 173.117188 732.765625 172.898438 732.984375 172.65625 C 733.046875 172.582031 733.324219 172.214844 733.332031 172.222656 C 733.394531 172.128906 733.457031 172.035156 733.515625 171.933594 C 733.613281 171.765625 733.703125 171.59375 733.785156 171.417969 C 733.824219 171.335938 733.859375 171.253906 733.894531 171.171875 C 733.945312 170.820312 734.054688 170.46875 734.125 170.113281 C 734.132812 170.003906 734.15625 169.78125 734.15625 169.707031 C 734.15625 169.480469 734.144531 169.253906 734.125 169.03125 C 734.117188 168.957031 734.050781 168.617188 734.066406 168.65625 C 734.035156 168.507812 734.003906 168.359375 733.960938 168.210938 C 733.898438 167.992188 733.828125 167.773438 733.746094 167.5625 C 733.730469 167.515625 733.65625 167.359375 733.613281 167.269531 C 733.429688 166.914062 733.238281 166.566406 733.007812 166.238281 C 732.9375 166.140625 732.863281 166.046875 732.789062 165.953125 C 732.742188 165.90625 732.597656 165.742188 732.539062 165.683594 C 732.351562 165.492188 732.152344 165.3125 731.945312 165.140625 C 731.90625 165.109375 731.820312 165.050781 731.746094 165.003906 C 731.324219 164.753906 730.929688 164.539062 730.464844 164.367188 C 729.179688 163.894531 728.703125 162.375 729.140625 161.167969 C 729.617188 159.855469 731.121094 159.453125 732.335938 159.84375 C 734.507812 160.542969 736.433594 162.324219 737.558594 164.277344 C 739.679688 167.957031 739.492188 172.402344 736.789062 175.726562 Z M 342.023438 420.0625 L 342.023438 670.683594 C 342.023438 672.035156 340.929688 673.128906 339.578125 673.128906 C 338.226562 673.128906 337.132812 672.035156 337.132812 670.683594 L 337.132812 420.0625 C 337.132812 419.242188 337.5625 418.550781 338.179688 418.105469 L 0.0429688 500.519531 L 0.0429688 810.285156 L 163.402344 810.285156 L 163.402344 688.796875 L 270.167969 688.796875 L 270.167969 810.285156 L 366.785156 810.285156 L 366.785156 411.136719 L 339.921875 417.683594 C 341.101562 417.855469 342.023438 418.828125 342.023438 420.0625 Z M 105.488281 652.410156 L 63.371094 652.410156 L 63.371094 610.273438 L 105.488281 610.273438 Z M 105.488281 585.339844 L 63.371094 585.339844 L 63.371094 543.203125 L 105.488281 543.203125 Z M 179.550781 585.339844 L 137.433594 585.339844 L 137.433594 543.203125 L 179.550781 543.203125 Z M 179.550781 585.339844 " fill-opacity="1" fill-rule="nonzero"/><path fill="#2c3242" d="M 643.125 291.203125 C 643.125 289.851562 644.21875 288.753906 645.570312 288.753906 L 728.933594 288.753906 C 730.285156 288.753906 731.378906 289.851562 731.378906 291.203125 C 731.378906 292.554688 730.285156 293.648438 728.933594 293.648438 L 645.570312 293.648438 C 645.449219 293.648438 645.347656 293.597656 645.230469 293.582031 C 644.046875 293.410156 643.125 292.433594 643.125 291.203125 Z M 731.425781 299.496094 L 643.078125 299.496094 C 641.726562 299.496094 640.632812 300.589844 640.632812 301.941406 C 640.632812 303.296875 641.726562 304.390625 643.078125 304.390625 L 731.425781 304.390625 C 732.777344 304.390625 733.871094 303.296875 733.871094 301.941406 C 733.871094 300.589844 732.777344 299.496094 731.425781 299.496094 Z M 479.890625 810.285156 L 697 810.285156 L 697 708.863281 L 479.890625 708.863281 Z M 479.890625 703.96875 L 697 703.96875 L 697 688.796875 L 479.890625 688.796875 Z M 163.402344 810.285156 L 270.167969 810.285156 L 270.167969 688.796875 L 163.402344 688.796875 Z M 445.164062 293.582031 C 445.28125 293.597656 445.382812 293.648438 445.503906 293.648438 L 528.867188 293.648438 C 530.21875 293.648438 531.3125 292.554688 531.3125 291.203125 C 531.3125 289.851562 530.21875 288.753906 528.867188 288.753906 L 445.503906 288.753906 C 444.152344 288.753906 443.058594 289.851562 443.058594 291.203125 C 443.058594 292.433594 443.980469 293.410156 445.164062 293.582031 Z M 531.359375 304.390625 C 532.710938 304.390625 533.804688 303.296875 533.804688 301.941406 C 533.804688 300.589844 532.710938 299.496094 531.359375 299.496094 L 443.011719 299.496094 C 441.660156 299.496094 440.566406 300.589844 440.566406 301.941406 C 440.566406 303.296875 441.660156 304.390625 443.011719 304.390625 Z M 339.921875 417.683594 C 339.804688 417.667969 339.699219 417.613281 339.578125 417.613281 C 339.046875 417.613281 338.582031 417.820312 338.179688 418.105469 C 337.5625 418.550781 337.132812 419.242188 337.132812 420.0625 L 337.132812 670.683594 C 337.132812 672.035156 338.226562 673.128906 339.578125 673.128906 C 340.929688 673.128906 342.023438 672.035156 342.023438 670.683594 L 342.023438 420.0625 C 342.023438 418.828125 341.101562 417.855469 339.921875 417.683594 Z M 339.921875 417.683594 " fill-opacity="1" fill-rule="nonzero"/><path fill="#d98e3f" d="M 756.125 487.058594 L 366.785156 487.058594 L 366.785156 810.285156 L 479.890625 810.285156 L 479.890625 708.863281 L 697 708.863281 L 697 810.285156 L 809.9375 810.285156 L 809.9375 487.058594 Z M 443.277344 643.097656 L 401.160156 643.097656 L 401.160156 600.960938 L 443.277344 600.960938 Z M 566.851562 600.960938 L 608.964844 600.960938 L 608.964844 643.097656 L 566.851562 643.097656 Z M 484.003906 600.960938 L 526.121094 600.960938 L 526.121094 643.097656 L 484.003906 643.097656 Z M 697 703.96875 L 479.890625 703.96875 L 479.890625 688.796875 L 697 688.796875 Z M 63.371094 543.203125 L 105.488281 543.203125 L 105.488281 585.339844 L 63.371094 585.339844 Z M 137.433594 543.203125 L 179.550781 543.203125 L 179.550781 585.339844 L 137.433594 585.339844 Z M 63.371094 610.273438 L 105.488281 610.273438 L 105.488281 652.410156 L 63.371094 652.410156 Z M 63.371094 610.273438 " fill-opacity="1" fill-rule="nonzero"/><path fill="#f3f0e3" d="M 401.160156 600.960938 L 443.277344 600.960938 L 443.277344 643.097656 L 401.160156 643.097656 Z M 484.003906 643.097656 L 526.121094 643.097656 L 526.121094 600.960938 L 484.003906 600.960938 Z M 566.851562 643.097656 L 608.964844 643.097656 L 608.964844 600.960938 L 566.851562 600.960938 Z M 462.390625 377.585938 C 455.589844 390.6875 449.019531 403.9375 442.007812 416.929688 C 440.515625 419.699219 444.964844 421.9375 446.386719 419.113281 C 452.980469 406.050781 459.855469 393.125 466.574219 380.125 C 468.011719 377.347656 463.847656 374.777344 462.390625 377.585938 Z M 473.128906 384.453125 C 466.808594 397.445312 460.433594 410.410156 454.121094 423.40625 C 452.75 426.230469 457.0625 428.523438 458.453125 425.683594 C 464.898438 412.503906 471.289062 399.292969 477.734375 386.113281 C 479.113281 383.289062 474.496094 381.640625 473.128906 384.453125 Z M 647.359375 381.984375 C 645.453125 392.820312 643.515625 403.648438 641.644531 414.488281 C 641.109375 417.585938 645.867188 418.652344 646.421875 415.539062 C 648.363281 404.671875 650.25 393.792969 652.164062 382.921875 C 652.707031 379.816406 647.90625 378.875 647.359375 381.984375 Z M 643.957031 430.75 C 640.804688 430.75 640.820312 435.644531 643.972656 435.644531 C 647.125 435.644531 647.109375 430.75 643.957031 430.75 Z M 643.957031 430.75 " fill-opacity="1" fill-rule="nonzero"/><path fill="#97909d" d="M 727.796875 288.753906 L 645.917969 288.753906 L 650.074219 259.664062 L 723.640625 259.664062 Z M 728.496094 293.648438 L 645.570312 293.648438 C 645.449219 293.648438 645.347656 293.597656 645.230469 293.582031 L 644.386719 299.496094 L 729.332031 299.496094 Z M 756.125 487.058594 L 617.59375 487.058594 L 643.6875 304.390625 L 730.03125 304.390625 Z M 643.957031 430.75 C 640.804688 430.75 640.820312 435.644531 643.972656 435.644531 C 647.125 435.644531 647.109375 430.75 643.957031 430.75 Z M 652.164062 382.921875 C 652.707031 379.816406 647.90625 378.875 647.359375 381.984375 C 645.453125 392.820312 643.515625 403.648438 641.644531 414.488281 C 641.109375 417.585938 645.867188 418.652344 646.421875 415.539062 C 648.363281 404.671875 650.25 393.792969 652.164062 382.921875 Z M 529.964844 304.390625 L 556.058594 487.058594 L 417.527344 487.058594 L 443.621094 304.390625 Z M 446.386719 419.113281 C 452.980469 406.050781 459.855469 393.125 466.574219 380.125 C 468.011719 377.347656 463.847656 374.777344 462.390625 377.585938 C 455.589844 390.6875 449.019531 403.9375 442.007812 416.929688 C 440.515625 419.699219 444.964844 421.9375 446.386719 419.113281 Z M 473.128906 384.453125 C 466.808594 397.445312 460.433594 410.410156 454.121094 423.40625 C 452.75 426.230469 457.0625 428.523438 458.453125 425.683594 C 464.898438 412.503906 471.289062 399.292969 477.734375 386.113281 C 479.113281 383.289062 474.496094 381.640625 473.128906 384.453125 Z M 450.007812 259.664062 L 445.855469 288.753906 L 527.730469 288.753906 L 523.574219 259.664062 Z M 445.164062 293.582031 L 444.320312 299.496094 L 529.265625 299.496094 L 528.429688 293.648438 L 445.503906 293.648438 C 445.382812 293.648438 445.28125 293.597656 445.164062 293.582031 Z M 361.640625 172.984375 C 357.015625 180.820312 344.769531 178.050781 344.359375 168.8125 C 344.265625 166.722656 341.972656 165.476562 340.277344 166.890625 C 333.316406 172.710938 321.75 172.335938 315.488281 165.566406 C 308.96875 158.515625 309.714844 147 316.261719 140.289062 C 318.167969 138.339844 314.738281 134.925781 312.800781 136.894531 C 304.453125 145.371094 303.550781 160.175781 312.007812 169 C 319.277344 176.582031 331.335938 177.828125 340.261719 172.785156 C 341.703125 177.128906 345.023438 180.773438 349.585938 182.09375 C 355.875 183.910156 362.464844 180.953125 365.839844 175.496094 C 367.496094 172.820312 363.246094 170.265625 361.640625 172.984375 Z M 454.796875 185.5625 C 464.902344 184.511719 471.976562 174.546875 471.183594 164.785156 C 470.929688 161.664062 465.96875 162.4375 466.355469 165.582031 C 467.355469 173.726562 459.511719 181.65625 451.40625 180.6875 C 447.480469 180.21875 443.785156 177.832031 441.523438 174.621094 C 440.296875 172.882812 439.441406 170.925781 439.128906 168.8125 C 438.90625 167.300781 438.675781 165.648438 436.746094 165.53125 C 435.023438 165.425781 434.101562 166.90625 434.195312 168.449219 C 434.824219 178.550781 444.886719 186.589844 454.796875 185.5625 Z M 616.929688 190.003906 C 614.96875 198.066406 607.4375 204.382812 599.296875 205.390625 C 591.324219 206.375 583.269531 202.074219 579.125 195.304688 C 579.351562 194.691406 579.394531 194.039062 579.042969 193.34375 C 578.59375 192.46875 577.664062 191.925781 576.671875 192.007812 C 575.613281 192.097656 575.078125 192.800781 574.519531 193.609375 C 574.492188 193.648438 574.453125 193.675781 574.425781 193.710938 C 574.410156 193.726562 574.398438 193.742188 574.382812 193.757812 C 573.5625 194.882812 572.5 195.796875 571.097656 196.449219 C 569.746094 197.078125 568.253906 197.34375 566.671875 197.144531 C 563.03125 196.695312 560.1875 193.386719 559.816406 189.835938 C 559.492188 186.695312 554.625 187.367188 554.96875 190.496094 C 555.433594 194.714844 558.085938 198.625 561.851562 200.601562 C 565.527344 202.53125 569.828125 202.542969 573.554688 200.699219 C 574.367188 200.296875 575.125 199.796875 575.828125 199.238281 C 581.292969 206.957031 590.902344 211.507812 600.40625 210.179688 C 610.597656 208.753906 618.832031 200.957031 621.664062 191.230469 C 622.542969 188.210938 617.675781 186.929688 616.929688 190.003906 Z M 725.917969 179.082031 C 729.792969 180.191406 734.21875 178.882812 736.789062 175.726562 C 739.492188 172.402344 739.683594 167.957031 737.5625 164.277344 C 736.4375 162.324219 734.507812 160.539062 732.335938 159.84375 C 731.121094 159.453125 729.617188 159.855469 729.140625 161.167969 C 728.703125 162.375 729.179688 163.890625 730.464844 164.367188 C 730.929688 164.535156 731.328125 164.753906 731.746094 165 C 731.820312 165.050781 731.90625 165.109375 731.945312 165.140625 C 732.152344 165.3125 732.351562 165.492188 732.539062 165.679688 C 732.597656 165.738281 732.742188 165.90625 732.789062 165.953125 C 732.863281 166.046875 732.9375 166.140625 733.007812 166.238281 C 733.238281 166.566406 733.429688 166.914062 733.617188 167.269531 C 733.65625 167.359375 733.730469 167.515625 733.746094 167.5625 C 733.828125 167.773438 733.898438 167.992188 733.960938 168.210938 C 734.003906 168.359375 734.035156 168.507812 734.066406 168.65625 C 734.054688 168.617188 734.117188 168.957031 734.125 169.027344 C 734.144531 169.253906 734.15625 169.480469 734.15625 169.707031 C 734.15625 169.78125 734.132812 170.003906 734.125 170.109375 C 734.054688 170.464844 733.945312 170.820312 733.894531 171.171875 C 733.859375 171.253906 733.824219 171.335938 733.785156 171.417969 C 733.703125 171.59375 733.613281 171.765625 733.515625 171.933594 C 733.457031 172.03125 733.394531 172.128906 733.332031 172.222656 C 733.324219 172.214844 733.050781 172.582031 732.984375 172.65625 C 732.765625 172.898438 732.523438 173.117188 732.277344 173.332031 C 732.1875 173.390625 731.929688 173.585938 731.863281 173.632812 C 731.703125 173.734375 731.539062 173.832031 731.371094 173.925781 C 731.203125 174.015625 731.03125 174.09375 730.863281 174.179688 C 730.820312 174.199219 730.832031 174.195312 730.804688 174.207031 C 730.730469 174.234375 730.652344 174.261719 730.574219 174.289062 C 730.214844 174.40625 729.851562 174.5 729.480469 174.5625 C 729.117188 174.621094 728.894531 174.632812 728.414062 174.601562 C 728.226562 174.589844 728.042969 174.5625 727.851562 174.542969 C 727.835938 174.539062 727.84375 174.542969 727.832031 174.539062 C 727.734375 174.515625 727.636719 174.492188 727.542969 174.460938 C 726.3125 174.117188 724.824219 174.636719 724.421875 175.957031 C 724.054688 177.164062 724.601562 178.703125 725.917969 179.082031 Z M 725.917969 179.082031 " fill-opacity="1" fill-rule="nonzero"/><g fill="#232021" fill-opacity="1"><g transform="translate(418.83519, 351.579348)"><g><path d="M 3.9375 0.140625 C 3.382812 0.140625 2.945312 -0.015625 2.625 -0.328125 C 2.300781 -0.640625 2.140625 -1.050781 2.140625 -1.5625 C 2.140625 -2.070312 2.300781 -2.488281 2.625 -2.8125 C 2.945312 -3.144531 3.382812 -3.3125 3.9375 -3.3125 C 4.507812 -3.3125 4.953125 -3.15625 5.265625 -2.84375 C 5.585938 -2.53125 5.75 -2.113281 5.75 -1.59375 C 5.75 -1.082031 5.585938 -0.664062 5.265625 -0.34375 C 4.941406 -0.0195312 4.5 0.140625 3.9375 0.140625 Z M 3.9375 0.140625 "/></g></g></g></svg>