<svg xmlns="http://www.w3.org/2000/svg" xmlns:xlink="http://www.w3.org/1999/xlink" width="1080" zoomAndPan="magnify" viewBox="0 0 810 809.999993" height="1080" preserveAspectRatio="xMidYMid meet" version="1.0"><defs><g/><clipPath id="6a4d3afb0f"><path d="M 46 89.101562 L 764 89.101562 L 764 320 L 46 320 Z M 46 89.101562 " clip-rule="nonzero"/></clipPath><clipPath id="0374282a70"><path d="M 46 89.101562 L 764 89.101562 L 764 300 L 46 300 Z M 46 89.101562 " clip-rule="nonzero"/></clipPath><clipPath id="ff149eec6e"><path d="M 0 712 L 810 712 L 810 720.601562 L 0 720.601562 Z M 0 712 " clip-rule="nonzero"/></clipPath></defs><path fill="#fee5ab" d="M 85.289062 660.332031 L 724.726562 660.332031 L 724.726562 306.09375 L 85.289062 306.09375 Z M 85.289062 660.332031 " fill-opacity="1" fill-rule="nonzero"/><path fill="#e5cf9c" d="M 691.128906 551.703125 L 511.78125 551.703125 L 511.78125 523.265625 L 516.886719 523.265625 L 516.886719 413.5625 L 686.027344 413.5625 L 686.027344 523.265625 L 691.128906 523.265625 L 691.128906 551.703125 M 518.992188 530.472656 L 518.992188 544.492188 L 683.921875 544.492188 L 683.921875 537.441406 L 688.164062 537.441406 L 688.164062 530.472656 L 678.816406 530.472656 L 678.816406 420.769531 L 524.097656 420.769531 L 524.097656 530.472656 L 518.992188 530.472656 " fill-opacity="1" fill-rule="nonzero"/><path fill="#feedc3" d="M 85.289062 660.273438 L 111.457031 660.273438 L 111.457031 322.050781 L 85.289062 322.050781 Z M 85.289062 660.273438 " fill-opacity="1" fill-rule="nonzero"/><path fill="#fcdb9a" d="M 85.289062 286.234375 L 85.289062 306.09375 L 724.722656 306.09375 L 724.722656 286.234375 L 405.007812 116.835938 L 85.289062 286.234375 " fill-opacity="1" fill-rule="nonzero"/><path fill="#999773" d="M 59.976562 695.773438 L 750.035156 695.773438 L 750.035156 660.269531 L 59.976562 660.269531 Z M 59.976562 695.773438 " fill-opacity="1" fill-rule="nonzero"/><path fill="#a9a484" d="M 750.035156 678.023438 L 687.855469 678.023438 L 687.855469 666.175781 L 750.035156 666.175781 L 750.035156 678.023438 M 680.320312 678.023438 L 592.136719 678.023438 L 592.136719 666.175781 L 680.320312 666.175781 L 680.320312 678.023438 M 584.597656 678.023438 L 225.414062 678.023438 L 225.414062 666.175781 L 584.597656 666.175781 L 584.597656 678.023438 M 217.878906 678.023438 L 129.691406 678.023438 L 129.691406 666.175781 L 217.878906 666.175781 L 217.878906 678.023438 M 122.15625 678.023438 L 59.976562 678.023438 L 59.976562 666.175781 L 122.15625 666.175781 L 122.15625 678.023438 " fill-opacity="1" fill-rule="nonzero"/><path fill="#e5cf9c" d="M 724.722656 660.273438 L 691.128906 660.273438 L 691.128906 322.050781 L 85.289062 322.050781 L 85.289062 306.09375 L 724.722656 306.09375 L 724.722656 660.273438 " fill-opacity="1" fill-rule="nonzero"/><path fill="#e3c68c" d="M 724.722656 306.09375 L 691.128906 306.09375 L 690.605469 297.015625 L 405.007812 145.96875 L 105.527344 306.09375 L 85.289062 306.09375 L 85.289062 299.96875 L 405.007812 130.570312 L 724.722656 299.96875 L 724.722656 306.09375 " fill-opacity="1" fill-rule="nonzero"/><path fill="#ffffff" d="M 477.933594 398.640625 L 332.082031 398.640625 L 332.082031 660.273438 L 477.933594 660.273438 L 477.933594 398.640625 " fill-opacity="1" fill-rule="nonzero"/><path fill="#f49a5d" d="M 341.933594 660.273438 L 341.933594 410.601562 L 468.078125 410.601562 L 468.078125 660.273438 L 341.933594 660.273438 " fill-opacity="1" fill-rule="nonzero"/><path fill="#feb07b" d="M 396.058594 488.792969 L 353.859375 488.792969 C 351.796875 486.734375 350.640625 485.578125 348.578125 483.519531 L 348.578125 422.148438 C 350.640625 420.089844 351.796875 418.933594 353.859375 416.871094 L 396.058594 416.871094 C 398.121094 418.933594 399.277344 420.089844 401.335938 422.148438 L 401.335938 483.519531 C 399.277344 485.578125 398.121094 486.734375 396.058594 488.792969 " fill-opacity="1" fill-rule="nonzero"/><path fill="#feb07b" d="M 455.96875 488.792969 L 413.765625 488.792969 C 411.703125 486.734375 410.550781 485.578125 408.488281 483.519531 L 408.488281 422.148438 C 410.550781 420.089844 411.703125 418.933594 413.765625 416.871094 L 455.96875 416.871094 C 458.027344 418.933594 459.183594 420.089844 461.246094 422.148438 L 461.246094 483.519531 C 459.183594 485.578125 458.027344 486.734375 455.96875 488.792969 " fill-opacity="1" fill-rule="nonzero"/><path fill="#feb07b" d="M 396.058594 569.785156 L 353.859375 569.785156 C 351.796875 567.726562 350.640625 566.570312 348.578125 564.515625 L 348.578125 503.140625 C 350.640625 501.078125 351.796875 499.925781 353.859375 497.863281 L 396.058594 497.863281 C 398.121094 499.925781 399.277344 501.078125 401.335938 503.140625 L 401.335938 564.515625 C 399.277344 566.570312 398.121094 567.726562 396.058594 569.785156 " fill-opacity="1" fill-rule="nonzero"/><path fill="#feb07b" d="M 455.96875 569.785156 L 413.765625 569.785156 C 411.703125 567.726562 410.550781 566.570312 408.488281 564.515625 L 408.488281 503.140625 C 410.550781 501.078125 411.703125 499.925781 413.765625 497.863281 L 455.96875 497.863281 C 458.027344 499.925781 459.183594 501.078125 461.246094 503.140625 L 461.246094 564.515625 C 459.183594 566.570312 458.027344 567.726562 455.96875 569.785156 " fill-opacity="1" fill-rule="nonzero"/><path fill="#feb07b" d="M 396.058594 649.671875 L 353.859375 649.671875 C 351.796875 647.613281 350.640625 646.457031 348.578125 644.402344 L 348.578125 583.023438 C 350.640625 580.96875 351.796875 579.8125 353.859375 577.753906 L 396.058594 577.753906 C 398.121094 579.8125 399.277344 580.96875 401.335938 583.023438 L 401.335938 644.402344 C 399.277344 646.457031 398.121094 647.613281 396.058594 649.671875 " fill-opacity="1" fill-rule="nonzero"/><path fill="#feb07b" d="M 455.96875 649.671875 L 413.765625 649.671875 C 411.703125 647.613281 410.550781 646.457031 408.488281 644.402344 L 408.488281 583.023438 C 410.550781 580.96875 411.703125 579.8125 413.765625 577.753906 L 455.96875 577.753906 C 458.027344 579.8125 459.183594 580.96875 461.246094 583.023438 L 461.246094 644.402344 C 459.183594 646.457031 458.027344 647.613281 455.96875 649.671875 " fill-opacity="1" fill-rule="nonzero"/><path fill="#e6e7e8" d="M 508.441406 683.9375 L 301.574219 683.9375 L 301.574219 695.773438 L 508.441406 695.773438 L 508.441406 683.9375 " fill-opacity="1" fill-rule="nonzero"/><path fill="#f1f2f2" d="M 508.441406 683.9375 L 301.574219 683.9375 L 301.574219 688.359375 L 508.441406 688.359375 L 508.441406 683.9375 " fill-opacity="1" fill-rule="nonzero"/><path fill="#e6e7e8" d="M 495.335938 672.101562 L 314.675781 672.101562 L 314.675781 683.9375 L 495.335938 683.9375 L 495.335938 672.101562 " fill-opacity="1" fill-rule="nonzero"/><path fill="#f1f2f2" d="M 495.335938 672.101562 L 314.675781 672.101562 L 314.675781 676.261719 L 495.335938 676.261719 L 495.335938 672.101562 " fill-opacity="1" fill-rule="nonzero"/><path fill="#e6e7e8" d="M 481.210938 660.273438 L 328.800781 660.273438 L 328.800781 672.101562 L 481.210938 672.101562 L 481.210938 660.273438 " fill-opacity="1" fill-rule="nonzero"/><path fill="#f1f2f2" d="M 481.210938 660.273438 L 328.800781 660.273438 L 328.800781 664.6875 L 481.210938 664.6875 L 481.210938 660.273438 " fill-opacity="1" fill-rule="nonzero"/><path fill="#f46c42" d="M 260.726562 165.550781 L 260.726562 116.835938 L 153.117188 116.835938 L 153.117188 222.566406 L 260.726562 165.550781 " fill-opacity="1" fill-rule="nonzero"/><g clip-path="url(#6a4d3afb0f)"><path fill="#999773" d="M 405.007812 89.105469 L 46.136719 279.25 L 46.136719 319.957031 L 47.566406 319.957031 L 405.007812 130.570312 L 762.441406 319.957031 L 763.875 319.957031 L 763.875 279.25 L 405.007812 89.105469 " fill-opacity="1" fill-rule="nonzero"/></g><g clip-path="url(#0374282a70)"><path fill="#a8a588" d="M 405.007812 89.105469 L 46.140625 279.25 L 46.140625 299.730469 L 405.007812 109.585938 L 763.875 299.730469 L 763.875 279.25 L 405.007812 89.105469 " fill-opacity="1" fill-rule="nonzero"/></g><path fill="#e6e7e8" d="M 260.726562 165.550781 L 260.726562 116.835938 L 153.117188 116.835938 L 260.726562 116.835938 L 260.726562 165.550781 " fill-opacity="1" fill-rule="nonzero"/><path fill="#dc623c" d="M 243.070312 174.902344 L 243.070312 137.28125 L 153.117188 137.28125 L 153.117188 116.835938 L 260.726562 116.835938 L 260.726562 165.550781 L 243.070312 174.902344 " fill-opacity="1" fill-rule="nonzero"/><path fill="#8a8969" d="M 243.070312 174.902344 L 260.726562 165.550781 L 243.070312 174.902344 " fill-opacity="1" fill-rule="nonzero"/><path fill="#98957c" d="M 243.070312 174.902344 L 260.726562 165.550781 L 243.070312 174.902344 " fill-opacity="1" fill-rule="nonzero"/><path fill="#f46c42" d="M 275.226562 128.09375 L 139.164062 128.09375 C 137.222656 128.09375 135.648438 126.523438 135.648438 124.574219 L 135.648438 108.304688 C 135.648438 106.363281 137.222656 104.785156 139.164062 104.785156 L 275.226562 104.785156 C 277.171875 104.785156 278.746094 106.363281 278.746094 108.304688 L 278.746094 124.574219 C 278.746094 126.523438 277.171875 128.09375 275.226562 128.09375 " fill-opacity="1" fill-rule="nonzero"/><path fill="#e5cf9c" d="M 304.539062 551.703125 L 125.191406 551.703125 L 125.191406 523.265625 L 130.296875 523.265625 L 130.296875 413.5625 L 299.433594 413.5625 L 299.433594 523.265625 L 304.539062 523.265625 L 304.539062 551.703125 M 142.457031 512.050781 L 142.457031 528.089844 L 287.273438 528.089844 L 287.273438 512.050781 C 287.585938 512.054688 287.898438 512.054688 288.214844 512.054688 C 288.996094 512.054688 289.773438 512.046875 290.546875 512.035156 L 290.546875 421.933594 L 237.570312 421.933594 C 237.648438 422.664062 237.761719 423.460938 237.914062 424.320312 L 191.761719 424.320312 C 191.914062 423.460938 192.027344 422.664062 192.109375 421.933594 L 139.128906 421.933594 L 139.128906 512.035156 C 139.902344 512.046875 140.683594 512.054688 141.464844 512.054688 C 141.792969 512.054688 142.125 512.054688 142.457031 512.050781 " fill-opacity="1" fill-rule="nonzero"/><path fill="#5b4c49" d="M 529.046875 528.089844 L 673.863281 528.089844 L 673.863281 424.320312 L 529.046875 424.320312 Z M 529.046875 528.089844 " fill-opacity="1" fill-rule="nonzero"/><path fill="#82716d" d="M 549.71875 518.589844 L 536.429688 518.589844 L 536.429688 511.664062 C 541.363281 511.125 545.296875 509.953125 546.222656 507.671875 C 546.863281 506.097656 547.125 502.539062 547.132812 497.941406 L 595.167969 437.839844 L 595.167969 461.722656 L 549.71875 518.589844 " fill-opacity="1" fill-rule="nonzero"/><path fill="#82716d" d="M 546.03125 473.957031 C 545.648438 468.769531 545.226562 463.886719 544.875 460.039062 L 544.933594 459.964844 C 565.164062 452.316406 573.402344 440.003906 576.71875 430.527344 L 580.738281 430.527344 L 546.03125 473.957031 " fill-opacity="1" fill-rule="nonzero"/><path fill="#82716d" d="M 624.449219 518.589844 L 611.15625 518.589844 L 611.15625 511.339844 L 653.625 458.195312 C 655.015625 458.816406 656.464844 459.417969 657.988281 459.992188 C 657.535156 464.941406 656.964844 471.636719 656.507812 478.46875 L 624.449219 518.589844 " fill-opacity="1" fill-rule="nonzero"/><path fill="#82716d" d="M 611.15625 485.972656 L 611.15625 470.613281 L 633.167969 443.066406 C 635.035156 445.382812 637.28125 447.683594 639.984375 449.898438 L 611.15625 485.972656 " fill-opacity="1" fill-rule="nonzero"/><path fill="#fc8465" d="M 525.71875 512.035156 C 534.71875 512.199219 544.671875 511.484375 546.222656 507.671875 C 549.148438 500.484375 544.09375 451.964844 544.09375 451.964844 C 543.074219 437.011719 540.34375 427.714844 537.171875 421.933594 L 525.71875 421.933594 L 525.71875 512.035156 " fill-opacity="1" fill-rule="nonzero"/><path fill="#fc7256" d="M 578.699219 421.933594 L 525.71875 421.933594 L 525.71875 465.007812 C 569.886719 457.59375 577.503906 432.578125 578.699219 421.933594 " fill-opacity="1" fill-rule="nonzero"/><path fill="#ee7d60" d="M 540.800781 509.292969 C 540.800781 509.292969 544.527344 501.703125 544.0625 492.25 C 543.597656 482.796875 543.53125 465.007812 543.53125 465.007812 C 543.53125 465.007812 546.792969 499.242188 545.128906 503.902344 C 543.464844 508.5625 540.800781 509.292969 540.800781 509.292969 " fill-opacity="1" fill-rule="nonzero"/><path fill="#ee6c52" d="M 535.433594 460.089844 C 535.433594 460.089844 552.355469 452.234375 560.351562 445.308594 C 568.34375 438.382812 574.335938 430.527344 574.335938 430.527344 C 574.335938 430.527344 569.007812 443.441406 557.417969 450.632812 C 545.828125 457.828125 535.433594 460.089844 535.433594 460.089844 " fill-opacity="1" fill-rule="nonzero"/><path fill="#ee6c52" d="M 538.050781 448.609375 C 538.050781 448.609375 547.15625 444.378906 551.457031 440.652344 C 555.757812 436.925781 558.988281 432.695312 558.988281 432.695312 C 558.988281 432.695312 556.121094 439.648438 549.878906 443.519531 C 543.644531 447.390625 538.050781 448.609375 538.050781 448.609375 " fill-opacity="1" fill-rule="nonzero"/><path fill="#fc8465" d="M 677.136719 512.035156 C 668.132812 512.199219 658.1875 511.484375 656.628906 507.671875 C 653.707031 500.484375 658.761719 451.964844 658.761719 451.964844 C 659.78125 437.011719 662.511719 427.714844 665.679688 421.933594 L 677.136719 421.933594 L 677.136719 512.035156 " fill-opacity="1" fill-rule="nonzero"/><path fill="#fc7256" d="M 624.160156 421.933594 L 677.136719 421.933594 L 677.136719 465.007812 C 632.972656 457.59375 625.351562 432.578125 624.160156 421.933594 " fill-opacity="1" fill-rule="nonzero"/><path fill="#ee7d60" d="M 662.0625 509.292969 C 662.0625 509.292969 659.394531 508.5625 657.730469 503.902344 C 656.066406 499.242188 659.324219 465.007812 659.324219 465.007812 C 659.324219 465.007812 659.265625 482.796875 658.792969 492.25 C 658.328125 501.703125 662.0625 509.292969 662.0625 509.292969 " fill-opacity="1" fill-rule="nonzero"/><path fill="#ee6c52" d="M 667.421875 460.089844 C 667.421875 460.089844 657.03125 457.828125 645.4375 450.632812 C 633.847656 443.441406 628.515625 430.527344 628.515625 430.527344 C 628.515625 430.527344 634.511719 438.382812 642.507812 445.308594 C 650.5 452.234375 667.421875 460.089844 667.421875 460.089844 " fill-opacity="1" fill-rule="nonzero"/><path fill="#ee6c52" d="M 664.808594 448.609375 C 664.808594 448.609375 659.210938 447.390625 652.980469 443.519531 C 646.738281 439.648438 643.871094 432.695312 643.871094 432.695312 C 643.871094 432.695312 647.09375 436.925781 651.398438 440.652344 C 655.699219 444.378906 664.808594 448.609375 664.808594 448.609375 " fill-opacity="1" fill-rule="nonzero"/><path fill="#f1f2f2" d="M 669.835938 523.550781 L 605.683594 523.550781 L 605.683594 429.015625 L 669.835938 429.015625 L 669.835938 523.550781 M 597.226562 523.550781 L 533.074219 523.550781 L 533.074219 429.015625 L 597.226562 429.015625 L 597.226562 523.550781 M 524.097656 420.769531 L 524.097656 531.636719 L 678.816406 531.636719 L 678.816406 420.769531 L 524.097656 420.769531 " fill-opacity="1" fill-rule="nonzero"/><path fill="#999773" d="M 518.992188 544.492188 L 683.921875 544.492188 L 683.921875 530.472656 L 518.992188 530.472656 Z M 518.992188 544.492188 " fill-opacity="1" fill-rule="nonzero"/><path fill="#5b4c49" d="M 142.457031 528.089844 L 287.273438 528.089844 L 287.273438 424.320312 L 142.457031 424.320312 Z M 142.457031 528.089844 " fill-opacity="1" fill-rule="nonzero"/><path fill="#82716d" d="M 163.128906 518.589844 L 149.835938 518.589844 L 149.835938 511.664062 C 154.773438 511.125 158.707031 509.953125 159.632812 507.671875 C 160.273438 506.097656 160.53125 502.539062 160.542969 497.941406 L 208.574219 437.839844 L 208.574219 461.722656 L 163.128906 518.589844 " fill-opacity="1" fill-rule="nonzero"/><path fill="#82716d" d="M 159.441406 473.957031 C 159.058594 468.769531 158.636719 463.886719 158.285156 460.039062 L 158.34375 459.964844 C 178.574219 452.316406 186.808594 440.003906 190.128906 430.527344 L 194.144531 430.527344 L 159.441406 473.957031 " fill-opacity="1" fill-rule="nonzero"/><path fill="#82716d" d="M 237.859375 518.589844 L 224.5625 518.589844 L 224.5625 511.339844 L 267.035156 458.195312 C 268.425781 458.816406 269.875 459.417969 271.394531 459.992188 C 270.941406 464.941406 270.371094 471.636719 269.917969 478.46875 L 237.859375 518.589844 " fill-opacity="1" fill-rule="nonzero"/><path fill="#82716d" d="M 224.5625 485.972656 L 224.5625 470.613281 L 246.574219 443.066406 C 248.445312 445.382812 250.695312 447.6875 253.390625 449.898438 L 224.5625 485.972656 " fill-opacity="1" fill-rule="nonzero"/><path fill="#fc8465" d="M 139.128906 512.035156 C 148.132812 512.199219 158.078125 511.484375 159.632812 507.671875 C 162.558594 500.484375 157.503906 451.964844 157.503906 451.964844 C 156.484375 437.011719 153.757812 427.714844 150.585938 421.933594 L 139.128906 421.933594 L 139.128906 512.035156 " fill-opacity="1" fill-rule="nonzero"/><path fill="#fc7256" d="M 192.109375 421.933594 L 139.128906 421.933594 L 139.128906 465.007812 C 183.292969 457.59375 190.914062 432.578125 192.109375 421.933594 " fill-opacity="1" fill-rule="nonzero"/><path fill="#ee7d60" d="M 154.207031 509.292969 C 154.207031 509.292969 157.9375 501.703125 157.472656 492.25 C 157.007812 482.796875 156.9375 465.007812 156.9375 465.007812 C 156.9375 465.007812 160.203125 499.242188 158.539062 503.902344 C 156.871094 508.5625 154.207031 509.292969 154.207031 509.292969 " fill-opacity="1" fill-rule="nonzero"/><path fill="#ee6c52" d="M 148.847656 460.089844 C 148.847656 460.089844 165.765625 452.234375 173.757812 445.308594 C 181.753906 438.382812 187.746094 430.527344 187.746094 430.527344 C 187.746094 430.527344 182.421875 443.441406 170.828125 450.632812 C 159.238281 457.828125 148.847656 460.089844 148.847656 460.089844 " fill-opacity="1" fill-rule="nonzero"/><path fill="#ee6c52" d="M 151.457031 448.609375 C 151.457031 448.609375 160.5625 444.378906 164.867188 440.652344 C 169.167969 436.925781 172.394531 432.695312 172.394531 432.695312 C 172.394531 432.695312 169.527344 439.648438 163.289062 443.519531 C 157.050781 447.390625 151.457031 448.609375 151.457031 448.609375 " fill-opacity="1" fill-rule="nonzero"/><path fill="#fc8465" d="M 290.546875 512.035156 C 281.542969 512.199219 271.59375 511.484375 270.042969 507.671875 C 267.117188 500.484375 272.171875 451.964844 272.171875 451.964844 C 273.191406 437.011719 275.921875 427.714844 279.09375 421.933594 L 290.546875 421.933594 L 290.546875 512.035156 " fill-opacity="1" fill-rule="nonzero"/><path fill="#fc7256" d="M 237.570312 421.933594 L 290.546875 421.933594 L 290.546875 465.007812 C 246.378906 457.59375 238.765625 432.578125 237.570312 421.933594 " fill-opacity="1" fill-rule="nonzero"/><path fill="#ee7d60" d="M 275.46875 509.292969 C 275.46875 509.292969 272.800781 508.5625 271.136719 503.902344 C 269.472656 499.242188 272.734375 465.007812 272.734375 465.007812 C 272.734375 465.007812 272.671875 482.796875 272.203125 492.25 C 271.738281 501.703125 275.46875 509.292969 275.46875 509.292969 " fill-opacity="1" fill-rule="nonzero"/><path fill="#ee6c52" d="M 280.832031 460.089844 C 280.832031 460.089844 270.4375 457.828125 258.847656 450.632812 C 247.257812 443.441406 241.925781 430.527344 241.925781 430.527344 C 241.925781 430.527344 247.921875 438.382812 255.914062 445.308594 C 263.910156 452.234375 280.832031 460.089844 280.832031 460.089844 " fill-opacity="1" fill-rule="nonzero"/><path fill="#ee6c52" d="M 278.21875 448.609375 C 278.21875 448.609375 272.625 447.390625 266.386719 443.519531 C 260.148438 439.648438 257.277344 432.695312 257.277344 432.695312 C 257.277344 432.695312 260.507812 436.925781 264.808594 440.652344 C 269.109375 444.378906 278.21875 448.609375 278.21875 448.609375 " fill-opacity="1" fill-rule="nonzero"/><path fill="#f1f2f2" d="M 283.246094 523.550781 L 219.089844 523.550781 L 219.089844 429.015625 L 283.246094 429.015625 Z M 210.640625 523.550781 L 146.484375 523.550781 L 146.484375 429.015625 L 210.640625 429.015625 Z M 137.507812 420.769531 L 137.507812 531.636719 L 292.222656 531.636719 L 292.222656 420.769531 L 137.507812 420.769531 " fill-opacity="1" fill-rule="nonzero"/><path fill="#999773" d="M 297.328125 544.492188 L 132.402344 544.492188 L 132.402344 530.472656 L 297.328125 530.472656 L 297.328125 544.492188 " fill-opacity="1" fill-rule="nonzero"/><path fill="#f3e7cd" d="M 683.921875 537.441406 L 688.164062 537.441406 L 688.164062 530.472656 L 683.921875 530.472656 Z M 683.921875 537.441406 " fill-opacity="1" fill-rule="nonzero"/><path fill="#cfccb9" d="M 523.234375 537.441406 L 683.921875 537.441406 L 683.921875 530.472656 L 523.234375 530.472656 Z M 523.234375 537.441406 " fill-opacity="1" fill-rule="nonzero"/><path fill="#e3c68c" d="M 405.007812 297.015625 C 374.21875 297.015625 349.261719 272.066406 349.261719 241.296875 C 349.261719 210.523438 374.21875 185.578125 405.007812 185.578125 C 435.792969 185.578125 460.75 210.523438 460.75 241.296875 C 460.75 272.066406 435.792969 297.015625 405.007812 297.015625 " fill-opacity="1" fill-rule="nonzero"/><path fill="#ffffff" d="M 456.160156 241.296875 C 456.160156 269.53125 433.253906 292.425781 405.007812 292.425781 C 376.753906 292.425781 353.851562 269.53125 353.851562 241.296875 C 353.851562 213.058594 376.753906 190.167969 405.007812 190.167969 C 433.253906 190.167969 456.160156 213.058594 456.160156 241.296875 " fill-opacity="1" fill-rule="nonzero"/><path fill="#5b4c49" d="M 445.820312 241.296875 C 445.820312 263.824219 427.546875 282.089844 405.007812 282.089844 C 382.464844 282.089844 364.195312 263.824219 364.195312 241.296875 C 364.195312 218.765625 382.464844 200.5 405.007812 200.5 C 427.546875 200.5 445.820312 218.765625 445.820312 241.296875 " fill-opacity="1" fill-rule="nonzero"/><path fill="#ffffff" d="M 410.117188 200.855469 C 408.441406 200.644531 406.742188 200.5 405.007812 200.5 C 403.269531 200.5 401.570312 200.644531 399.894531 200.855469 L 399.894531 236.183594 L 364.546875 236.183594 C 364.335938 237.863281 364.195312 239.5625 364.195312 241.296875 C 364.195312 243.03125 364.335938 244.726562 364.546875 246.40625 L 399.894531 246.40625 L 399.894531 281.738281 C 401.570312 281.945312 403.269531 282.089844 405.007812 282.089844 C 406.742188 282.089844 408.441406 281.945312 410.117188 281.738281 L 410.117188 246.40625 L 445.464844 246.40625 C 445.675781 244.726562 445.820312 243.03125 445.820312 241.296875 C 445.820312 239.5625 445.675781 237.863281 445.464844 236.183594 L 410.117188 236.183594 L 410.117188 200.855469 " fill-opacity="1" fill-rule="nonzero"/><path fill="#feeabc" d="M 173.179688 584.070312 L 129.738281 584.070312 C 128.582031 584.070312 127.644531 583.136719 127.644531 581.972656 L 127.644531 564.570312 C 127.644531 563.414062 128.582031 562.480469 129.738281 562.480469 L 173.179688 562.480469 C 174.335938 562.480469 175.273438 563.414062 175.273438 564.570312 L 175.273438 581.972656 C 175.273438 583.136719 174.335938 584.070312 173.179688 584.070312 " fill-opacity="1" fill-rule="nonzero"/><path fill="#feeabc" d="M 305.023438 624.503906 L 261.578125 624.503906 C 260.421875 624.503906 259.484375 623.570312 259.484375 622.414062 L 259.484375 605.011719 C 259.484375 603.855469 260.421875 602.917969 261.578125 602.917969 L 305.023438 602.917969 C 306.179688 602.917969 307.117188 603.855469 307.117188 605.011719 L 307.117188 622.414062 C 307.117188 623.570312 306.179688 624.503906 305.023438 624.503906 " fill-opacity="1" fill-rule="nonzero"/><path fill="#fde2ae" d="M 547.441406 282.089844 L 504 282.089844 C 502.84375 282.089844 501.90625 281.152344 501.90625 279.996094 L 501.90625 262.59375 C 501.90625 261.4375 502.84375 260.5 504 260.5 L 547.441406 260.5 C 548.597656 260.5 549.535156 261.4375 549.535156 262.59375 L 549.535156 279.996094 C 549.535156 281.152344 548.597656 282.089844 547.441406 282.089844 " fill-opacity="1" fill-rule="nonzero"/><path fill="#feeabc" d="M 467.539062 364.347656 L 424.097656 364.347656 C 422.941406 364.347656 422.003906 363.410156 422.003906 362.257812 L 422.003906 344.851562 C 422.003906 343.695312 422.941406 342.757812 424.097656 342.757812 L 467.539062 342.757812 C 468.695312 342.757812 469.632812 343.695312 469.632812 344.851562 L 469.632812 362.257812 C 469.632812 363.410156 468.695312 364.347656 467.539062 364.347656 " fill-opacity="1" fill-rule="nonzero"/><path fill="#ead49f" d="M 273.375 381.578125 L 229.933594 381.578125 C 228.777344 381.578125 227.839844 380.640625 227.839844 379.484375 L 227.839844 362.078125 C 227.839844 360.925781 228.777344 359.988281 229.933594 359.988281 L 273.375 359.988281 C 274.53125 359.988281 275.46875 360.925781 275.46875 362.078125 L 275.46875 379.484375 C 275.46875 380.640625 274.53125 381.578125 273.375 381.578125 " fill-opacity="1" fill-rule="nonzero"/><path fill="#e1643d" d="M 215.074219 177.667969 L 171.632812 177.667969 C 170.476562 177.667969 169.539062 176.730469 169.539062 175.574219 L 169.539062 158.171875 C 169.539062 157.019531 170.476562 156.082031 171.632812 156.082031 L 215.074219 156.082031 C 216.230469 156.082031 217.167969 157.019531 217.167969 158.171875 L 217.167969 175.574219 C 217.167969 176.730469 216.230469 177.667969 215.074219 177.667969 " fill-opacity="1" fill-rule="nonzero"/><path fill="#ead49f" d="M 596.058594 627.910156 L 552.617188 627.910156 C 551.460938 627.910156 550.523438 626.976562 550.523438 625.816406 L 550.523438 608.410156 C 550.523438 607.261719 551.460938 606.316406 552.617188 606.316406 L 596.058594 606.316406 C 597.214844 606.316406 598.152344 607.261719 598.152344 608.410156 L 598.152344 625.816406 C 598.152344 626.976562 597.214844 627.910156 596.058594 627.910156 " fill-opacity="1" fill-rule="nonzero"/><path fill="#ead49f" d="M 650.238281 359.988281 L 606.792969 359.988281 C 605.644531 359.988281 604.699219 359.050781 604.699219 357.894531 L 604.699219 340.492188 C 604.699219 339.335938 605.644531 338.398438 606.792969 338.398438 L 650.238281 338.398438 C 651.394531 338.398438 652.332031 339.335938 652.332031 340.492188 L 652.332031 357.894531 C 652.332031 359.050781 651.394531 359.988281 650.238281 359.988281 " fill-opacity="1" fill-rule="nonzero"/><path fill="#ba8a1e" d="M 680.320312 709.378906 L 687.855469 709.378906 L 687.855469 642.066406 L 680.320312 642.066406 Z M 680.320312 709.378906 " fill-opacity="1" fill-rule="nonzero"/><path fill="#987219" d="M 687.855469 709.378906 L 684.613281 709.378906 L 684.613281 642.066406 L 687.855469 642.066406 L 687.855469 709.378906 " fill-opacity="1" fill-rule="nonzero"/><path fill="#91c422" d="M 723.855469 626.515625 C 723.855469 648.464844 706.050781 666.265625 684.089844 666.265625 C 662.121094 666.265625 644.316406 648.464844 644.316406 626.515625 C 644.316406 604.566406 662.121094 586.769531 684.089844 586.769531 C 706.050781 586.769531 723.855469 604.566406 723.855469 626.515625 " fill-opacity="1" fill-rule="nonzero"/><path fill="#8ab515" d="M 692.554688 587.691406 C 704.089844 594.652344 711.828125 607.261719 711.828125 621.710938 C 711.828125 643.660156 694.027344 661.457031 672.0625 661.457031 C 669.152344 661.457031 666.324219 661.125 663.59375 660.535156 C 669.582031 664.148438 676.578125 666.265625 684.089844 666.265625 C 706.050781 666.265625 723.855469 648.464844 723.855469 626.515625 C 723.855469 607.46875 710.449219 591.574219 692.554688 587.691406 " fill-opacity="1" fill-rule="nonzero"/><path fill="#ba8a1e" d="M 584.597656 709.378906 L 592.136719 709.378906 L 592.136719 642.066406 L 584.597656 642.066406 Z M 584.597656 709.378906 " fill-opacity="1" fill-rule="nonzero"/><path fill="#987219" d="M 592.136719 709.378906 L 588.886719 709.378906 L 588.886719 642.066406 L 592.136719 642.066406 L 592.136719 709.378906 " fill-opacity="1" fill-rule="nonzero"/><path fill="#91c422" d="M 628.132812 626.515625 C 628.132812 648.464844 610.332031 666.265625 588.367188 666.265625 C 566.40625 666.265625 548.601562 648.464844 548.601562 626.515625 C 548.601562 604.566406 566.40625 586.769531 588.367188 586.769531 C 610.332031 586.769531 628.132812 604.566406 628.132812 626.515625 " fill-opacity="1" fill-rule="nonzero"/><path fill="#8ab515" d="M 596.839844 587.691406 C 608.371094 594.652344 616.109375 607.261719 616.109375 621.710938 C 616.109375 643.660156 598.300781 661.457031 576.339844 661.457031 C 573.429688 661.457031 570.601562 661.125 567.871094 660.535156 C 573.859375 664.148438 580.859375 666.265625 588.367188 666.265625 C 610.332031 666.265625 628.132812 648.464844 628.132812 626.515625 C 628.132812 607.46875 614.726562 591.574219 596.839844 587.691406 " fill-opacity="1" fill-rule="nonzero"/><path fill="#ba8a1e" d="M 217.878906 709.378906 L 225.414062 709.378906 L 225.414062 642.066406 L 217.878906 642.066406 Z M 217.878906 709.378906 " fill-opacity="1" fill-rule="nonzero"/><path fill="#987219" d="M 225.414062 709.378906 L 222.167969 709.378906 L 222.167969 642.066406 L 225.414062 642.066406 L 225.414062 709.378906 " fill-opacity="1" fill-rule="nonzero"/><path fill="#91c422" d="M 261.414062 626.515625 C 261.414062 648.464844 243.609375 666.265625 221.648438 666.265625 C 199.683594 666.265625 181.878906 648.464844 181.878906 626.515625 C 181.878906 604.566406 199.683594 586.769531 221.648438 586.769531 C 243.609375 586.769531 261.414062 604.566406 261.414062 626.515625 " fill-opacity="1" fill-rule="nonzero"/><path fill="#8ab515" d="M 230.113281 587.691406 C 241.648438 594.652344 249.386719 607.261719 249.386719 621.710938 C 249.386719 643.660156 231.582031 661.457031 209.617188 661.457031 C 206.710938 661.457031 203.882812 661.125 201.148438 660.535156 C 207.140625 664.148438 214.136719 666.265625 221.648438 666.265625 C 243.609375 666.265625 261.414062 648.464844 261.414062 626.515625 C 261.414062 607.46875 248.003906 591.574219 230.113281 587.691406 " fill-opacity="1" fill-rule="nonzero"/><path fill="#ba8a1e" d="M 122.15625 709.378906 L 129.691406 709.378906 L 129.691406 642.066406 L 122.15625 642.066406 Z M 122.15625 709.378906 " fill-opacity="1" fill-rule="nonzero"/><path fill="#987219" d="M 129.691406 709.378906 L 126.445312 709.378906 L 126.445312 642.066406 L 129.691406 642.066406 L 129.691406 709.378906 " fill-opacity="1" fill-rule="nonzero"/><path fill="#91c422" d="M 165.691406 626.515625 C 165.691406 648.464844 147.886719 666.265625 125.925781 666.265625 C 103.960938 666.265625 86.15625 648.464844 86.15625 626.515625 C 86.15625 604.566406 103.960938 586.769531 125.925781 586.769531 C 147.886719 586.769531 165.691406 604.566406 165.691406 626.515625 " fill-opacity="1" fill-rule="nonzero"/><path fill="#8ab515" d="M 134.394531 587.691406 C 145.929688 594.652344 153.664062 607.261719 153.664062 621.710938 C 153.664062 643.660156 135.859375 661.457031 113.898438 661.457031 C 110.988281 661.457031 108.160156 661.125 105.429688 660.535156 C 111.417969 664.148438 118.417969 666.265625 125.925781 666.265625 C 147.886719 666.265625 165.691406 648.464844 165.691406 626.515625 C 165.691406 607.46875 152.285156 591.574219 134.394531 587.691406 " fill-opacity="1" fill-rule="nonzero"/><path fill="#91c422" d="M 809.746094 712.589844 L 0.265625 712.589844 L 0.265625 695.773438 L 809.746094 695.773438 L 809.746094 712.589844 " fill-opacity="1" fill-rule="nonzero"/><g clip-path="url(#ff149eec6e)"><path fill="#82a818" d="M 809.746094 720.59375 L 0.265625 720.59375 L 0.265625 712.589844 L 809.746094 712.589844 L 809.746094 720.59375 " fill-opacity="1" fill-rule="nonzero"/></g><path fill="#a6d12f" d="M 579.125 618.5 C 573.46875 623.363281 565.8125 623.738281 562.03125 619.339844 C 558.246094 614.945312 559.761719 607.429688 565.421875 602.566406 C 571.078125 597.703125 578.730469 597.328125 582.519531 601.726562 C 586.300781 606.128906 584.78125 613.636719 579.125 618.5 " fill-opacity="1" fill-rule="nonzero"/><path fill="#a6d12f" d="M 211.285156 618.5 C 205.628906 623.363281 197.972656 623.738281 194.191406 619.339844 C 190.40625 614.945312 191.925781 607.429688 197.582031 602.566406 C 203.238281 597.703125 210.894531 597.328125 214.679688 601.726562 C 218.460938 606.128906 216.945312 613.636719 211.285156 618.5 " fill-opacity="1" fill-rule="nonzero"/><path fill="#a6d12f" d="M 118.308594 618.5 C 112.648438 623.363281 104.996094 623.738281 101.210938 619.339844 C 97.425781 614.945312 98.945312 607.429688 104.605469 602.566406 C 110.261719 597.703125 117.914062 597.328125 121.699219 601.726562 C 125.484375 606.128906 123.964844 613.636719 118.308594 618.5 " fill-opacity="1" fill-rule="nonzero"/><path fill="#a6d12f" d="M 674.84375 618.5 C 669.1875 623.363281 661.53125 623.738281 657.75 619.339844 C 653.964844 614.945312 655.484375 607.429688 661.140625 602.566406 C 666.800781 597.703125 674.453125 597.328125 678.238281 601.726562 C 682.019531 606.128906 680.5 613.636719 674.84375 618.5 " fill-opacity="1" fill-rule="nonzero"/><g fill="#232021" fill-opacity="1"><g transform="translate(418.83519, 351.579348)"><g><path d="M 3.9375 0.140625 C 3.382812 0.140625 2.945312 -0.015625 2.625 -0.328125 C 2.300781 -0.640625 2.140625 -1.050781 2.140625 -1.5625 C 2.140625 -2.070312 2.300781 -2.488281 2.625 -2.8125 C 2.945312 -3.144531 3.382812 -3.3125 3.9375 -3.3125 C 4.507812 -3.3125 4.953125 -3.15625 5.265625 -2.84375 C 5.585938 -2.53125 5.75 -2.113281 5.75 -1.59375 C 5.75 -1.082031 5.585938 -0.664062 5.265625 -0.34375 C 4.941406 -0.0195312 4.5 0.140625 3.9375 0.140625 Z M 3.9375 0.140625 "/></g></g></g></svg>