<svg xmlns="http://www.w3.org/2000/svg" xmlns:xlink="http://www.w3.org/1999/xlink" width="1080" zoomAndPan="magnify" viewBox="0 0 810 809.999993" height="1080" preserveAspectRatio="xMidYMid meet" version="1.0"><defs><g/><clipPath id="9d0869f040"><path d="M 3.761719 264 L 432 264 L 432 313 L 3.761719 313 Z M 3.761719 264 " clip-rule="nonzero"/></clipPath><clipPath id="d3b2dc18aa"><path d="M 267.328125 280 L 597.355469 280 L 597.355469 728.773438 L 267.328125 728.773438 Z M 267.328125 280 " clip-rule="nonzero"/></clipPath><clipPath id="428a164399"><path d="M 292 322 L 597.355469 322 L 597.355469 728.773438 L 292 728.773438 Z M 292 322 " clip-rule="nonzero"/></clipPath></defs><path fill="#dfe2eb" d="M 344.46875 443.507812 L 90.984375 443.507812 C 47.707031 443.507812 12.621094 408.421875 12.621094 365.144531 L 12.621094 264.976562 L 422.835938 264.976562 L 422.835938 365.144531 C 422.835938 408.421875 387.75 443.507812 344.46875 443.507812 " fill-opacity="1" fill-rule="nonzero"/><path fill="#a7aab0" d="M 349.941406 431.238281 L 85.507812 431.238281 C 59.75 431.238281 36.789062 419.808594 21.804688 401.960938 C 34.984375 426.675781 61.015625 443.507812 90.984375 443.507812 L 344.46875 443.507812 C 374.4375 443.507812 400.464844 426.675781 413.648438 401.960938 C 398.667969 419.808594 375.703125 431.238281 349.941406 431.238281 " fill-opacity="1" fill-rule="nonzero"/><path fill="#a7aab0" d="M 12.621094 324.917969 C 12.707031 324.921875 12.785156 324.945312 12.875 324.945312 L 422.578125 324.945312 C 422.664062 324.945312 422.746094 324.921875 422.835938 324.917969 L 422.835938 277.273438 C 422.746094 277.269531 422.664062 277.246094 422.578125 277.246094 L 12.875 277.246094 C 12.785156 277.246094 12.707031 277.269531 12.621094 277.273438 L 12.621094 324.917969 " fill-opacity="1" fill-rule="nonzero"/><g clip-path="url(#9d0869f040)"><path fill="#dfe2eb" d="M 12.875 312.675781 L 422.578125 312.675781 C 427.609375 312.675781 431.691406 308.597656 431.691406 303.5625 L 431.691406 274.089844 C 431.691406 269.058594 427.609375 264.976562 422.578125 264.976562 L 12.875 264.976562 C 7.84375 264.976562 3.761719 269.058594 3.761719 274.089844 L 3.761719 303.5625 C 3.761719 308.597656 7.84375 312.675781 12.875 312.675781 " fill-opacity="1" fill-rule="nonzero"/></g><path fill="#ffffff" d="M 14.664062 303.988281 L 14.664062 284.316406 C 14.664062 279.277344 18.742188 275.203125 23.78125 275.203125 L 420.136719 275.203125 C 421.363281 275.203125 422.53125 275.453125 423.601562 275.890625 C 422.359375 272.324219 419.011719 269.75 415.023438 269.75 L 18.667969 269.75 C 13.632812 269.75 9.554688 273.832031 9.554688 278.863281 L 9.554688 298.539062 C 9.554688 302.34375 11.890625 305.59375 15.203125 306.960938 C 14.875 306.023438 14.664062 305.035156 14.664062 303.988281 " fill-opacity="1" fill-rule="nonzero"/><path fill="#96999e" d="M 230.933594 264.976562 L 204.515625 264.976562 L 204.515625 178.542969 C 204.515625 171.246094 210.433594 165.332031 217.726562 165.332031 C 225.023438 165.332031 230.933594 171.246094 230.933594 178.542969 L 230.933594 264.976562 " fill-opacity="1" fill-rule="nonzero"/><path fill="#727478" d="M 226.503906 218.367188 L 208.945312 218.367188 C 207.175781 218.367188 205.738281 216.929688 205.738281 215.15625 C 205.738281 213.378906 207.175781 211.945312 208.945312 211.945312 L 226.503906 211.945312 C 228.277344 211.945312 229.71875 213.378906 229.71875 215.15625 C 229.71875 216.929688 228.277344 218.367188 226.503906 218.367188 " fill-opacity="1" fill-rule="nonzero"/><path fill="#c4c7cf" d="M 230.917969 177.804688 L 230.917969 178.484375 L 229.671875 215.171875 C 229.671875 213.359375 228.3125 211.996094 226.503906 211.996094 L 208.953125 211.996094 C 207.136719 211.996094 205.78125 213.359375 205.78125 215.171875 L 204.535156 178.484375 L 204.535156 177.804688 L 204.648438 177.804688 C 204.875 170.898438 210.648438 165.351562 217.785156 165.351562 C 224.800781 165.351562 230.578125 170.898438 230.804688 177.804688 L 230.917969 177.804688 " fill-opacity="1" fill-rule="nonzero"/><path fill="#727478" d="M 266.640625 264.976562 L 250.546875 264.976562 L 250.546875 243.515625 C 250.546875 239.070312 254.148438 235.460938 258.59375 235.460938 C 263.039062 235.460938 266.640625 239.070312 266.640625 243.515625 L 266.640625 264.976562 " fill-opacity="1" fill-rule="nonzero"/><path fill="#96999e" d="M 263.414062 244.128906 L 260.191406 240.90625 L 270.050781 228.835938 C 271.496094 227.0625 274.152344 226.929688 275.773438 228.550781 C 277.390625 230.167969 277.253906 232.824219 275.484375 234.277344 L 263.414062 244.128906 " fill-opacity="1" fill-rule="nonzero"/><path fill="#b6b9bf" d="M 270.789062 230.882812 C 271.242188 230.308594 271.914062 229.992188 272.667969 229.984375 C 273.429688 229.972656 274.148438 230.273438 274.707031 230.832031 C 275.085938 231.210938 275.335938 231.671875 275.460938 232.160156 C 275.566406 231.886719 275.640625 231.589844 275.644531 231.273438 C 275.652344 230.515625 275.347656 229.789062 274.792969 229.234375 C 274.234375 228.679688 273.511719 228.375 272.753906 228.386719 C 271.996094 228.394531 271.328125 228.714844 270.871094 229.285156 L 261.777344 240.601562 L 262.777344 240.222656 C 263.25 240.050781 263.660156 239.753906 263.96875 239.363281 L 270.789062 230.882812 " fill-opacity="1" fill-rule="nonzero"/><path fill="#96999e" d="M 256.863281 241.039062 L 253.636719 244.261719 L 241.570312 234.410156 C 239.796875 232.964844 239.664062 230.300781 241.28125 228.683594 C 242.898438 227.0625 245.558594 227.199219 247.003906 228.972656 L 256.863281 241.039062 " fill-opacity="1" fill-rule="nonzero"/><path fill="#b6b9bf" d="M 243.617188 233.671875 C 243.042969 233.210938 242.726562 232.542969 242.714844 231.785156 C 242.707031 231.03125 243.007812 230.304688 243.566406 229.75 C 243.941406 229.371094 244.398438 229.117188 244.890625 228.992188 C 244.613281 228.886719 244.324219 228.820312 244.003906 228.816406 C 243.25 228.804688 242.523438 229.105469 241.96875 229.664062 C 241.410156 230.21875 241.109375 230.945312 241.117188 231.703125 C 241.128906 232.457031 241.445312 233.125 242.019531 233.585938 L 253.335938 242.675781 L 252.957031 241.675781 C 252.785156 241.210938 252.488281 240.796875 252.097656 240.484375 L 243.617188 233.671875 " fill-opacity="1" fill-rule="nonzero"/><path fill="#96999e" d="M 253.773438 247.597656 L 256.996094 250.816406 L 247.140625 262.882812 C 245.691406 264.65625 243.035156 264.789062 241.417969 263.171875 C 239.796875 261.558594 239.933594 258.894531 241.703125 257.449219 L 253.773438 247.597656 " fill-opacity="1" fill-rule="nonzero"/><path fill="#b6b9bf" d="M 246.402344 260.839844 C 245.945312 261.410156 245.277344 261.726562 244.519531 261.738281 C 243.765625 261.75 243.039062 261.445312 242.480469 260.890625 C 242.101562 260.511719 241.851562 260.054688 241.726562 259.5625 C 241.621094 259.839844 241.550781 260.132812 241.546875 260.449219 C 241.535156 261.203125 241.839844 261.929688 242.394531 262.488281 C 242.953125 263.042969 243.679688 263.34375 244.433594 263.335938 C 245.191406 263.324219 245.859375 263.007812 246.316406 262.441406 L 255.410156 251.121094 L 254.410156 251.496094 C 253.9375 251.675781 253.53125 251.96875 253.21875 252.359375 L 246.402344 260.839844 " fill-opacity="1" fill-rule="nonzero"/><path fill="#96999e" d="M 260.328125 250.679688 L 263.550781 247.460938 L 275.617188 257.316406 C 277.390625 258.761719 277.523438 261.421875 275.910156 263.039062 C 274.289062 264.65625 271.628906 264.519531 270.183594 262.753906 L 260.328125 250.679688 " fill-opacity="1" fill-rule="nonzero"/><path fill="#b6b9bf" d="M 273.570312 258.054688 C 274.144531 258.507812 274.460938 259.179688 274.472656 259.9375 C 274.480469 260.695312 274.179688 261.417969 273.625 261.972656 C 273.246094 262.355469 272.789062 262.601562 272.296875 262.726562 C 272.574219 262.832031 272.867188 262.90625 273.183594 262.910156 C 273.9375 262.917969 274.664062 262.613281 275.21875 262.058594 C 275.777344 261.5 276.078125 260.777344 276.070312 260.023438 C 276.058594 259.265625 275.742188 258.59375 275.167969 258.136719 L 263.855469 249.046875 L 264.230469 250.050781 C 264.402344 250.515625 264.703125 250.925781 265.09375 251.234375 L 273.570312 258.054688 " fill-opacity="1" fill-rule="nonzero"/><path fill="#f13e23" d="M 262.542969 249.8125 C 260.363281 251.992188 256.824219 251.992188 254.644531 249.8125 C 252.464844 247.628906 252.464844 244.09375 254.644531 241.910156 C 256.824219 239.730469 260.363281 239.730469 262.542969 241.910156 C 264.722656 244.09375 264.722656 247.628906 262.542969 249.8125 " fill-opacity="1" fill-rule="nonzero"/><path fill="#727478" d="M 184.910156 264.976562 L 168.808594 264.976562 L 168.808594 243.515625 C 168.808594 239.070312 172.410156 235.460938 176.859375 235.460938 C 181.304688 235.460938 184.910156 239.070312 184.910156 243.515625 L 184.910156 264.976562 " fill-opacity="1" fill-rule="nonzero"/><path fill="#96999e" d="M 181.683594 244.128906 L 178.457031 240.90625 L 188.3125 228.835938 C 189.757812 227.0625 192.421875 226.929688 194.035156 228.550781 C 195.652344 230.167969 195.523438 232.824219 193.75 234.277344 L 181.683594 244.128906 " fill-opacity="1" fill-rule="nonzero"/><path fill="#b6b9bf" d="M 189.050781 230.882812 C 189.511719 230.308594 190.179688 229.992188 190.933594 229.984375 C 191.691406 229.972656 192.417969 230.273438 192.972656 230.832031 C 193.351562 231.210938 193.597656 231.671875 193.722656 232.160156 C 193.832031 231.886719 193.902344 231.589844 193.90625 231.273438 C 193.914062 230.515625 193.617188 229.789062 193.054688 229.234375 C 192.5 228.679688 191.777344 228.375 191.019531 228.386719 C 190.261719 228.394531 189.589844 228.714844 189.136719 229.285156 L 180.042969 240.601562 L 181.046875 240.222656 C 181.511719 240.050781 181.921875 239.753906 182.238281 239.363281 L 189.050781 230.882812 " fill-opacity="1" fill-rule="nonzero"/><path fill="#96999e" d="M 175.125 241.039062 L 171.90625 244.261719 L 159.832031 234.410156 C 158.066406 232.964844 157.925781 230.300781 159.546875 228.683594 C 161.164062 227.0625 163.824219 227.199219 165.273438 228.972656 L 175.125 241.039062 " fill-opacity="1" fill-rule="nonzero"/><path fill="#b6b9bf" d="M 161.878906 233.671875 C 161.308594 233.210938 160.988281 232.542969 160.980469 231.785156 C 160.96875 231.03125 161.269531 230.304688 161.828125 229.75 C 162.210938 229.371094 162.667969 229.117188 163.160156 228.992188 C 162.882812 228.886719 162.585938 228.820312 162.273438 228.816406 C 161.511719 228.804688 160.789062 229.105469 160.230469 229.664062 C 159.675781 230.21875 159.375 230.945312 159.386719 231.703125 C 159.394531 232.457031 159.710938 233.125 160.28125 233.585938 L 171.601562 242.675781 L 171.226562 241.675781 C 171.046875 241.210938 170.75 240.796875 170.359375 240.484375 L 161.878906 233.671875 " fill-opacity="1" fill-rule="nonzero"/><path fill="#96999e" d="M 172.039062 247.597656 L 175.257812 250.816406 L 165.40625 262.882812 C 163.960938 264.65625 161.296875 264.789062 159.679688 263.171875 C 158.066406 261.558594 158.199219 258.894531 159.96875 257.449219 L 172.039062 247.597656 " fill-opacity="1" fill-rule="nonzero"/><path fill="#b6b9bf" d="M 164.667969 260.839844 C 164.210938 261.410156 163.539062 261.726562 162.78125 261.738281 C 162.027344 261.75 161.300781 261.445312 160.746094 260.890625 C 160.367188 260.511719 160.121094 260.054688 159.992188 259.5625 C 159.886719 259.839844 159.816406 260.132812 159.808594 260.449219 C 159.800781 261.203125 160.101562 261.929688 160.660156 262.488281 C 161.214844 263.042969 161.941406 263.34375 162.699219 263.335938 C 163.453125 263.324219 164.125 263.007812 164.582031 262.441406 L 173.671875 251.121094 L 172.671875 251.496094 C 172.207031 251.675781 171.792969 251.96875 171.480469 252.359375 L 164.667969 260.839844 " fill-opacity="1" fill-rule="nonzero"/><path fill="#96999e" d="M 178.59375 250.679688 L 181.816406 247.460938 L 193.882812 257.316406 C 195.652344 258.761719 195.785156 261.421875 194.171875 263.039062 C 192.554688 264.65625 189.890625 264.519531 188.445312 262.753906 L 178.59375 250.679688 " fill-opacity="1" fill-rule="nonzero"/><path fill="#b6b9bf" d="M 191.839844 258.054688 C 192.40625 258.507812 192.730469 259.179688 192.738281 259.9375 C 192.746094 260.695312 192.449219 261.417969 191.886719 261.972656 C 191.511719 262.355469 191.050781 262.601562 190.5625 262.726562 C 190.835938 262.832031 191.132812 262.90625 191.445312 262.910156 C 192.203125 262.917969 192.925781 262.613281 193.484375 262.058594 C 194.039062 261.5 194.34375 260.777344 194.332031 260.023438 C 194.324219 259.265625 194.003906 258.59375 193.4375 258.136719 L 182.121094 249.046875 L 182.496094 250.050781 C 182.671875 250.515625 182.964844 250.925781 183.355469 251.234375 L 191.839844 258.054688 " fill-opacity="1" fill-rule="nonzero"/><path fill="#75b86c" d="M 180.808594 249.8125 C 178.628906 251.992188 175.09375 251.992188 172.910156 249.8125 C 170.726562 247.628906 170.726562 244.09375 172.910156 241.910156 C 175.09375 239.730469 178.628906 239.730469 180.808594 241.910156 C 182.988281 244.09375 182.988281 247.628906 180.808594 249.8125 " fill-opacity="1" fill-rule="nonzero"/><path fill="#fabb85" d="M 516.207031 295.488281 C 518.0625 316.457031 514.964844 365.589844 508.761719 382.367188 C 524.261719 408.125 549.6875 426.703125 575.730469 426.703125 C 601.769531 426.703125 627.195312 408.125 642.699219 382.367188 C 636.5 365.589844 633.394531 316.457031 635.257812 295.488281 L 516.207031 295.488281 " fill-opacity="1" fill-rule="nonzero"/><path fill="#cf8b50" d="M 635.292969 330.582031 C 621.402344 356.609375 601.96875 374.710938 575.730469 374.710938 C 549.492188 374.710938 530.054688 356.609375 516.164062 330.582031 C 516.292969 328.425781 516.390625 326.285156 516.46875 324.183594 C 530.070312 350.15625 549.367188 368.425781 575.730469 368.425781 C 602.09375 368.425781 621.378906 350.15625 634.988281 324.183594 C 635.074219 326.285156 635.167969 328.425781 635.292969 330.582031 " fill-opacity="1" fill-rule="nonzero"/><path fill="#1d2f70" d="M 672.746094 210.359375 C 672.335938 212.542969 666.449219 213.660156 660.832031 211.496094 C 657.617188 210.261719 668.320312 190.207031 668.320312 190.207031 L 672.746094 202.691406 L 672.746094 210.359375 " fill-opacity="1" fill-rule="nonzero"/><path fill="#1d2f70" d="M 478.71875 210.359375 C 479.125 212.542969 485.011719 213.660156 490.632812 211.496094 C 493.847656 210.261719 483.140625 190.207031 483.140625 190.207031 L 478.71875 202.691406 L 478.71875 210.359375 " fill-opacity="1" fill-rule="nonzero"/><path fill="#fabb85" d="M 659.113281 224.691406 C 667.449219 210.28125 678.730469 213.675781 675.265625 241.738281 C 673.523438 255.878906 659.152344 295.648438 649.660156 275.964844 C 652.375 251.96875 659.113281 224.691406 659.113281 224.691406 " fill-opacity="1" fill-rule="nonzero"/><path fill="#fabb85" d="M 492.347656 224.691406 C 484.011719 210.28125 472.726562 213.675781 476.191406 241.738281 C 477.9375 255.878906 492.308594 295.648438 501.800781 275.964844 C 499.085938 251.96875 492.347656 224.691406 492.347656 224.691406 " fill-opacity="1" fill-rule="nonzero"/><path fill="#fabb85" d="M 575.730469 368.425781 C 632.339844 368.425781 656.417969 284.125 661.507812 220.265625 C 664.527344 182.328125 640.941406 124.164062 575.730469 124.164062 C 510.515625 124.164062 486.929688 182.328125 489.953125 220.265625 C 495.042969 284.125 519.121094 368.425781 575.730469 368.425781 " fill-opacity="1" fill-rule="nonzero"/><path fill="#875b34" d="M 644.84375 141.792969 C 640.894531 153.636719 638.875 172.09375 642.546875 182.191406 C 646.222656 192.289062 652.304688 196.191406 651.613281 200.667969 C 650.925781 205.144531 646.792969 214.441406 647.828125 223.734375 C 648.863281 233.03125 652.648438 234.066406 652.992188 243.363281 C 653.339844 252.660156 651.960938 257.476562 653.679688 261.613281 C 656.4375 256.789062 655.746094 242.328125 656.78125 236.128906 C 657.8125 229.933594 663.664062 223.390625 666.421875 214.441406 C 669.175781 205.488281 670.550781 197.28125 670.210938 180.410156 C 669.863281 163.539062 667.871094 143.078125 659.1875 133.53125 C 655.746094 129.742188 648.054688 132.152344 644.84375 141.792969 " fill-opacity="1" fill-rule="nonzero"/><path fill="#875b34" d="M 506.617188 141.792969 C 510.566406 153.636719 512.585938 172.09375 508.914062 182.191406 C 505.238281 192.289062 499.15625 196.191406 499.84375 200.667969 C 500.535156 205.144531 504.667969 214.441406 503.632812 223.734375 C 502.601562 233.03125 498.8125 234.066406 498.464844 243.363281 C 498.125 252.660156 499.5 257.476562 497.78125 261.613281 C 495.023438 256.789062 495.714844 242.328125 494.679688 236.128906 C 493.648438 229.933594 487.792969 223.390625 485.042969 214.441406 C 482.285156 205.488281 480.910156 197.28125 481.253906 180.410156 C 481.59375 163.539062 483.589844 143.078125 492.269531 133.53125 C 495.714844 129.742188 503.402344 132.152344 506.617188 141.792969 " fill-opacity="1" fill-rule="nonzero"/><path fill="#875b34" d="M 650.652344 147.296875 C 644.359375 160.121094 605.550781 185.175781 567.675781 185.175781 C 529.800781 185.175781 501.175781 184.40625 483.269531 163.75 C 489.46875 142.746094 492.988281 121.09375 513.269531 104.261719 C 529.457031 90.835938 553.886719 87.734375 572.835938 87.734375 C 603.824219 87.734375 626.894531 97.03125 640.671875 108.742188 C 654.4375 120.445312 659.949219 128.363281 650.652344 147.296875 " fill-opacity="1" fill-rule="nonzero"/><path fill="#395cda" d="M 781.929688 410.703125 C 755.71875 403.050781 678.03125 373.582031 639.027344 366.496094 C 630 387.050781 605.101562 401.847656 575.730469 401.847656 C 546.359375 401.847656 521.460938 387.050781 512.4375 366.496094 C 473.429688 373.582031 395.738281 403.050781 369.535156 410.703125 C 361.367188 409.316406 345.203125 427.566406 345.546875 484.570312 C 345.699219 509.246094 348.261719 573.058594 351.8125 610.609375 C 373.683594 617.863281 397.707031 624.042969 423.386719 629.039062 C 423.390625 629.054688 423.394531 629.070312 423.398438 629.089844 C 424 629.203125 424.625 629.304688 425.226562 629.414062 C 425.378906 629.445312 425.519531 629.484375 425.671875 629.507812 C 471.308594 638.21875 522.109375 643.109375 575.730469 643.109375 C 629.347656 643.109375 680.15625 638.207031 725.789062 629.5 C 725.941406 629.46875 726.082031 629.445312 726.234375 629.414062 C 726.835938 629.304688 727.460938 629.203125 728.0625 629.089844 C 728.066406 629.070312 728.070312 629.054688 728.074219 629.039062 C 753.75 624.042969 777.773438 617.863281 799.652344 610.609375 C 803.195312 573.058594 805.761719 509.246094 805.914062 484.570312 C 806.261719 427.566406 790.09375 409.316406 781.929688 410.703125 " fill-opacity="1" fill-rule="nonzero"/><path fill="#2c45a0" d="M 639.027344 366.496094 C 630 387.050781 605.101562 401.847656 575.730469 401.847656 C 546.359375 401.847656 521.460938 387.050781 512.4375 366.496094 C 507.726562 367.351562 502.4375 368.546875 496.765625 369.976562 C 507.4375 397.09375 538.746094 416.738281 575.730469 416.738281 C 612.714844 416.738281 644.023438 397.09375 654.695312 369.976562 C 649.023438 368.546875 643.730469 367.351562 639.027344 366.496094 " fill-opacity="1" fill-rule="nonzero"/><path fill="#2c45a0" d="M 418.484375 507.816406 C 414.660156 489.792969 408.21875 469.175781 400.453125 456.46875 C 402.113281 460.894531 403.644531 465.332031 404.988281 469.625 C 411.75 491.234375 421.675781 531.84375 423.757812 578.941406 C 424.039062 585.21875 425.664062 610.179688 425.671875 629.507812 C 427.734375 629.902344 429.808594 630.289062 431.894531 630.667969 C 432.027344 626.078125 432.070312 622.472656 432.011719 620.582031 C 430.539062 575.042969 423.265625 530.378906 418.484375 507.816406 " fill-opacity="1" fill-rule="nonzero"/><path fill="#2c45a0" d="M 719.453125 620.582031 C 719.390625 622.472656 719.429688 626.078125 719.566406 630.667969 C 721.652344 630.289062 723.722656 629.902344 725.792969 629.507812 C 725.800781 610.179688 727.425781 585.21875 727.703125 578.941406 C 729.789062 531.84375 739.707031 491.234375 746.472656 469.625 C 747.816406 465.332031 749.347656 460.894531 751.007812 456.46875 C 743.242188 469.175781 736.800781 489.792969 732.976562 507.816406 C 728.195312 530.378906 720.925781 575.042969 719.453125 620.582031 " fill-opacity="1" fill-rule="nonzero"/><path fill="#fabb85" d="M 802.75 568.101562 C 801.832031 583.527344 800.796875 598.429688 799.652344 610.585938 C 777.753906 617.863281 753.726562 624.058594 728.101562 629.042969 C 728.042969 629.042969 728.042969 629.042969 728.042969 629.101562 C 727.46875 629.214844 726.839844 629.273438 726.207031 629.445312 C 726.097656 629.445312 725.921875 629.503906 725.808594 629.503906 C 725.808594 616.03125 726.609375 599.863281 727.125 589.144531 C 750.976562 584.839844 779.988281 577.277344 802.75 568.101562 " fill-opacity="1" fill-rule="nonzero"/><path fill="#2c45a0" d="M 802.75 568.101562 C 802.742188 568.167969 802.757812 568.234375 802.753906 568.296875 C 803.125 562.035156 803.46875 555.695312 803.789062 549.414062 C 779.191406 557.328125 753.164062 564.375 728.164062 570.109375 C 727.992188 573.035156 727.824219 575.957031 727.707031 578.9375 C 727.621094 580.847656 727.414062 584.484375 727.164062 589.132812 C 751.007812 584.832031 780 577.273438 802.75 568.101562 " fill-opacity="1" fill-rule="nonzero"/><path fill="#fabb85" d="M 348.714844 568.101562 C 349.632812 583.527344 350.664062 598.429688 351.808594 610.585938 C 373.710938 617.863281 397.730469 624.058594 423.359375 629.042969 C 423.417969 629.042969 423.417969 629.042969 423.417969 629.101562 C 423.988281 629.214844 424.621094 629.273438 425.25 629.445312 C 425.367188 629.445312 425.539062 629.503906 425.65625 629.503906 C 425.65625 616.03125 424.847656 599.863281 424.335938 589.144531 C 400.484375 584.839844 371.472656 577.277344 348.714844 568.101562 " fill-opacity="1" fill-rule="nonzero"/><path fill="#2c45a0" d="M 348.714844 568.101562 C 348.71875 568.167969 348.707031 568.234375 348.707031 568.296875 C 348.339844 562.035156 347.992188 555.695312 347.671875 549.414062 C 372.269531 557.328125 398.300781 564.375 423.296875 570.109375 C 423.464844 573.035156 423.640625 575.957031 423.753906 578.9375 C 423.839844 580.847656 424.046875 584.484375 424.296875 589.132812 C 400.453125 584.832031 371.464844 577.273438 348.714844 568.101562 " fill-opacity="1" fill-rule="nonzero"/><path fill="#646069" d="M 719.566406 630.652344 C 675.59375 638.617188 626.917969 643.089844 575.71875 643.089844 C 548.886719 643.089844 522.804688 641.886719 497.691406 639.59375 C 474.875 637.472656 452.863281 634.433594 431.875 630.652344 C 432.046875 626.0625 432.046875 622.449219 431.988281 620.5625 C 431.589844 608.292969 430.789062 596.082031 429.695312 584.386719 L 472.597656 516.542969 C 474.164062 514.0625 476.894531 512.566406 479.824219 512.566406 L 671.621094 512.566406 C 674.550781 512.566406 677.277344 514.0625 678.84375 516.542969 L 721.746094 584.386719 C 720.65625 596.082031 719.851562 608.292969 719.453125 620.5625 C 719.394531 622.449219 719.453125 626.0625 719.566406 630.652344 " fill-opacity="1" fill-rule="nonzero"/><path fill="#646069" d="M 635.078125 522.460938 L 671.191406 527.914062 L 693.277344 381.617188 C 693.511719 380.058594 692.570312 378.554688 691.066406 378.082031 C 680.847656 374.863281 670.902344 371.894531 661.738281 369.429688 C 659.898438 368.933594 658.074219 370.171875 657.792969 372.058594 L 635.078125 522.460938 " fill-opacity="1" fill-rule="nonzero"/><path fill="#3a343d" d="M 685.835938 426.679688 L 650.96875 421.421875 C 650.257812 421.3125 649.765625 420.644531 649.875 419.929688 L 650.695312 414.472656 C 650.804688 413.761719 651.472656 413.269531 652.1875 413.375 L 687.050781 418.640625 C 687.761719 418.75 688.253906 419.414062 688.144531 420.125 L 687.320312 425.582031 C 687.214844 426.300781 686.546875 426.789062 685.835938 426.679688 " fill-opacity="1" fill-rule="nonzero"/><path fill="#3a343d" d="M 678.566406 458.949219 L 648.386719 454.390625 C 646.136719 454.050781 644.582031 451.949219 644.921875 449.691406 L 647.839844 430.359375 C 648.179688 428.101562 650.285156 426.550781 652.542969 426.890625 L 682.714844 431.445312 C 684.972656 431.789062 686.527344 433.890625 686.183594 436.148438 L 683.265625 455.480469 C 682.925781 457.734375 680.824219 459.289062 678.566406 458.949219 " fill-opacity="1" fill-rule="nonzero"/><path fill="#646069" d="M 516.378906 522.460938 L 480.273438 527.914062 L 458.183594 381.617188 C 457.953125 380.058594 458.894531 378.554688 460.394531 378.082031 C 470.609375 374.863281 480.558594 371.894531 489.71875 369.429688 C 491.558594 368.933594 493.386719 370.171875 493.671875 372.058594 L 516.378906 522.460938 " fill-opacity="1" fill-rule="nonzero"/><path fill="#3a343d" d="M 465.628906 426.679688 L 500.488281 421.421875 C 501.207031 421.3125 501.695312 420.644531 501.585938 419.929688 L 500.761719 414.472656 C 500.65625 413.761719 499.988281 413.269531 499.277344 413.375 L 464.414062 418.640625 C 463.699219 418.75 463.207031 419.414062 463.3125 420.125 L 464.136719 425.582031 C 464.25 426.300781 464.910156 426.789062 465.628906 426.679688 " fill-opacity="1" fill-rule="nonzero"/><path fill="#3a343d" d="M 472.894531 458.949219 L 503.074219 454.390625 C 505.328125 454.050781 506.878906 451.949219 506.539062 449.691406 L 503.617188 430.359375 C 503.277344 428.101562 501.175781 426.550781 498.917969 426.890625 L 468.742188 431.445312 C 466.488281 431.789062 464.933594 433.890625 465.273438 436.148438 L 468.191406 455.480469 C 468.539062 457.734375 470.640625 459.289062 472.894531 458.949219 " fill-opacity="1" fill-rule="nonzero"/><path fill="#433d47" d="M 458.457031 551.0625 C 457.480469 550.4375 456.128906 550.71875 455.488281 551.730469 L 450.871094 559.035156 C 450.238281 560.039062 450.539062 561.367188 451.542969 562.003906 C 451.894531 562.226562 452.292969 562.335938 452.691406 562.335938 C 453.402344 562.335938 454.101562 561.980469 454.507812 561.332031 L 459.128906 554.027344 C 459.757812 553.023438 459.460938 551.695312 458.457031 551.0625 Z M 437.324219 597.90625 C 438.515625 597.824219 439.402344 596.789062 439.316406 595.605469 C 439.101562 592.722656 438.875 589.839844 438.617188 586.964844 C 438.515625 585.78125 437.589844 584.941406 436.285156 585.007812 C 435.105469 585.109375 434.230469 586.152344 434.328125 587.335938 C 434.585938 590.199219 434.8125 593.058594 435.027344 595.925781 C 435.109375 597.050781 436.046875 597.917969 437.171875 597.917969 C 437.222656 597.917969 437.273438 597.910156 437.324219 597.90625 Z M 438.328125 618.046875 C 438.355469 618.046875 438.386719 618.046875 438.417969 618.046875 C 439.605469 617.996094 440.523438 616.992188 440.480469 615.8125 C 440.359375 612.9375 440.21875 610.046875 440.058594 607.144531 C 439.996094 605.964844 439.03125 605.039062 437.800781 605.117188 C 436.609375 605.179688 435.703125 606.199219 435.769531 607.382812 C 435.917969 610.261719 436.0625 613.132812 436.179688 615.988281 C 436.226562 617.140625 437.179688 618.046875 438.328125 618.046875 Z M 469.242188 534.019531 C 468.261719 533.386719 466.917969 533.679688 466.277344 534.6875 L 461.652344 541.988281 C 461.011719 542.992188 461.3125 544.320312 462.320312 544.953125 C 462.671875 545.183594 463.066406 545.285156 463.464844 545.285156 C 464.179688 545.285156 464.871094 544.9375 465.277344 544.289062 L 469.90625 536.988281 C 470.542969 535.980469 470.246094 534.65625 469.242188 534.019531 Z M 519.554688 516.914062 L 510.910156 516.914062 C 509.722656 516.914062 508.761719 517.878906 508.761719 519.0625 C 508.761719 520.25 509.722656 521.210938 510.910156 521.210938 L 519.554688 521.210938 C 520.746094 521.210938 521.707031 520.25 521.707031 519.0625 C 521.707031 517.878906 520.746094 516.914062 519.554688 516.914062 Z M 580.066406 516.914062 L 571.421875 516.914062 C 570.234375 516.914062 569.273438 517.878906 569.273438 519.0625 C 569.273438 520.25 570.234375 521.210938 571.421875 521.210938 L 580.066406 521.210938 C 581.257812 521.210938 582.21875 520.25 582.21875 519.0625 C 582.21875 517.878906 581.257812 516.914062 580.066406 516.914062 Z M 447.679688 568.109375 C 446.699219 567.484375 445.355469 567.773438 444.71875 568.777344 L 440.089844 576.082031 C 439.457031 577.085938 439.75 578.414062 440.757812 579.050781 C 441.113281 579.273438 441.507812 579.378906 441.90625 579.378906 C 442.617188 579.378906 443.308594 579.027344 443.722656 578.382812 L 448.34375 571.078125 C 448.984375 570.074219 448.683594 568.746094 447.679688 568.109375 Z M 539.730469 516.914062 L 531.085938 516.914062 C 529.898438 516.914062 528.933594 517.878906 528.933594 519.0625 C 528.933594 520.25 529.898438 521.210938 531.085938 521.210938 L 539.730469 521.210938 C 540.914062 521.210938 541.878906 520.25 541.878906 519.0625 C 541.878906 517.878906 540.914062 516.914062 539.730469 516.914062 Z M 712.929688 625.320312 C 711.75 625.320312 710.78125 626.277344 710.777344 627.460938 L 710.773438 631.769531 C 710.773438 631.894531 710.824219 632.003906 710.839844 632.125 C 712.253906 631.886719 713.667969 631.652344 715.070312 631.40625 L 715.074219 627.476562 C 715.085938 626.292969 714.125 625.324219 712.929688 625.320312 Z M 499.386719 516.914062 L 490.746094 516.914062 C 489.558594 516.914062 488.597656 517.878906 488.597656 519.0625 C 488.597656 520.25 489.558594 521.210938 490.746094 521.210938 L 499.386719 521.210938 C 500.574219 521.210938 501.539062 520.25 501.539062 519.0625 C 501.539062 517.878906 500.574219 516.914062 499.386719 516.914062 Z M 438.515625 625.320312 C 437.324219 625.320312 436.363281 626.28125 436.363281 627.46875 L 436.363281 631.40625 C 437.765625 631.652344 439.183594 631.886719 440.59375 632.125 C 440.613281 632.003906 440.664062 631.894531 440.664062 631.773438 L 440.664062 627.46875 C 440.664062 626.28125 439.703125 625.320312 438.515625 625.320312 Z M 675.164062 518.867188 C 674.652344 518.050781 673.867188 517.4375 672.949219 517.128906 C 671.839844 516.75 670.578125 517.335938 670.195312 518.460938 C 669.820312 519.585938 670.398438 520.789062 671.53125 521.164062 L 675.40625 527.285156 C 675.8125 527.929688 676.507812 528.285156 677.21875 528.285156 C 677.613281 528.285156 678.011719 528.175781 678.363281 527.953125 C 679.371094 527.316406 679.667969 525.988281 679.03125 524.984375 Z M 711.378906 576.125 L 706.757812 568.820312 C 706.117188 567.804688 704.769531 567.515625 703.789062 568.148438 C 702.789062 568.78125 702.484375 570.109375 703.121094 571.113281 L 707.738281 578.421875 C 708.144531 579.070312 708.84375 579.421875 709.554688 579.421875 C 709.953125 579.421875 710.351562 579.316406 710.703125 579.089844 C 711.703125 578.457031 712.007812 577.128906 711.378906 576.125 Z M 695.96875 551.769531 C 695.332031 550.761719 693.988281 550.46875 693.007812 551.105469 C 692 551.738281 691.699219 553.066406 692.339844 554.070312 L 696.964844 561.378906 C 697.371094 562.027344 698.070312 562.378906 698.78125 562.378906 C 699.175781 562.378906 699.574219 562.273438 699.925781 562.042969 C 700.933594 561.410156 701.230469 560.082031 700.59375 559.078125 Z M 715.15625 585.054688 C 713.90625 584.988281 712.925781 585.832031 712.820312 587.011719 C 712.570312 589.890625 712.339844 592.777344 712.125 595.652344 C 712.035156 596.835938 712.925781 597.871094 714.113281 597.957031 C 714.167969 597.960938 714.21875 597.960938 714.269531 597.960938 C 715.394531 597.960938 716.332031 597.101562 716.414062 595.972656 C 716.628906 593.113281 716.855469 590.25 717.113281 587.386719 C 717.210938 586.207031 716.335938 585.160156 715.15625 585.054688 Z M 478.605469 517.09375 C 477.648438 517.386719 476.820312 518.015625 476.273438 518.871094 L 472.433594 524.945312 C 471.796875 525.949219 472.101562 527.273438 473.105469 527.910156 C 473.457031 528.136719 473.851562 528.246094 474.25 528.246094 C 474.960938 528.246094 475.65625 527.890625 476.070312 527.242188 L 479.890625 521.199219 C 481.003906 520.839844 481.625 519.660156 481.289062 518.535156 C 480.945312 517.394531 479.734375 516.738281 478.605469 517.09375 Z M 713.65625 605.167969 C 712.375 605.113281 711.453125 606.007812 711.386719 607.195312 C 711.222656 610.097656 711.082031 612.988281 710.964844 615.855469 C 710.921875 617.046875 711.839844 618.046875 713.03125 618.09375 C 713.0625 618.101562 713.089844 618.101562 713.121094 618.101562 C 714.265625 618.101562 715.21875 617.195312 715.269531 616.035156 C 715.382812 613.183594 715.515625 610.316406 715.675781 607.4375 C 715.742188 606.25 714.839844 605.234375 713.65625 605.167969 Z M 620.40625 516.914062 L 611.761719 516.914062 C 610.574219 516.914062 609.613281 517.878906 609.613281 519.0625 C 609.613281 520.25 610.574219 521.210938 611.761719 521.210938 L 620.40625 521.210938 C 621.59375 521.210938 622.558594 520.25 622.558594 519.0625 C 622.558594 517.878906 621.59375 516.914062 620.40625 516.914062 Z M 559.894531 516.914062 L 551.25 516.914062 C 550.066406 516.914062 549.101562 517.878906 549.101562 519.0625 C 549.101562 520.25 550.066406 521.210938 551.25 521.210938 L 559.894531 521.210938 C 561.082031 521.210938 562.042969 520.25 562.042969 519.0625 C 562.042969 517.878906 561.082031 516.914062 559.894531 516.914062 Z M 685.195312 534.726562 C 684.546875 533.71875 683.203125 533.429688 682.226562 534.058594 C 681.226562 534.695312 680.925781 536.023438 681.558594 537.027344 L 686.175781 544.332031 C 686.589844 544.976562 687.285156 545.332031 688 545.332031 C 688.390625 545.332031 688.789062 545.222656 689.144531 545 C 690.148438 544.363281 690.445312 543.035156 689.816406 542.03125 Z M 600.234375 516.914062 L 591.589844 516.914062 C 590.40625 516.914062 589.4375 517.878906 589.4375 519.0625 C 589.4375 520.25 590.40625 521.210938 591.589844 521.210938 L 600.234375 521.210938 C 601.421875 521.210938 602.382812 520.25 602.382812 519.0625 C 602.382812 517.878906 601.421875 516.914062 600.234375 516.914062 Z M 640.574219 516.914062 L 631.929688 516.914062 C 630.742188 516.914062 629.777344 517.878906 629.777344 519.0625 C 629.777344 520.25 630.742188 521.210938 631.929688 521.210938 L 640.574219 521.210938 C 641.761719 521.210938 642.726562 520.25 642.726562 519.0625 C 642.726562 517.878906 641.761719 516.914062 640.574219 516.914062 Z M 660.746094 516.914062 L 652.101562 516.914062 C 650.917969 516.914062 649.953125 517.878906 649.953125 519.0625 C 649.953125 520.25 650.917969 521.210938 652.101562 521.210938 L 660.746094 521.210938 C 661.933594 521.210938 662.894531 520.25 662.894531 519.0625 C 662.894531 517.878906 661.933594 516.914062 660.746094 516.914062 " fill-opacity="1" fill-rule="nonzero"/><path fill="#433d47" d="M 575.71875 643.089844 C 598.628906 643.089844 620.992188 642.148438 642.699219 640.445312 L 642.699219 560.21875 L 508.761719 560.21875 L 508.761719 640.476562 C 530.457031 642.160156 552.796875 643.089844 575.71875 643.089844 " fill-opacity="1" fill-rule="nonzero"/><path fill="#646069" d="M 630.128906 598.199219 C 628.9375 598.199219 627.976562 599.160156 627.976562 600.351562 L 627.976562 608.949219 C 627.976562 610.136719 628.9375 611.097656 630.128906 611.097656 C 631.316406 611.097656 632.277344 610.136719 632.277344 608.949219 L 632.277344 600.351562 C 632.277344 599.160156 631.316406 598.199219 630.128906 598.199219 Z M 630.128906 618.265625 C 628.9375 618.265625 627.976562 619.226562 627.976562 620.417969 L 627.976562 629.015625 C 627.976562 630.203125 628.9375 631.164062 630.128906 631.164062 C 631.316406 631.164062 632.277344 630.203125 632.277344 629.015625 L 632.277344 620.417969 C 632.277344 619.226562 631.316406 618.265625 630.128906 618.265625 Z M 630.128906 558.070312 C 628.9375 558.070312 627.976562 559.03125 627.976562 560.21875 L 627.976562 568.820312 C 627.976562 570.007812 628.9375 570.96875 630.128906 570.96875 C 631.316406 570.96875 632.277344 570.007812 632.277344 568.820312 L 632.277344 560.21875 C 632.277344 559.03125 631.316406 558.070312 630.128906 558.070312 Z M 630.128906 638.332031 C 628.9375 638.332031 627.976562 639.292969 627.976562 640.480469 L 627.976562 641.484375 C 629.402344 641.394531 630.851562 641.339844 632.277344 641.246094 L 632.277344 640.480469 C 632.277344 639.292969 631.316406 638.332031 630.128906 638.332031 Z M 630.128906 578.136719 C 628.9375 578.136719 627.976562 579.097656 627.976562 580.285156 L 627.976562 588.882812 C 627.976562 590.070312 628.9375 591.03125 630.128906 591.03125 C 631.316406 591.03125 632.277344 590.070312 632.277344 588.882812 L 632.277344 580.285156 C 632.277344 579.097656 631.316406 578.136719 630.128906 578.136719 Z M 521.332031 598.199219 C 520.144531 598.199219 519.183594 599.160156 519.183594 600.351562 L 519.183594 608.949219 C 519.183594 610.136719 520.144531 611.097656 521.332031 611.097656 C 522.519531 611.097656 523.480469 610.136719 523.480469 608.949219 L 523.480469 600.351562 C 523.480469 599.160156 522.519531 598.199219 521.332031 598.199219 Z M 521.332031 578.136719 C 520.144531 578.136719 519.183594 579.097656 519.183594 580.285156 L 519.183594 588.882812 C 519.183594 590.070312 520.144531 591.03125 521.332031 591.03125 C 522.519531 591.03125 523.480469 590.070312 523.480469 588.882812 L 523.480469 580.285156 C 523.480469 579.097656 522.519531 578.136719 521.332031 578.136719 Z M 521.332031 618.265625 C 520.144531 618.265625 519.183594 619.226562 519.183594 620.417969 L 519.183594 629.015625 C 519.183594 630.203125 520.144531 631.164062 521.332031 631.164062 C 522.519531 631.164062 523.480469 630.203125 523.480469 629.015625 L 523.480469 620.417969 C 523.480469 619.226562 522.519531 618.265625 521.332031 618.265625 Z M 521.332031 638.332031 C 520.144531 638.332031 519.183594 639.292969 519.183594 640.480469 L 519.183594 641.246094 C 520.605469 641.339844 522.050781 641.402344 523.480469 641.492188 L 523.480469 640.480469 C 523.480469 639.292969 522.519531 638.332031 521.332031 638.332031 Z M 521.332031 558.070312 C 520.144531 558.070312 519.183594 559.03125 519.183594 560.21875 L 519.183594 568.820312 C 519.183594 570.007812 520.144531 570.96875 521.332031 570.96875 C 522.519531 570.96875 523.480469 570.007812 523.480469 568.820312 L 523.480469 560.21875 C 523.480469 559.03125 522.519531 558.070312 521.332031 558.070312 " fill-opacity="1" fill-rule="nonzero"/><path fill="#3a343d" d="M 640.894531 582.433594 L 510.566406 582.433594 C 504.734375 582.433594 500.007812 577.707031 500.007812 571.875 L 500.007812 527.492188 L 651.457031 527.492188 L 651.457031 571.875 C 651.457031 577.707031 646.726562 582.433594 640.894531 582.433594 " fill-opacity="1" fill-rule="nonzero"/><g clip-path="url(#d3b2dc18aa)"><path fill="#969aa5" d="M 364.941406 283.183594 L 387.804688 320.449219 C 388.832031 322.128906 389.472656 324.019531 389.667969 325.976562 L 390.296875 332.148438 C 390.492188 334.101562 391.132812 335.992188 392.164062 337.671875 L 596.003906 670.019531 C 596.984375 671.621094 597.292969 673.554688 596.851562 675.382812 L 595.199219 682.246094 C 594.761719 684.074219 593.613281 685.648438 592.015625 686.628906 L 525.003906 727.730469 C 523.402344 728.710938 521.480469 729.015625 519.652344 728.582031 L 512.78125 726.941406 C 510.957031 726.503906 509.371094 725.359375 508.386719 723.753906 L 304.546875 391.402344 C 303.519531 389.730469 302.121094 388.300781 300.46875 387.234375 L 295.25 383.882812 C 293.597656 382.816406 292.203125 381.390625 291.171875 379.714844 L 268.3125 342.441406 C 266.855469 340.070312 267.601562 336.960938 269.976562 335.503906 L 358.003906 281.515625 C 360.382812 280.0625 363.488281 280.804688 364.941406 283.183594 " fill-opacity="1" fill-rule="nonzero"/></g><path fill="#969aa5" d="M 376.609375 289.078125 L 381.222656 296.601562 C 382.644531 298.925781 381.917969 301.960938 379.597656 303.382812 L 279.675781 364.664062 C 277.359375 366.085938 274.324219 365.359375 272.894531 363.039062 L 268.285156 355.511719 C 266.863281 353.195312 267.585938 350.15625 269.910156 348.730469 L 369.824219 287.453125 C 372.148438 286.027344 375.183594 286.757812 376.609375 289.078125 " fill-opacity="1" fill-rule="nonzero"/><path fill="#858b99" d="M 379.90625 307.578125 L 377.949219 304.390625 L 281.324219 363.65625 L 283.277344 366.84375 L 379.90625 307.578125 " fill-opacity="1" fill-rule="nonzero"/><path fill="#858b99" d="M 368.183594 288.464844 L 366.226562 285.277344 L 269.601562 344.539062 L 271.554688 347.722656 L 368.183594 288.464844 " fill-opacity="1" fill-rule="nonzero"/><g clip-path="url(#428a164399)"><path fill="#858b99" d="M 519.652344 728.582031 C 521.480469 729.015625 523.402344 728.710938 525.003906 727.730469 L 592.015625 686.628906 C 593.613281 685.648438 594.761719 684.074219 595.199219 682.246094 L 596.851562 675.382812 C 597.148438 674.152344 597.097656 672.871094 596.738281 671.675781 L 509.53125 725.160156 C 510.429688 726.023438 511.550781 726.648438 512.78125 726.941406 Z M 295.25 383.882812 L 300.46875 387.234375 C 301.585938 387.957031 302.582031 388.847656 303.429688 389.859375 L 391.289062 335.972656 C 390.769531 334.761719 390.429688 333.46875 390.296875 332.148438 L 389.667969 325.976562 C 389.53125 324.628906 389.179688 323.3125 388.640625 322.070312 L 292.238281 381.199219 C 293.097656 382.242188 294.109375 383.148438 295.25 383.882812 " fill-opacity="1" fill-rule="nonzero"/></g><path fill="#b1b4bd" d="M 330.988281 372.960938 L 536.761719 708.460938 L 523.308594 716.710938 L 317.535156 381.210938 L 330.988281 372.960938 " fill-opacity="1" fill-rule="nonzero"/><path fill="#b1b4bd" d="M 312.03125 349.207031 L 320.882812 363.628906 L 307.429688 371.878906 L 298.582031 357.457031 L 312.03125 349.207031 " fill-opacity="1" fill-rule="nonzero"/><path fill="#b1b4bd" d="M 294.429688 320.503906 L 298.355469 326.902344 L 284.90625 335.152344 L 280.980469 328.753906 L 294.429688 320.503906 " fill-opacity="1" fill-rule="nonzero"/><path fill="#b1b4bd" d="M 293.582031 334.214844 L 303.351562 350.140625 L 289.902344 358.394531 L 280.128906 342.464844 L 293.582031 334.214844 " fill-opacity="1" fill-rule="nonzero"/><path fill="#734a25" d="M 487.863281 188.730469 C 485.285156 191.621094 483.238281 194.664062 481.714844 197.820312 C 481.804688 198.792969 481.902344 199.742188 482.019531 200.644531 C 483.511719 197.714844 485.457031 194.878906 487.863281 192.179688 C 490.609375 195.9375 494.351562 199.273438 499.9375 201.117188 C 499.917969 200.976562 499.867188 200.800781 499.84375 200.667969 C 499.699219 199.703125 499.914062 198.757812 500.300781 197.777344 C 494.515625 195.953125 490.664062 192.566406 487.863281 188.730469 Z M 663.59375 188.722656 C 660.785156 192.5625 656.96875 195.984375 651.171875 197.804688 C 651.550781 198.773438 651.761719 199.710938 651.613281 200.667969 C 651.59375 200.8125 651.539062 201.003906 651.511719 201.160156 C 657.125 199.316406 660.839844 195.941406 663.59375 192.171875 C 666 194.875 667.949219 197.714844 669.445312 200.644531 C 669.554688 199.742188 669.652344 198.792969 669.742188 197.820312 C 668.222656 194.660156 666.171875 191.617188 663.59375 188.722656 " fill-opacity="1" fill-rule="nonzero"/><path fill="#cf8b50" d="M 651.171875 197.804688 C 645.664062 199.53125 638.375 199.8125 628.417969 197.585938 L 621.054688 195.929688 C 599.679688 191.113281 593.230469 189.660156 575.726562 189.660156 C 558.230469 189.660156 551.773438 191.113281 530.40625 195.929688 L 523.035156 197.585938 C 518.082031 198.695312 513.78125 199.1875 510.027344 199.1875 C 506.242188 199.1875 503.066406 198.644531 500.300781 197.777344 C 499.914062 198.757812 499.699219 199.703125 499.84375 200.667969 C 499.867188 200.800781 499.917969 200.976562 499.9375 201.117188 C 502.785156 202.054688 506.082031 202.636719 510.027344 202.636719 C 513.78125 202.636719 518.082031 202.144531 523.035156 201.035156 L 530.40625 199.378906 C 551.773438 194.566406 558.230469 193.113281 575.726562 193.113281 C 593.230469 193.113281 599.679688 194.566406 621.054688 199.378906 L 628.417969 201.035156 C 638.574219 203.308594 645.964844 202.976562 651.511719 201.160156 C 651.539062 201.003906 651.59375 200.8125 651.613281 200.667969 C 651.761719 199.710938 651.550781 198.773438 651.171875 197.804688 " fill-opacity="1" fill-rule="nonzero"/><path fill="#5574f2" d="M 575.730469 159.34375 C 538.03125 159.34375 505.429688 170.679688 489.371094 187.191406 C 494.5 194.347656 503.121094 199.9375 522.558594 195.59375 C 550.046875 189.445312 556.09375 187.609375 575.730469 187.609375 C 595.367188 187.609375 601.414062 189.445312 628.902344 195.59375 C 648.34375 199.9375 656.964844 194.347656 662.089844 187.191406 C 646.03125 170.679688 613.425781 159.34375 575.730469 159.34375 " fill-opacity="1" fill-rule="nonzero"/><path fill="#739de0" d="M 510.027344 199.1875 C 492.292969 199.1875 486.890625 188.207031 482.753906 179.796875 L 482.351562 178.980469 L 486.191406 177.222656 L 486.601562 178.035156 C 491.480469 187.960938 497.0625 199.1875 522.074219 193.597656 L 529.433594 191.945312 C 551.179688 187.042969 557.738281 185.5625 575.726562 185.5625 C 593.722656 185.5625 600.28125 187.042969 622.023438 191.945312 L 629.378906 193.597656 C 654.425781 199.195312 659.980469 187.957031 664.859375 178.046875 L 665.261719 177.222656 L 669.109375 178.980469 L 668.707031 179.800781 C 663.691406 189.984375 656.835938 203.941406 628.417969 197.585938 L 621.054688 195.929688 C 599.679688 191.113281 593.230469 189.660156 575.726562 189.660156 C 558.230469 189.660156 551.773438 191.113281 530.40625 195.929688 L 523.035156 197.585938 C 518.082031 198.695312 513.78125 199.1875 510.027344 199.1875 " fill-opacity="1" fill-rule="nonzero"/><path fill="#395cda" d="M 651.683594 112.34375 C 638.917969 98.605469 596.152344 81.128906 575.730469 81.753906 C 555.308594 81.128906 512.542969 98.605469 499.777344 112.34375 C 487.011719 126.078125 473.609375 184.765625 478.71875 210.359375 C 478.71875 182.1875 522.152344 159.34375 575.730469 159.34375 C 629.308594 159.34375 672.746094 182.1875 672.746094 210.359375 C 677.851562 184.765625 664.449219 126.078125 651.683594 112.34375 " fill-opacity="1" fill-rule="nonzero"/><path fill="#739de0" d="M 611.800781 120.0625 C 611.800781 139.984375 595.652344 156.132812 575.730469 156.132812 C 555.808594 156.132812 539.65625 139.984375 539.65625 120.0625 C 539.65625 100.140625 555.808594 83.992188 575.730469 83.992188 C 595.652344 83.992188 611.800781 100.140625 611.800781 120.0625 " fill-opacity="1" fill-rule="nonzero"/><path fill="#395cda" d="M 603.164062 140.148438 L 601.160156 136.605469 C 600.980469 136.277344 600.746094 135.988281 600.46875 135.738281 C 599.386719 134.769531 597.804688 134.601562 596.539062 135.3125 L 594.953125 136.207031 C 593.324219 137.125 592.742188 139.203125 593.664062 140.832031 L 595.691406 144.433594 L 596.757812 143.828125 L 594.730469 140.230469 C 594.144531 139.1875 594.511719 137.863281 595.558594 137.273438 L 597.136719 136.382812 C 598.183594 135.789062 599.503906 136.160156 600.097656 137.203125 L 602.125 140.808594 L 603.164062 140.21875 Z M 597.363281 130.941406 C 595.660156 130.984375 594.398438 131.441406 593.234375 132.203125 C 594.398438 131.441406 595.660156 130.984375 597.363281 130.941406 Z M 592.667969 139.667969 C 592.464844 138.050781 593.246094 136.488281 594.664062 135.691406 L 596.246094 134.796875 C 597.734375 133.960938 599.589844 134.160156 600.863281 135.296875 C 601.1875 135.589844 601.460938 135.929688 601.675781 136.3125 L 603.144531 138.914062 C 603.113281 137.6875 602.9375 136.476562 602.609375 135.296875 L 602.5 134.914062 C 602.269531 134.085938 601.894531 133.296875 601.394531 132.589844 L 601.28125 132.429688 C 601.035156 132.078125 600.738281 131.769531 600.398438 131.519531 C 600.175781 131.355469 599.929688 131.214844 599.675781 131.105469 C 599.398438 130.984375 599.109375 130.894531 598.8125 130.835938 L 596.507812 130.371094 C 595.945312 130.257812 595.410156 130.078125 594.894531 129.839844 L 593.625 129.160156 C 592.722656 128.679688 591.886719 128.089844 591.125 127.414062 L 587.722656 124.371094 C 587.15625 124.511719 586.570312 124.585938 585.984375 124.585938 L 590.589844 128.710938 C 591.15625 129.214844 591.203125 130.082031 590.695312 130.648438 C 590.191406 131.210938 589.320312 131.261719 588.757812 130.753906 L 584.023438 126.519531 L 583.875 126.695312 C 583.683594 126.921875 583.429688 127.085938 583.160156 127.171875 C 583.144531 127.269531 583.117188 127.363281 583.085938 127.457031 L 586.363281 130.386719 C 587.53125 131.429688 588.34375 132.8125 588.667969 134.34375 C 588.730469 134.625 588.777344 134.871094 588.804688 135.0625 C 588.886719 135.75 588.949219 136.363281 588.945312 137.011719 C 588.941406 137.179688 588.945312 137.355469 588.957031 137.535156 C 588.972656 137.90625 589.007812 138.273438 589.054688 138.46875 C 589.285156 139.4375 589.839844 140.480469 591.183594 141.773438 C 591.257812 141.84375 591.488281 142.035156 591.488281 142.035156 C 592.460938 142.871094 593.527344 143.601562 594.695312 144.132812 C 594.761719 144.164062 594.828125 144.191406 594.894531 144.21875 L 593.148438 141.121094 C 592.894531 140.667969 592.734375 140.175781 592.667969 139.667969 Z M 589.777344 128.835938 L 588.726562 127.894531 L 587.746094 128.996094 L 588.792969 129.9375 Z M 565.226562 108.851562 L 566.273438 109.792969 L 567.253906 108.691406 L 566.207031 107.75 Z M 566.332031 103.34375 C 566.269531 103.0625 566.222656 102.8125 566.199219 102.625 C 566.113281 101.9375 566.050781 101.324219 566.054688 100.675781 C 566.054688 100.507812 566.054688 100.332031 566.046875 100.152344 C 566.027344 99.78125 565.992188 99.414062 565.945312 99.21875 C 565.714844 98.25 565.160156 97.207031 563.816406 95.910156 C 563.738281 95.84375 563.511719 95.652344 563.511719 95.652344 C 562.539062 94.816406 561.476562 94.085938 560.308594 93.554688 C 560.238281 93.523438 560.171875 93.496094 560.105469 93.46875 L 561.851562 96.566406 C 562.105469 97.019531 562.273438 97.511719 562.335938 98.023438 C 562.535156 99.636719 561.753906 101.199219 560.339844 101.996094 L 558.753906 102.890625 C 557.261719 103.726562 555.410156 103.527344 554.136719 102.390625 C 553.8125 102.097656 553.539062 101.757812 553.324219 101.371094 L 551.855469 98.773438 C 551.886719 100 552.0625 101.210938 552.394531 102.390625 L 552.5 102.773438 C 552.734375 103.601562 553.105469 104.390625 553.605469 105.097656 L 553.71875 105.257812 C 553.964844 105.609375 554.265625 105.917969 554.605469 106.167969 C 554.828125 106.332031 555.070312 106.472656 555.324219 106.582031 C 555.601562 106.703125 555.894531 106.792969 556.1875 106.851562 L 558.492188 107.316406 C 559.054688 107.429688 559.589844 107.609375 560.105469 107.84375 L 561.375 108.527344 C 562.277344 109.007812 563.113281 109.597656 563.875 110.273438 L 568.816406 114.695312 L 569.675781 113.6875 L 564.410156 108.976562 C 563.847656 108.472656 563.796875 107.605469 564.304688 107.039062 C 564.808594 106.476562 565.679688 106.425781 566.242188 106.933594 L 571.457031 111.597656 L 572.316406 110.589844 L 568.636719 107.300781 C 567.46875 106.257812 566.660156 104.875 566.332031 103.34375 Z M 554.53125 101.949219 C 555.617188 102.917969 557.195312 103.085938 558.460938 102.375 L 560.046875 101.480469 C 561.675781 100.5625 562.257812 98.484375 561.335938 96.855469 L 559.308594 93.253906 L 558.242188 93.859375 L 560.269531 97.457031 C 560.855469 98.503906 560.492188 99.824219 559.441406 100.414062 L 557.863281 101.304688 C 556.816406 101.898438 555.496094 101.523438 554.902344 100.480469 L 552.875 96.882812 L 551.832031 97.46875 L 551.835938 97.535156 L 553.839844 101.082031 C 554.023438 101.410156 554.253906 101.699219 554.53125 101.949219 " fill-opacity="1" fill-rule="nonzero"/><path fill="#395cda" d="M 576.6875 121.097656 L 582.402344 125.96875 C 582.320312 125.898438 582.191406 125.910156 582.121094 125.992188 L 581.828125 126.332031 C 581.757812 126.417969 581.765625 126.546875 581.851562 126.617188 L 576.136719 121.746094 C 576.21875 121.820312 576.34375 121.808594 576.421875 121.722656 L 576.707031 121.386719 C 576.78125 121.296875 576.769531 121.171875 576.6875 121.097656 " fill-opacity="1" fill-rule="nonzero"/><path fill="#395cda" d="M 575.992188 121.882812 L 581.738281 126.785156 C 581.824219 126.855469 581.832031 126.980469 581.761719 127.066406 L 580.742188 128.265625 C 580.667969 128.351562 580.539062 128.359375 580.460938 128.289062 L 574.707031 123.386719 C 574.621094 123.316406 574.613281 123.191406 574.683594 123.105469 L 575.707031 121.90625 C 575.777344 121.820312 575.90625 121.8125 575.992188 121.882812 Z M 578.082031 119.429688 L 583.828125 124.328125 C 583.914062 124.402344 583.921875 124.527344 583.851562 124.613281 L 582.832031 125.8125 C 582.761719 125.894531 582.632812 125.90625 582.550781 125.835938 L 576.796875 120.933594 C 576.710938 120.863281 576.703125 120.734375 576.773438 120.648438 L 577.796875 119.453125 C 577.867188 119.367188 577.996094 119.359375 578.082031 119.429688 " fill-opacity="1" fill-rule="nonzero"/><path fill="#395cda" d="M 595.355469 103.128906 C 596.367188 103.988281 597.890625 103.867188 598.753906 102.855469 C 599.613281 101.84375 599.492188 100.320312 598.480469 99.457031 L 592.410156 94.289062 L 592.132812 93.261719 C 594.359375 93.746094 596.9375 94.816406 599.121094 96.675781 C 599.300781 96.828125 599.367188 96.886719 599.367188 96.886719 C 601.527344 98.726562 601.863281 101.914062 600.203125 104.160156 L 599.972656 104.457031 L 599.066406 105.519531 L 592.191406 113.589844 C 591.921875 113.027344 591.578125 112.503906 591.152344 112.027344 L 595.199219 107.273438 C 595.691406 106.699219 595.625 105.835938 595.046875 105.34375 C 594.472656 104.855469 593.605469 104.921875 593.117188 105.496094 L 589.296875 109.980469 L 588.078125 108.632812 L 592.214844 103.777344 C 592.890625 102.984375 593.101562 101.949219 592.871094 101.011719 L 595.355469 103.128906 " fill-opacity="1" fill-rule="nonzero"/><path fill="#395cda" d="M 591.488281 93.136719 L 591.890625 94.613281 L 598.101562 99.910156 C 598.867188 100.558594 598.957031 101.707031 598.300781 102.472656 C 597.652344 103.238281 596.503906 103.328125 595.738281 102.675781 L 592.71875 100.105469 L 591.75 100.050781 L 591.539062 99.097656 L 590.566406 99.046875 L 590.355469 98.09375 L 589.378906 98.039062 L 589.175781 97.085938 L 588.199219 97.027344 L 587.988281 96.074219 L 587.011719 96.019531 L 586.800781 95.066406 L 586.203125 94.554688 C 586.203125 94.554688 586.542969 94.15625 587.046875 93.5625 C 587.550781 92.972656 589.296875 92.757812 591.488281 93.136719 " fill-opacity="1" fill-rule="nonzero"/><path fill="#395cda" d="M 587.433594 108.042969 L 580.984375 104.128906 C 580.710938 103.964844 580.417969 103.875 580.125 103.851562 L 581.792969 101.898438 C 581.851562 101.824219 581.957031 101.8125 582.035156 101.859375 L 582.105469 101.910156 L 582.417969 102.832031 L 583.390625 102.777344 L 583.4375 102.804688 L 583.746094 103.726562 L 584.714844 103.671875 L 584.761719 103.699219 L 585.074219 104.621094 L 586.042969 104.570312 L 586.085938 104.597656 L 586.398438 105.511719 L 587.367188 105.460938 L 587.410156 105.492188 L 587.71875 106.410156 L 588.691406 106.355469 C 588.78125 106.417969 588.796875 106.542969 588.726562 106.628906 L 587.488281 108.078125 C 587.46875 108.070312 587.449219 108.054688 587.433594 108.042969 " fill-opacity="1" fill-rule="nonzero"/><path fill="#395cda" d="M 552.277344 139.417969 C 551.617188 140.191406 551.707031 141.351562 552.480469 142.007812 C 553.253906 142.664062 554.410156 142.570312 555.074219 141.800781 L 579.710938 112.890625 C 580.371094 112.121094 580.277344 110.957031 579.503906 110.296875 C 578.730469 109.640625 577.570312 109.734375 576.914062 110.507812 Z M 580.675781 104.636719 L 587.128906 108.546875 C 587.242188 108.617188 587.339844 108.699219 587.429688 108.792969 L 590.6875 112.394531 C 592.164062 114.027344 592.625 116.339844 591.882812 118.414062 L 591.574219 119.273438 C 591.0625 120.695312 590.03125 121.875 588.683594 122.5625 C 586.535156 123.667969 583.929688 123.363281 582.089844 121.796875 L 577.84375 118.179688 L 573.519531 123.253906 L 575.566406 124.992188 C 576.144531 125.492188 576.214844 126.359375 575.71875 126.941406 C 575.460938 127.25 575.070312 127.425781 574.667969 127.425781 L 573.449219 127.421875 C 571.25 127.410156 569.15625 128.375 567.734375 130.046875 L 556.519531 143.203125 C 555.171875 144.78125 552.804688 144.972656 551.230469 143.628906 L 551.027344 143.457031 C 549.453125 142.117188 549.261719 139.742188 550.605469 138.167969 L 578.945312 104.914062 C 579.375 104.40625 580.109375 104.292969 580.675781 104.636719 " fill-opacity="1" fill-rule="nonzero"/><path fill="#395cda" d="M 571.710938 128.226562 C 572.277344 128.082031 572.855469 128.011719 573.445312 128.011719 L 573.929688 128.011719 L 572.367188 129.847656 C 571.878906 130.417969 571.945312 131.28125 572.523438 131.773438 C 573.09375 132.269531 573.964844 132.195312 574.453125 131.625 L 578.082031 127.363281 L 579.003906 128.148438 L 579.035156 129.023438 L 578.171875 129.128906 L 578.199219 130.003906 L 577.335938 130.109375 L 577.367188 130.984375 L 576.496094 131.089844 L 576.527344 131.964844 L 575.664062 132.070312 L 575.695312 132.945312 C 574.550781 134.234375 572.582031 134.375 571.265625 133.253906 C 569.945312 132.128906 569.773438 130.160156 570.867188 128.828125 L 571.730469 128.71875 L 571.710938 128.226562 " fill-opacity="1" fill-rule="nonzero"/><path fill="#eba971" d="M 694.640625 556.574219 C 690.875 557.25 683.339844 559.328125 676.195312 558.402344 C 675.816406 558.382812 675.402344 558.363281 674.957031 558.34375 C 674.074219 558.300781 673.0625 558.242188 671.992188 558.167969 C 671.453125 558.128906 670.902344 558.082031 670.34375 558.027344 C 668.109375 557.824219 665.75 557.5 663.75 556.976562 C 666.75 554.882812 669.976562 553.839844 674.296875 552.242188 C 677.835938 550.933594 685.277344 548.707031 689.328125 547.289062 C 693.226562 545.929688 696.71875 545.730469 699.761719 547.605469 C 702.234375 549.128906 705.035156 552.359375 706.546875 554.15625 C 702.285156 554.609375 697.441406 556.070312 694.640625 556.574219 " fill-opacity="1" fill-rule="nonzero"/><path fill="#333333" d="M 731.023438 480.175781 L 711.722656 487.554688 L 749.082031 505.453125 C 749.664062 504.414062 750.222656 503.363281 750.746094 502.269531 C 759.765625 483.4375 757.269531 462.449219 745.984375 448.949219 L 731.023438 480.175781 " fill-opacity="1" fill-rule="nonzero"/><path fill="#4d4d4d" d="M 723.929688 488.054688 L 734.542969 483.996094 L 746.691406 458.632812 C 752.878906 470.359375 753.082031 485.378906 746.914062 499.0625 L 723.929688 488.054688 " fill-opacity="1" fill-rule="nonzero"/><path fill="#4d4d4d" d="M 725.996094 511.257812 C 727.375 511.921875 727.957031 513.570312 727.296875 514.949219 L 720.964844 528.160156 C 720.308594 529.539062 718.65625 530.121094 717.277344 529.457031 L 697.886719 520.167969 C 696.507812 519.507812 695.925781 517.855469 696.589844 516.480469 L 702.914062 503.265625 C 703.574219 501.890625 705.226562 501.308594 706.605469 501.96875 Z M 685.613281 468.445312 C 680.066406 480.027344 679.328125 492.574219 682.617188 503.558594 C 685.496094 513.167969 686.015625 523.21875 684.441406 532.984375 L 711.851562 546.113281 C 718.019531 535.730469 727.445312 527.589844 738.75 523.039062 L 745.53125 520.308594 C 750.382812 518.351562 754.328125 514.65625 756.589844 509.9375 L 758.039062 506.910156 L 721.621094 489.46875 L 714.9375 470.496094 L 729.125 440.875 C 711.695312 440.203125 694.171875 450.582031 685.613281 468.445312 " fill-opacity="1" fill-rule="nonzero"/><path fill="#808080" d="M 705.925781 558.375 L 709.113281 551.320312 C 711.335938 546.472656 714.230469 542.007812 717.671875 538.050781 L 685.320312 522.554688 C 685.277344 530.652344 683.746094 538.722656 680.886719 546.378906 L 705.925781 558.375 " fill-opacity="1" fill-rule="nonzero"/><path fill="#666666" d="M 689.964844 470.527344 C 687.253906 476.191406 685.761719 482.203125 685.507812 488.210938 L 743.429688 515.953125 L 743.734375 515.832031 C 747.019531 514.507812 749.746094 512.160156 751.542969 509.148438 L 717.734375 492.953125 L 709.726562 470.214844 L 721.234375 446.183594 C 708.066406 448.363281 696.28125 457.347656 689.964844 470.527344 " fill-opacity="1" fill-rule="nonzero"/><path fill="#333333" d="M 721.929688 526.160156 L 726.335938 516.953125 L 701.957031 505.269531 L 697.546875 514.480469 L 721.929688 526.160156 " fill-opacity="1" fill-rule="nonzero"/><path fill="#4d4d4d" d="M 706.929688 505.339844 L 697.773438 515.644531 C 697.195312 516.296875 697.332031 517.394531 698.074219 518.101562 L 709.328125 505.433594 C 708.582031 504.730469 707.511719 504.6875 706.929688 505.339844 " fill-opacity="1" fill-rule="nonzero"/><path fill="#1a1a1a" d="M 700.46875 518.191406 L 709.625 507.886719 C 710.207031 507.234375 710.070312 506.136719 709.328125 505.433594 L 698.074219 518.101562 C 698.816406 518.804688 699.890625 518.84375 700.46875 518.191406 " fill-opacity="1" fill-rule="nonzero"/><path fill="#4d4d4d" d="M 712.394531 507.957031 L 703.238281 518.261719 C 702.664062 518.917969 702.792969 520.011719 703.535156 520.714844 L 714.789062 508.046875 C 714.046875 507.34375 712.972656 507.304688 712.394531 507.957031 " fill-opacity="1" fill-rule="nonzero"/><path fill="#1a1a1a" d="M 705.933594 520.808594 L 715.089844 510.503906 C 715.667969 509.851562 715.535156 508.753906 714.789062 508.046875 L 703.535156 520.714844 C 704.28125 521.417969 705.351562 521.464844 705.933594 520.808594 " fill-opacity="1" fill-rule="nonzero"/><path fill="#4d4d4d" d="M 717.855469 510.578125 L 708.699219 520.882812 C 708.125 521.535156 708.257812 522.632812 709 523.335938 L 720.253906 510.667969 C 719.511719 509.964844 718.4375 509.921875 717.855469 510.578125 " fill-opacity="1" fill-rule="nonzero"/><path fill="#1a1a1a" d="M 711.398438 523.429688 L 720.554688 513.121094 C 721.132812 512.46875 720.996094 511.371094 720.253906 510.667969 L 709 523.335938 C 709.746094 524.035156 710.820312 524.078125 711.398438 523.429688 " fill-opacity="1" fill-rule="nonzero"/><path fill="#4d4d4d" d="M 723.320312 513.191406 L 714.167969 523.496094 C 713.589844 524.148438 713.722656 525.246094 714.464844 525.953125 L 725.71875 513.285156 C 724.972656 512.582031 723.902344 512.539062 723.320312 513.191406 " fill-opacity="1" fill-rule="nonzero"/><path fill="#1a1a1a" d="M 716.863281 526.042969 L 726.015625 515.738281 C 726.597656 515.089844 726.464844 513.988281 725.71875 513.285156 L 714.464844 525.953125 C 715.210938 526.65625 716.285156 526.695312 716.863281 526.042969 " fill-opacity="1" fill-rule="nonzero"/><path fill="#4d4d4d" d="M 708.613281 501.574219 L 705.9375 506.070312 C 705.753906 506.382812 705.339844 506.496094 704.984375 506.324219 L 704.730469 506.199219 C 704.378906 506.035156 704.203125 505.640625 704.332031 505.300781 L 706.160156 500.398438 L 708.613281 501.574219 " fill-opacity="1" fill-rule="nonzero"/><path fill="#4d4d4d" d="M 714.113281 504.210938 L 711.441406 508.703125 C 711.253906 509.015625 710.839844 509.125 710.488281 508.957031 L 710.226562 508.835938 C 709.878906 508.664062 709.703125 508.277344 709.828125 507.933594 L 711.660156 503.035156 L 714.113281 504.210938 " fill-opacity="1" fill-rule="nonzero"/><path fill="#4d4d4d" d="M 719.613281 506.84375 L 716.941406 511.339844 C 716.753906 511.652344 716.335938 511.761719 715.988281 511.59375 L 715.730469 511.472656 C 715.375 511.300781 715.207031 510.910156 715.332031 510.566406 L 717.15625 505.667969 L 719.613281 506.84375 " fill-opacity="1" fill-rule="nonzero"/><path fill="#4d4d4d" d="M 725.113281 509.480469 L 722.4375 513.972656 C 722.253906 514.289062 721.839844 514.394531 721.484375 514.230469 L 721.230469 514.105469 C 720.875 513.933594 720.703125 513.542969 720.832031 513.199219 L 722.660156 508.304688 L 725.113281 509.480469 " fill-opacity="1" fill-rule="nonzero"/><path fill="#f13e23" d="M 634.3125 693.269531 C 632.441406 697.175781 627.761719 698.824219 623.855469 696.953125 C 619.953125 695.082031 618.300781 690.398438 620.171875 686.496094 C 622.042969 682.59375 626.726562 680.941406 630.628906 682.8125 C 634.53125 684.683594 636.183594 689.363281 634.3125 693.269531 Z M 677.859375 553.351562 L 612.460938 682.015625 C 608.167969 690.582031 611.734375 701.007812 620.378906 705.148438 C 629.023438 709.289062 639.386719 705.539062 643.371094 696.824219 L 709.113281 551.320312 C 709.933594 549.527344 710.855469 547.796875 711.851562 546.113281 L 684.441406 532.984375 C 683.308594 540.011719 681.097656 546.890625 677.859375 553.351562 " fill-opacity="1" fill-rule="nonzero"/><path fill="#c4321d" d="M 684.230469 534.140625 L 709.574219 546.277344 C 708.574219 547.960938 707.652344 549.695312 706.828125 551.484375 L 641.089844 696.988281 C 638.574219 702.484375 633.519531 706 627.964844 706.8125 C 634.390625 706.738281 640.511719 703.0625 643.371094 696.824219 L 709.113281 551.320312 C 709.933594 549.527344 710.855469 547.796875 711.851562 546.113281 L 684.441406 532.984375 C 684.375 533.371094 684.296875 533.753906 684.230469 534.140625 " fill-opacity="1" fill-rule="nonzero"/><path fill="#ff664f" d="M 677.859375 553.351562 L 612.460938 682.015625 C 608.167969 690.582031 611.734375 701.007812 620.378906 705.148438 C 623.316406 706.554688 626.449219 707.027344 629.464844 706.726562 C 627.363281 706.585938 625.253906 706.066406 623.234375 705.097656 C 614.589844 700.957031 611.023438 690.539062 615.316406 681.964844 L 680.710938 553.300781 C 683.746094 547.246094 685.867188 540.8125 687.058594 534.238281 L 684.441406 532.984375 C 683.308594 540.011719 681.097656 546.890625 677.859375 553.351562 " fill-opacity="1" fill-rule="nonzero"/><path fill="#ff664f" d="M 625.21875 682.316406 C 626.964844 681.847656 628.875 681.96875 630.628906 682.8125 C 634.53125 684.683594 636.183594 689.363281 634.3125 693.269531 C 633.472656 695.027344 632.058594 696.320312 630.40625 697.050781 C 632.542969 696.476562 634.421875 695.019531 635.449219 692.871094 C 637.316406 688.964844 635.671875 684.285156 631.765625 682.414062 C 629.617188 681.382812 627.238281 681.429688 625.21875 682.316406 " fill-opacity="1" fill-rule="nonzero"/><path fill="#c4321d" d="M 623.855469 696.953125 C 619.953125 695.082031 618.300781 690.398438 620.171875 686.496094 C 621.015625 684.742188 622.429688 683.441406 624.082031 682.71875 C 621.949219 683.289062 620.066406 684.75 619.039062 686.894531 C 617.167969 690.800781 618.816406 695.484375 622.722656 697.351562 C 624.867188 698.378906 627.25 698.339844 629.273438 697.449219 C 627.527344 697.917969 625.613281 697.792969 623.855469 696.953125 " fill-opacity="1" fill-rule="nonzero"/><path fill="#9c2817" d="M 674.957031 558.34375 C 675.402344 558.363281 675.816406 558.382812 676.195312 558.402344 C 683.339844 559.328125 690.875 557.25 694.640625 556.574219 C 697.738281 556.015625 703.320312 554.304688 707.867188 554.070312 L 708.800781 552.007812 C 702.542969 552.585938 695.742188 554.105469 693.359375 554.722656 C 689.660156 555.671875 682.832031 556.550781 675.101562 557.902344 C 674.222656 558.058594 673.308594 558.140625 672.371094 558.191406 C 673.289062 558.253906 674.183594 558.308594 674.957031 558.34375 " fill-opacity="1" fill-rule="nonzero"/><path fill="#fabb85" d="M 615.289062 591.171875 C 617.011719 590.992188 627.738281 587.96875 629.722656 587.320312 C 634.035156 585.910156 640.457031 583.398438 643.558594 580.644531 C 648.085938 576.625 649.734375 569.121094 655.378906 564.003906 C 658.640625 561.046875 661.164062 558.789062 663.75 556.976562 C 665.75 557.5 668.109375 557.824219 670.34375 558.027344 C 670.902344 558.082031 671.453125 558.128906 671.992188 558.167969 C 673.0625 558.242188 674.074219 558.300781 674.957031 558.34375 C 675.402344 558.363281 675.816406 558.382812 676.195312 558.402344 C 683.339844 559.328125 690.875 557.25 694.640625 556.574219 C 698.402344 555.898438 705.839844 553.492188 710.621094 554.125 C 715.496094 554.828125 720.839844 557.378906 722.183594 562.242188 C 723.523438 567.105469 721.6875 570.128906 718.253906 572.773438 C 722.097656 574.457031 724.746094 577.894531 724.289062 582.230469 C 723.832031 586.574219 722.199219 589.585938 719.757812 591.152344 C 721.359375 593.019531 722.160156 595.128906 722.089844 598.070312 C 722.023438 601.003906 720.433594 604.824219 717.570312 606.832031 C 718.472656 607.78125 719.523438 609.199219 719.355469 611.300781 C 718.949219 616.238281 715.027344 621.542969 709.921875 625.261719 C 704.820312 628.984375 700.597656 629.566406 694.847656 630.515625 C 689.09375 631.464844 641.117188 638.675781 632.921875 640.253906 C 629.53125 640.90625 623.410156 642.542969 621.53125 642.789062 L 615.289062 591.171875 " fill-opacity="1" fill-rule="nonzero"/><path fill="#cf8b50" d="M 709.921875 625.261719 C 704.820312 628.984375 700.597656 629.566406 694.847656 630.515625 C 689.09375 631.464844 641.117188 638.675781 632.921875 640.253906 C 629.53125 640.910156 623.410156 642.542969 621.53125 642.789062 L 619.824219 633.261719 C 622.269531 632.652344 630.417969 631.804688 632.6875 631.34375 C 669.046875 623.980469 685.339844 628.710938 700.375 625.179688 C 707.007812 623.625 712.878906 620.574219 719.230469 612.261719 C 718.4375 616.917969 714.699219 621.785156 709.921875 625.261719 " fill-opacity="1" fill-rule="nonzero"/><path fill="#fad5b4" d="M 722.183594 562.242188 C 722.234375 562.421875 722.269531 562.589844 722.308594 562.765625 C 720.230469 559.703125 717.386719 557.628906 713.082031 555.980469 C 709.484375 554.597656 705.589844 554.589844 702.1875 554.867188 C 705.132812 554.253906 708.214844 553.804688 710.621094 554.125 C 715.496094 554.828125 720.839844 557.378906 722.183594 562.242188 " fill-opacity="1" fill-rule="nonzero"/><path fill="#fad5b4" d="M 722.375 575.828125 C 718.714844 573.53125 714.054688 573.84375 711.636719 573.980469 C 712.957031 573.324219 715.582031 572.773438 718.253906 572.773438 C 719.894531 573.496094 721.320312 574.53125 722.375 575.828125 " fill-opacity="1" fill-rule="nonzero"/><path fill="#cf8b50" d="M 718.253906 572.773438 C 715.582031 572.773438 712.957031 573.324219 711.636719 573.980469 C 714.402344 572.585938 719.847656 569.5 722.460938 566.859375 C 721.980469 569.238281 720.445312 571.082031 718.253906 572.773438 " fill-opacity="1" fill-rule="nonzero"/><path fill="#cf8b50" d="M 719.757812 591.152344 C 718.539062 592.664062 716.578125 593.492188 714.980469 593.824219 C 718.621094 591.078125 721.621094 588.023438 723.925781 584.441406 C 723.214844 587.609375 721.757812 589.867188 719.757812 591.152344 " fill-opacity="1" fill-rule="nonzero"/><path fill="#fad5b4" d="M 714.980469 593.824219 C 716.578125 593.492188 718.539062 592.664062 719.757812 591.152344 C 720 591.433594 720.222656 591.726562 720.429688 592.019531 C 718.566406 593.242188 716.617188 594.066406 714.980469 593.824219 " fill-opacity="1" fill-rule="nonzero"/><path fill="#cf8b50" d="M 717.570312 606.832031 C 715.71875 608.371094 713.933594 608.921875 711.292969 609.738281 C 714.449219 608.027344 719.5625 603.78125 721.933594 599.582031 C 721.464844 602.21875 719.960938 605.15625 717.570312 606.832031 " fill-opacity="1" fill-rule="nonzero"/><path fill="#fad5b4" d="M 711.292969 609.738281 C 713.933594 608.921875 715.71875 608.371094 717.570312 606.832031 C 717.738281 607.011719 717.914062 607.203125 718.082031 607.414062 C 715.585938 609.445312 712.867188 609.898438 711.292969 609.738281 " fill-opacity="1" fill-rule="nonzero"/><path fill="#cf8b50" d="M 648.378906 594.449219 C 662.527344 598.597656 677.019531 601.484375 691.675781 603.074219 L 718.46875 605.976562 C 718.757812 605.699219 719.082031 605.464844 719.339844 605.15625 C 719.515625 604.945312 719.65625 604.714844 719.8125 604.492188 C 720.097656 604.09375 720.359375 603.683594 720.589844 603.257812 C 715.5 602.707031 691.996094 600.160156 691.996094 600.160156 C 677.550781 598.589844 663.148438 595.722656 649.203125 591.636719 L 631.914062 586.566406 C 631.148438 586.839844 630.40625 587.097656 629.722656 587.320312 C 629.234375 587.484375 628.207031 587.785156 626.917969 588.160156 L 648.378906 594.449219 " fill-opacity="1" fill-rule="nonzero"/><path fill="#fabb85" d="M 424.789062 598.804688 L 434.414062 600.234375 C 455.78125 603.414062 477.589844 601.914062 498.320312 595.832031 C 498.320312 595.832031 577.074219 599.1875 622.128906 588.695312 C 629.429688 587 669.007812 625.367188 658.851562 629.914062 C 638.472656 639.03125 605.203125 653.433594 589.4375 657.609375 C 539.40625 670.863281 479.179688 675.289062 433.429688 676.507812 L 388.050781 677.71875 C 370.996094 678.175781 356.570312 665.183594 355.242188 648.171875 L 351.8125 610.609375 L 424.789062 598.804688 " fill-opacity="1" fill-rule="nonzero"/><path fill="#fabb85" d="M 799.652344 610.625 L 796.234375 648.171875 C 794.886719 665.183594 777.632812 683.921875 748.746094 684.953125 C 736.664062 685.386719 722 685.816406 705.171875 684.09375 C 668.492188 680.328125 643.925781 668.203125 609.179688 654.941406 C 601.3125 651.941406 593.558594 648.636719 585.921875 645.03125 L 575.738281 640.234375 L 502.125 605.445312 C 494.320312 601.753906 485.625 599.925781 477.035156 600.410156 C 475.136719 600.476562 473.203125 600.71875 471.304688 601.097656 C 471.199219 601.097656 471.097656 601.136719 470.992188 601.136719 C 458.847656 602.339844 446.558594 602.066406 434.410156 600.234375 L 424.78125 598.785156 L 426.230469 595.300781 C 428.886719 588.8125 432.511719 582.671875 437.34375 577.59375 C 444.105469 570.554688 452.597656 565.277344 462.125 562.445312 L 467.507812 560.824219 C 488.871094 554.402344 511.648438 554.335938 533.046875 560.617188 L 575.699219 573.144531 L 648.378906 594.449219 C 662.527344 598.597656 677.019531 601.484375 691.675781 603.074219 L 721.269531 606.28125 C 723.585938 606.53125 725.6875 604.925781 726.050781 602.625 L 726.660156 598.785156 L 799.652344 610.625 " fill-opacity="1" fill-rule="nonzero"/><path fill="#fad5b4" d="M 647.277344 594.125 L 575.699219 573.144531 L 533.046875 560.617188 C 511.648438 554.335938 488.871094 554.402344 467.507812 560.824219 L 462.125 562.445312 C 452.597656 565.277344 444.105469 570.554688 437.34375 577.59375 C 433.515625 581.617188 430.472656 586.324219 428.035156 591.324219 C 429.816406 588.289062 431.875 585.421875 434.257812 582.816406 C 440.832031 575.703125 449.175781 570.265625 458.628906 567.222656 L 463.96875 565.480469 C 485.148438 558.578125 507.914062 557.898438 529.472656 563.511719 L 572.445312 574.707031 L 645.660156 593.746094 C 646.199219 593.882812 646.738281 593.992188 647.277344 594.125 " fill-opacity="1" fill-rule="nonzero"/><path fill="#cf8b50" d="M 585.921875 645.027344 L 575.738281 640.234375 L 502.125 605.445312 C 494.320312 601.753906 485.625 599.925781 477.035156 600.410156 C 476.597656 600.421875 476.160156 600.476562 475.726562 600.511719 C 474.558594 600.664062 473.386719 600.824219 472.210938 600.953125 C 472.054688 600.976562 471.898438 600.996094 471.742188 601.027344 C 490.351562 601.773438 494.570312 605.117188 500.871094 608.101562 L 584.667969 647.6875 C 589.652344 650.042969 594.683594 652.257812 599.753906 654.351562 C 601.089844 653.886719 602.488281 653.382812 603.910156 652.855469 C 597.851562 650.421875 591.84375 647.824219 585.921875 645.027344 " fill-opacity="1" fill-rule="nonzero"/><path fill="#cf8b50" d="M 454.675781 599.527344 C 447.511719 599.03125 441.945312 598.386719 434.84375 597.332031 L 425.9375 596.003906 L 424.78125 598.785156 L 434.410156 600.234375 C 446.558594 602.066406 458.847656 602.339844 470.992188 601.136719 C 471.097656 601.136719 471.199219 601.097656 471.304688 601.097656 C 473.152344 600.726562 475.03125 600.496094 476.882812 600.417969 C 469.910156 600.824219 463.832031 600.171875 454.675781 599.527344 " fill-opacity="1" fill-rule="nonzero"/><path fill="#333333" d="M 135.707031 464.226562 L 133.148438 486.191406 L 168.621094 459.597656 C 167.925781 458.535156 167.199219 457.480469 166.425781 456.445312 C 153.023438 438.570312 131.875 430.546875 113.476562 434.574219 L 135.707031 464.226562 " fill-opacity="1" fill-rule="nonzero"/><path fill="#4d4d4d" d="M 139.667969 474.851562 L 141.066406 462.777344 L 123.015625 438.695312 C 137.207031 438.632812 151.5625 445.871094 161.488281 458.492188 L 139.667969 474.851562 " fill-opacity="1" fill-rule="nonzero"/><path fill="#4d4d4d" d="M 162.707031 484.375 C 164.015625 483.394531 165.871094 483.660156 166.851562 484.96875 L 176.253906 497.511719 C 177.230469 498.816406 176.96875 500.675781 175.660156 501.65625 L 157.25 515.457031 C 155.941406 516.4375 154.085938 516.171875 153.105469 514.867188 L 143.699219 502.324219 C 142.71875 501.015625 142.988281 499.160156 144.296875 498.179688 Z M 102.101562 501.5 C 110.34375 512.496094 121.882812 519.410156 133.933594 521.722656 C 144.476562 523.746094 154.269531 528.226562 162.75 534.554688 L 188.78125 515.042969 C 181.976562 504.050781 178.921875 491.082031 180.195312 478.105469 L 180.960938 470.316406 C 181.507812 464.75 179.949219 459.175781 176.59375 454.695312 L 174.4375 451.828125 L 139.863281 477.746094 L 118.558594 474.695312 L 97.472656 446.570312 C 88.207031 462.78125 89.382812 484.542969 102.101562 501.5 " fill-opacity="1" fill-rule="nonzero"/><path fill="#808080" d="M 197.480469 526.734375 L 192.363281 520.21875 C 188.855469 515.710938 186.058594 510.761719 184.007812 505.535156 L 153.296875 528.558594 C 160.957031 532.605469 167.855469 538.054688 173.699219 544.554688 L 197.480469 526.734375 " fill-opacity="1" fill-rule="nonzero"/><path fill="#666666" d="M 106.230469 498.40625 C 110.257812 503.777344 115.226562 508.171875 120.800781 511.382812 L 175.785156 470.15625 L 175.824219 469.8125 C 176.195312 466.039062 175.316406 462.292969 173.347656 459.097656 L 141.25 483.15625 L 115.710938 479.503906 L 98.605469 456.6875 C 94.15625 470.265625 96.847656 485.890625 106.230469 498.40625 " fill-opacity="1" fill-rule="nonzero"/><path fill="#333333" d="M 174.828125 495.609375 L 168.273438 486.867188 L 145.128906 504.222656 L 151.679688 512.964844 L 174.828125 495.609375 " fill-opacity="1" fill-rule="nonzero"/><path fill="#4d4d4d" d="M 147.65625 499.539062 L 152.902344 513.320312 C 153.234375 514.195312 154.34375 514.609375 155.378906 514.253906 L 148.929688 497.308594 C 147.894531 497.667969 147.320312 498.664062 147.65625 499.539062 " fill-opacity="1" fill-rule="nonzero"/><path fill="#1a1a1a" d="M 156.65625 512.023438 L 151.402344 498.242188 C 151.074219 497.367188 149.96875 496.953125 148.929688 497.308594 L 155.378906 514.253906 C 156.414062 513.894531 156.984375 512.898438 156.65625 512.023438 " fill-opacity="1" fill-rule="nonzero"/><path fill="#4d4d4d" d="M 152.839844 495.648438 L 158.089844 509.429688 C 158.421875 510.304688 159.53125 510.71875 160.566406 510.367188 L 154.117188 493.417969 C 153.082031 493.777344 152.507812 494.777344 152.839844 495.648438 " fill-opacity="1" fill-rule="nonzero"/><path fill="#1a1a1a" d="M 161.839844 508.136719 L 156.59375 494.351562 C 156.261719 493.476562 155.152344 493.0625 154.117188 493.417969 L 160.566406 510.367188 C 161.601562 510.007812 162.175781 509.011719 161.839844 508.136719 " fill-opacity="1" fill-rule="nonzero"/><path fill="#4d4d4d" d="M 158.027344 491.757812 L 163.273438 505.546875 C 163.609375 506.417969 164.714844 506.835938 165.753906 506.476562 L 159.304688 489.53125 C 158.265625 489.886719 157.699219 490.886719 158.027344 491.757812 " fill-opacity="1" fill-rule="nonzero"/><path fill="#1a1a1a" d="M 167.027344 504.246094 L 161.78125 490.460938 C 161.449219 489.59375 160.339844 489.171875 159.304688 489.53125 L 165.753906 506.476562 C 166.789062 506.117188 167.359375 505.121094 167.027344 504.246094 " fill-opacity="1" fill-rule="nonzero"/><path fill="#4d4d4d" d="M 163.21875 487.871094 L 168.464844 501.65625 C 168.800781 502.527344 169.90625 502.945312 170.941406 502.585938 L 164.492188 485.644531 C 163.453125 486 162.886719 486.996094 163.21875 487.871094 " fill-opacity="1" fill-rule="nonzero"/><path fill="#1a1a1a" d="M 172.214844 500.359375 L 166.96875 486.574219 C 166.636719 485.703125 165.527344 485.28125 164.492188 485.644531 L 170.941406 502.585938 C 171.976562 502.230469 172.546875 501.230469 172.214844 500.359375 " fill-opacity="1" fill-rule="nonzero"/><path fill="#4d4d4d" d="M 144.917969 496.074219 L 147.859375 500.835938 C 148.066406 501.167969 147.960938 501.617188 147.628906 501.867188 L 147.382812 502.050781 C 147.046875 502.300781 146.59375 502.273438 146.328125 501.984375 L 142.585938 497.824219 L 144.917969 496.074219 " fill-opacity="1" fill-rule="nonzero"/><path fill="#4d4d4d" d="M 150.136719 492.160156 L 153.078125 496.921875 C 153.285156 497.257812 153.1875 497.703125 152.851562 497.953125 L 152.605469 498.136719 C 152.273438 498.386719 151.8125 498.355469 151.550781 498.066406 L 147.804688 493.90625 L 150.136719 492.160156 " fill-opacity="1" fill-rule="nonzero"/><path fill="#4d4d4d" d="M 155.355469 488.246094 L 158.300781 493.007812 C 158.503906 493.339844 158.40625 493.785156 158.070312 494.039062 L 157.828125 494.222656 C 157.492188 494.472656 157.035156 494.445312 156.769531 494.152344 L 153.027344 489.996094 L 155.355469 488.246094 " fill-opacity="1" fill-rule="nonzero"/><path fill="#4d4d4d" d="M 160.582031 484.332031 L 163.519531 489.089844 C 163.726562 489.425781 163.628906 489.875 163.292969 490.125 L 163.046875 490.308594 C 162.714844 490.558594 162.253906 490.527344 161.996094 490.238281 L 158.25 486.078125 L 160.582031 484.332031 " fill-opacity="1" fill-rule="nonzero"/><path fill="#f13e23" d="M 290.03125 661.4375 C 292.8125 665.144531 292.058594 670.398438 288.351562 673.179688 C 284.640625 675.957031 279.386719 675.207031 276.605469 671.5 C 273.828125 667.792969 274.578125 662.535156 278.285156 659.753906 C 281.992188 656.976562 287.25 657.726562 290.03125 661.4375 Z M 178.820312 550.875 L 268.535156 676.597656 C 274.542969 684.910156 286.199219 686.683594 294.40625 680.535156 C 302.609375 674.382812 304.175781 662.695312 297.882812 654.597656 L 192.363281 520.21875 C 191.070312 518.554688 189.878906 516.820312 188.78125 515.042969 L 162.75 534.554688 C 168.863281 539.109375 174.296875 544.613281 178.820312 550.875 " fill-opacity="1" fill-rule="nonzero"/><path fill="#c4321d" d="M 163.75 535.324219 L 187.808594 517.292969 C 188.90625 519.070312 190.097656 520.800781 191.390625 522.464844 L 296.910156 656.84375 C 300.882812 661.953125 301.71875 668.488281 299.742188 674.160156 C 302.847656 668.03125 302.390625 660.398438 297.882812 654.597656 L 192.363281 520.21875 C 191.070312 518.554688 189.878906 516.820312 188.78125 515.042969 L 162.75 534.554688 C 163.089844 534.808594 163.417969 535.070312 163.75 535.324219 " fill-opacity="1" fill-rule="nonzero"/><path fill="#ff664f" d="M 178.820312 550.875 L 268.535156 676.597656 C 274.542969 684.910156 286.199219 686.683594 294.40625 680.535156 C 297.191406 678.441406 299.195312 675.707031 300.402344 672.695312 C 299.226562 674.621094 297.6875 676.367188 295.769531 677.804688 C 287.566406 683.953125 275.910156 682.179688 269.902344 673.867188 L 180.191406 548.144531 C 175.941406 542.269531 170.890625 537.070312 165.242188 532.695312 L 162.75 534.554688 C 168.863281 539.109375 174.296875 544.613281 178.820312 550.875 " fill-opacity="1" fill-rule="nonzero"/><path fill="#ff664f" d="M 275.132812 664.648438 C 275.554688 662.757812 276.621094 661.007812 278.285156 659.753906 C 281.992188 656.976562 287.25 657.726562 290.03125 661.4375 C 291.28125 663.101562 291.808594 665.085938 291.683594 667.015625 C 292.191406 664.707031 291.742188 662.199219 290.214844 660.164062 C 287.433594 656.453125 282.175781 655.703125 278.46875 658.480469 C 276.425781 660.011719 275.289062 662.289062 275.132812 664.648438 " fill-opacity="1" fill-rule="nonzero"/><path fill="#c4321d" d="M 288.351562 673.179688 C 284.640625 675.957031 279.386719 675.207031 276.605469 671.5 C 275.359375 669.832031 274.824219 667.847656 274.953125 665.917969 C 274.441406 668.226562 274.898438 670.734375 276.421875 672.773438 C 279.203125 676.484375 284.460938 677.234375 288.167969 674.453125 C 290.207031 672.925781 291.347656 670.644531 291.5 668.292969 C 291.082031 670.175781 290.019531 671.929688 288.351562 673.179688 " fill-opacity="1" fill-rule="nonzero"/><path fill="#4d4d4d" d="M 282.152344 521.164062 L 282.507812 517.605469 L 278.988281 516.941406 L 279.335938 513.382812 L 275.824219 512.722656 L 276.171875 509.15625 L 272.652344 508.496094 L 273.003906 504.933594 L 269.488281 504.269531 L 269.839844 500.707031 L 248.6875 472.503906 L 227.878906 488.101562 L 249.027344 516.3125 L 252.546875 516.972656 L 252.199219 520.535156 L 255.710938 521.199219 L 255.363281 524.761719 L 258.878906 525.425781 L 258.53125 528.984375 L 262.046875 529.644531 L 261.695312 533.203125 L 265.210938 533.867188 L 264.859375 537.417969 C 269.207031 542.992188 277.234375 544.085938 282.914062 539.828125 C 288.59375 535.570312 289.796875 527.558594 285.664062 521.824219 L 282.152344 521.164062 " fill-opacity="1" fill-rule="nonzero"/><path fill="#666666" d="M 264.324219 489.375 L 239.691406 507.84375 C 240.058594 507.570312 240.578125 507.644531 240.851562 508.007812 L 241.945312 509.472656 C 242.21875 509.839844 242.148438 510.351562 241.78125 510.628906 L 266.414062 492.15625 C 266.046875 492.433594 265.53125 492.359375 265.257812 491.996094 L 264.15625 490.53125 C 263.886719 490.164062 263.960938 489.644531 264.324219 489.375 " fill-opacity="1" fill-rule="nonzero"/><path fill="#333333" d="M 266.484375 492.109375 L 241.710938 510.679688 C 241.347656 510.957031 241.269531 511.472656 241.542969 511.839844 L 245.414062 517 C 245.6875 517.363281 246.203125 517.4375 246.570312 517.167969 L 271.347656 498.589844 C 271.710938 498.3125 271.785156 497.796875 271.507812 497.429688 L 267.640625 492.273438 C 267.367188 491.90625 266.851562 491.835938 266.484375 492.109375 Z M 259.535156 482.839844 L 234.761719 501.414062 C 234.394531 501.6875 234.324219 502.207031 234.597656 502.570312 L 238.464844 507.730469 C 238.738281 508.097656 239.257812 508.167969 239.617188 507.894531 L 264.394531 489.320312 C 264.761719 489.046875 264.832031 488.527344 264.5625 488.164062 L 260.691406 483.003906 C 260.421875 482.640625 259.902344 482.566406 259.535156 482.839844 " fill-opacity="1" fill-rule="nonzero"/><path fill="#333333" d="M 278.140625 533.460938 C 275.664062 535.320312 272.140625 534.816406 270.28125 532.335938 L 253.1875 509.539062 L 262.171875 502.800781 L 279.265625 525.605469 C 281.125 528.082031 280.621094 531.601562 278.140625 533.460938 " fill-opacity="1" fill-rule="nonzero"/><path fill="#4d4d4d" d="M 228.492188 373.425781 C 224.523438 368.136719 198.257812 368.113281 178.300781 383.078125 C 177.535156 383.648438 177.238281 383.875 177.238281 383.875 C 167.925781 390.855469 165.726562 403.792969 171.949219 413.417969 L 171.902344 413.453125 L 172.832031 414.6875 L 176.253906 419.25 L 216.917969 473.492188 L 237.730469 457.886719 L 204.734375 413.882812 C 200.496094 408.234375 201.640625 400.214844 207.296875 395.976562 L 231.6875 377.6875 C 231.6875 377.6875 230.40625 375.984375 228.492188 373.425781 " fill-opacity="1" fill-rule="nonzero"/><path fill="#666666" d="M 210.4375 370.535156 L 208.40625 376.492188 L 181.65625 396.550781 C 178.355469 399.023438 177.6875 403.699219 180.160156 406.992188 C 182.636719 410.292969 187.3125 410.960938 190.609375 408.488281 L 203.597656 398.75 L 207.601562 398.769531 L 208.695312 394.925781 L 212.695312 394.949219 L 213.796875 391.101562 L 217.792969 391.125 L 218.894531 387.28125 L 222.894531 387.304688 L 223.996094 383.457031 L 228 383.476562 L 229.097656 379.628906 L 231.6875 377.6875 C 231.6875 377.6875 230.40625 375.984375 228.492188 373.425781 C 226.578125 370.878906 219.496094 369.554688 210.4375 370.535156 " fill-opacity="1" fill-rule="nonzero"/><path fill="#333333" d="M 192.742188 419.570312 C 190.261719 421.429688 189.761719 424.949219 191.621094 427.433594 L 213.453125 456.550781 L 222.4375 449.8125 L 200.601562 420.695312 C 198.746094 418.214844 195.222656 417.710938 192.742188 419.570312 " fill-opacity="1" fill-rule="nonzero"/><path fill="#666666" d="M 247.960938 410.714844 L 246.449219 414.394531 L 242.496094 413.925781 L 242.308594 414.039062 L 240.796875 417.714844 L 236.847656 417.25 L 236.660156 417.359375 L 235.148438 421.035156 L 231.199219 420.570312 L 231.011719 420.683594 L 229.496094 424.355469 L 225.554688 423.890625 L 225.367188 424.003906 L 223.851562 427.679688 L 219.90625 427.210938 C 219.515625 427.441406 219.414062 427.957031 219.6875 428.3125 L 227.332031 438.511719 L 259.820312 424.804688 L 249.265625 410.726562 C 249.03125 410.417969 248.613281 410.335938 248.28125 410.53125 L 247.960938 410.714844 " fill-opacity="1" fill-rule="nonzero"/><path fill="#f13e23" d="M 375.433594 598.179688 C 376.65625 599.8125 376.324219 602.132812 374.691406 603.355469 C 373.058594 604.582031 370.742188 604.25 369.523438 602.617188 L 359.800781 589.652344 C 358.578125 588.019531 358.902344 585.707031 360.539062 584.480469 C 362.171875 583.253906 364.488281 583.589844 365.710938 585.21875 Z M 251.722656 420.339844 L 224.328125 434.707031 C 223.851562 434.953125 223.417969 435.269531 223.035156 435.640625 L 208.78125 449.523438 C 202.316406 455.824219 199.847656 465.175781 202.359375 473.851562 L 203.394531 477.429688 C 205.125 483.394531 209.050781 488.472656 214.386719 491.644531 C 222.898438 496.710938 233.628906 496.136719 241.558594 490.191406 L 259.84375 476.480469 L 276.234375 498.34375 L 267.425781 504.945312 C 264.929688 506.820312 264.421875 510.367188 266.292969 512.863281 C 267.292969 514.195312 268.828125 515.015625 270.488281 515.117188 L 275.464844 515.40625 C 284.460938 515.933594 292.773438 520.402344 298.183594 527.613281 L 360.855469 611.199219 C 365.953125 617.996094 375.597656 619.375 382.394531 614.277344 L 383.246094 613.640625 C 390.046875 608.542969 391.425781 598.898438 386.324219 592.101562 L 258.726562 421.925781 C 257.097656 419.75 254.132812 419.078125 251.722656 420.339844 " fill-opacity="1" fill-rule="nonzero"/><path fill="#c4321d" d="M 375.433594 598.179688 C 376.65625 599.8125 376.324219 602.132812 374.691406 603.355469 C 373.058594 604.582031 370.742188 604.25 369.523438 602.617188 L 359.800781 589.652344 C 358.578125 588.019531 358.902344 585.707031 360.539062 584.480469 C 362.171875 583.253906 364.488281 583.589844 365.710938 585.21875 Z M 255.070312 443.820312 C 251.746094 446.316406 251.070312 451.039062 253.5625 454.363281 L 367.132812 605.824219 C 369.625 609.15625 374.347656 609.832031 377.675781 607.335938 C 381.003906 604.835938 381.679688 600.117188 379.1875 596.789062 L 265.617188 445.328125 C 263.121094 442 258.402344 441.324219 255.070312 443.820312 " fill-opacity="1" fill-rule="nonzero"/><path fill="#ff664f" d="M 242.835938 449.972656 L 211.242188 473.660156 L 207.320312 468.433594 L 238.917969 444.746094 L 242.835938 449.972656 " fill-opacity="1" fill-rule="nonzero"/><path fill="#ff664f" d="M 236.90625 472.003906 L 219.6875 484.917969 L 215.765625 479.691406 L 232.984375 466.777344 L 236.90625 472.003906 " fill-opacity="1" fill-rule="nonzero"/><g fill="#3c5e91" fill-opacity="1"><g transform="translate(423.68547, 366.130226)"><g><path d="M 3.9375 0.140625 C 3.382812 0.140625 2.945312 -0.015625 2.625 -0.328125 C 2.300781 -0.640625 2.140625 -1.050781 2.140625 -1.5625 C 2.140625 -2.070312 2.300781 -2.488281 2.625 -2.8125 C 2.945312 -3.144531 3.382812 -3.3125 3.9375 -3.3125 C 4.507812 -3.3125 4.953125 -3.15625 5.265625 -2.84375 C 5.585938 -2.53125 5.75 -2.113281 5.75 -1.59375 C 5.75 -1.082031 5.585938 -0.664062 5.265625 -0.34375 C 4.941406 -0.0195312 4.5 0.140625 3.9375 0.140625 Z M 3.9375 0.140625 "/></g></g></g></svg>