<svg xmlns="http://www.w3.org/2000/svg" xmlns:xlink="http://www.w3.org/1999/xlink" width="1080" zoomAndPan="magnify" viewBox="0 0 810 809.999993" height="1080" preserveAspectRatio="xMidYMid meet" version="1.0"><defs><g/><clipPath id="28b4cf5891"><path d="M 268 67.007812 L 797 67.007812 L 797 372 L 268 372 Z M 268 67.007812 " clip-rule="nonzero"/></clipPath><clipPath id="1d360f994a"><path d="M 0.171875 632 L 167.5 632 L 167.5 738.480469 L 0.171875 738.480469 Z M 0.171875 632 " clip-rule="nonzero"/></clipPath></defs><path fill="#2b2625" d="M 290.621094 522.914062 L 349.707031 423.679688 L 338.640625 417.371094 C 337.675781 416.699219 336.664062 416.113281 335.597656 415.621094 C 328.355469 412.3125 318.828125 413.210938 308.339844 419.269531 C 285.757812 432.296875 267.464844 463.988281 267.464844 490.042969 C 267.464844 502.449219 271.640625 511.289062 278.421875 515.796875 L 278.414062 515.804688 L 278.484375 515.839844 C 279.125 516.261719 279.792969 516.648438 280.488281 517 L 290.621094 522.914062 " fill-opacity="1" fill-rule="nonzero"/><path fill="#151212" d="M 361.488281 450.007812 C 361.488281 476.066406 343.1875 507.761719 320.613281 520.785156 C 298.035156 533.8125 279.734375 523.253906 279.734375 497.195312 C 279.734375 471.132812 298.03125 439.441406 320.613281 426.414062 C 343.1875 413.382812 361.488281 423.949219 361.488281 450.007812 " fill-opacity="1" fill-rule="nonzero"/><path fill="#2b2625" d="M 308.304688 533.039062 L 367.390625 433.8125 L 356.316406 427.496094 C 355.351562 426.820312 354.339844 426.238281 353.273438 425.746094 C 346.03125 422.4375 336.503906 423.335938 326.015625 429.394531 C 303.441406 442.425781 285.140625 474.113281 285.140625 500.171875 C 285.140625 512.574219 289.316406 521.414062 296.097656 525.921875 L 296.097656 525.929688 L 296.160156 525.964844 C 296.808594 526.394531 297.472656 526.773438 298.164062 527.125 L 308.304688 533.039062 " fill-opacity="1" fill-rule="nonzero"/><path fill="#393432" d="M 379.171875 460.132812 C 379.171875 486.199219 360.871094 517.886719 338.289062 530.910156 C 315.714844 543.945312 297.410156 533.378906 297.410156 507.316406 C 297.410156 481.257812 315.714844 449.570312 338.289062 436.539062 C 360.863281 423.511719 379.171875 434.074219 379.171875 460.132812 " fill-opacity="1" fill-rule="nonzero"/><path fill="#23201e" d="M 364.011719 474.667969 C 364.011719 487.765625 354.761719 503.761719 343.460938 510.269531 C 333.015625 516.347656 324.371094 512.328125 323 501.542969 C 322.917969 500.515625 322.824219 499.484375 322.824219 498.375 C 322.824219 485.277344 332.074219 469.355469 343.460938 462.765625 C 344.402344 462.167969 345.34375 461.742188 346.285156 461.398438 C 356.300781 457.203125 364.011719 462.683594 364.011719 474.667969 " fill-opacity="1" fill-rule="nonzero"/><path fill="#151212" d="M 343.417969 473.128906 C 352.828125 467.8125 353.960938 467.199219 358.808594 469.363281 C 363.660156 471.527344 440.898438 519.507812 440.898438 519.507812 L 449.769531 528.707031 L 412.507812 519.507812 L 343.417969 473.128906 " fill-opacity="1" fill-rule="nonzero"/><path fill="#2b2625" d="M 410.152344 590.28125 L 469.238281 491.046875 L 458.167969 484.738281 C 457.207031 484.0625 456.1875 483.480469 455.117188 482.988281 C 447.886719 479.679688 438.347656 480.578125 427.871094 486.632812 C 405.289062 499.660156 386.988281 531.347656 386.988281 557.40625 C 386.988281 569.8125 391.167969 578.652344 397.945312 583.164062 L 397.945312 583.171875 L 398.007812 583.207031 C 398.652344 583.632812 399.320312 584.011719 400.011719 584.363281 L 410.152344 590.28125 " fill-opacity="1" fill-rule="nonzero"/><path fill="#151212" d="M 481.019531 517.371094 C 481.019531 543.429688 462.714844 575.125 440.132812 588.152344 C 417.558594 601.179688 399.257812 590.617188 399.257812 564.558594 C 399.257812 538.5 417.558594 506.8125 440.132812 493.777344 C 462.714844 480.746094 481.019531 491.3125 481.019531 517.371094 " fill-opacity="1" fill-rule="nonzero"/><path fill="#2b2625" d="M 427.828125 600.40625 L 486.921875 501.175781 L 475.84375 494.859375 C 474.882812 494.1875 473.871094 493.605469 472.800781 493.113281 C 465.5625 489.800781 456.03125 490.703125 445.546875 496.757812 C 422.972656 509.792969 404.667969 541.472656 404.667969 567.539062 C 404.667969 579.9375 408.851562 588.777344 415.625 593.289062 L 415.625 593.292969 L 415.691406 593.328125 C 416.335938 593.757812 417.003906 594.136719 417.691406 594.488281 L 427.828125 600.40625 " fill-opacity="1" fill-rule="nonzero"/><path fill="#393432" d="M 498.695312 527.496094 C 498.695312 553.5625 480.390625 585.25 457.816406 598.277344 C 435.242188 611.308594 416.941406 600.742188 416.941406 574.683594 C 416.941406 548.625 435.242188 516.9375 457.816406 503.902344 C 480.390625 490.878906 498.695312 501.4375 498.695312 527.496094 " fill-opacity="1" fill-rule="nonzero"/><path fill="#23201e" d="M 483.535156 542.035156 C 483.535156 555.128906 474.292969 571.128906 462.988281 577.632812 C 452.546875 583.710938 443.894531 579.683594 442.523438 568.90625 C 442.445312 567.882812 442.355469 566.847656 442.355469 565.738281 C 442.355469 552.640625 451.605469 536.722656 462.988281 530.132812 C 463.933594 529.535156 464.875 529.105469 465.816406 528.761719 C 475.832031 524.574219 483.535156 530.046875 483.535156 542.035156 " fill-opacity="1" fill-rule="nonzero"/><path fill="#72b49a" d="M 469.238281 538.351562 C 469.238281 548.960938 461.789062 561.804688 452.628906 567.109375 C 448.777344 569.328125 445.265625 569.847656 442.523438 568.90625 C 442.445312 567.882812 442.355469 566.847656 442.355469 565.738281 C 442.355469 552.640625 451.605469 536.722656 462.988281 530.132812 C 463.933594 529.535156 464.875 529.105469 465.816406 528.761719 C 467.953125 530.734375 469.238281 533.988281 469.238281 538.351562 " fill-opacity="1" fill-rule="nonzero"/><path fill="#2552ab" d="M 369.535156 532.71875 C 354.585938 541.378906 330.316406 541.378906 315.367188 532.71875 C 314.917969 532.449219 314.460938 532.195312 314.074219 531.9375 C 314.460938 531.613281 314.917969 531.355469 315.367188 531.09375 C 330.316406 522.488281 354.585938 522.488281 369.535156 531.09375 C 369.992188 531.355469 370.378906 531.613281 370.765625 531.9375 C 370.378906 532.195312 369.992188 532.449219 369.535156 532.71875 Z M 328.074219 460.574219 L 214.675781 522.886719 L 308.570312 592.886719 L 432.957031 521.136719 L 328.074219 460.574219 " fill-opacity="1" fill-rule="nonzero"/><path fill="#141c34" d="M 370.765625 531.9375 C 370.378906 531.613281 369.992188 531.355469 369.535156 531.09375 C 354.585938 522.488281 330.316406 522.488281 315.367188 531.09375 C 314.917969 531.355469 314.460938 531.613281 314.074219 531.9375 C 300.417969 523.265625 300.875 509.875 315.367188 501.464844 C 330.316406 492.859375 354.585938 492.859375 369.535156 501.464844 C 384.035156 509.875 384.484375 523.332031 370.765625 531.9375 " fill-opacity="1" fill-rule="nonzero"/><path fill="#151a1e" d="M 646.46875 346.570312 L 646.46875 414.679688 L 777.246094 339.207031 L 777.246094 271.089844 L 646.46875 346.570312 " fill-opacity="1" fill-rule="nonzero"/><path fill="#2b2625" d="M 769.800781 388.085938 L 803.179688 332.035156 L 783.007812 320.476562 C 782.46875 320.097656 781.890625 319.765625 781.285156 319.488281 C 777.203125 317.617188 771.820312 318.128906 765.894531 321.546875 C 753.144531 328.910156 742.804688 346.804688 742.804688 361.523438 C 742.804688 368.535156 745.167969 373.523438 748.992188 376.074219 L 749.035156 376.09375 C 749.390625 376.332031 749.769531 376.550781 750.164062 376.746094 L 769.800781 388.085938 " fill-opacity="1" fill-rule="nonzero"/><path fill="#393432" d="M 809.828125 346.902344 C 809.828125 361.621094 799.488281 379.523438 786.738281 386.886719 C 773.984375 394.242188 763.652344 388.277344 763.652344 373.558594 C 763.652344 358.839844 773.984375 340.9375 786.738281 333.582031 C 799.488281 326.21875 809.828125 332.183594 809.828125 346.902344 " fill-opacity="1" fill-rule="nonzero"/><path fill="#23201e" d="M 801.265625 355.113281 C 801.265625 362.507812 796.046875 371.546875 789.65625 375.222656 C 783.761719 378.660156 778.875 376.382812 778.101562 370.292969 C 778.054688 369.714844 778.003906 369.132812 778.003906 368.5 C 778.003906 361.109375 783.226562 352.113281 789.65625 348.390625 C 790.191406 348.054688 790.726562 347.808594 791.257812 347.617188 C 796.910156 345.25 801.265625 348.34375 801.265625 355.113281 " fill-opacity="1" fill-rule="nonzero"/><path fill="#72b49a" d="M 793.191406 353.035156 C 793.191406 359.027344 788.980469 366.28125 783.808594 369.28125 C 781.628906 370.535156 779.648438 370.824219 778.101562 370.292969 C 778.054688 369.714844 778.003906 369.132812 778.003906 368.5 C 778.003906 361.109375 783.226562 352.113281 789.65625 348.390625 C 790.191406 348.054688 790.726562 347.808594 791.257812 347.617188 C 792.46875 348.726562 793.191406 350.570312 793.191406 353.035156 " fill-opacity="1" fill-rule="nonzero"/><path fill="#2b2625" d="M 721.628906 415.882812 L 755.007812 359.835938 L 734.84375 348.277344 C 734.296875 347.898438 733.726562 347.570312 733.121094 347.289062 C 729.03125 345.417969 723.648438 345.933594 717.722656 349.347656 C 704.972656 356.710938 694.632812 374.605469 694.632812 389.324219 C 694.632812 396.335938 696.996094 401.324219 700.828125 403.875 L 700.863281 403.894531 C 701.226562 404.136719 701.605469 404.351562 701.992188 404.550781 L 721.628906 415.882812 " fill-opacity="1" fill-rule="nonzero"/><path fill="#393432" d="M 761.65625 374.703125 C 761.65625 389.421875 751.324219 407.324219 738.566406 414.679688 C 725.820312 422.042969 715.480469 416.070312 715.480469 401.359375 C 715.480469 386.632812 725.820312 368.738281 738.566406 361.375 C 751.316406 354.019531 761.65625 359.984375 761.65625 374.703125 " fill-opacity="1" fill-rule="nonzero"/><path fill="#23201e" d="M 753.097656 382.910156 C 753.097656 390.308594 747.875 399.351562 741.492188 403.023438 C 735.589844 406.453125 730.703125 404.183594 729.9375 398.09375 C 729.882812 397.507812 729.839844 396.933594 729.839844 396.300781 C 729.839844 388.910156 735.0625 379.917969 741.492188 376.191406 C 742.019531 375.855469 742.554688 375.609375 743.085938 375.421875 C 748.746094 373.050781 753.097656 376.144531 753.097656 382.910156 " fill-opacity="1" fill-rule="nonzero"/><path fill="#72b49a" d="M 745.019531 380.835938 C 745.019531 386.832031 740.816406 394.082031 735.644531 397.074219 C 733.464844 398.332031 731.484375 398.625 729.9375 398.09375 C 729.882812 397.507812 729.839844 396.933594 729.839844 396.300781 C 729.839844 388.910156 735.0625 379.917969 741.492188 376.191406 C 742.019531 375.855469 742.554688 375.609375 743.085938 375.421875 C 744.296875 376.53125 745.019531 378.371094 745.019531 380.835938 " fill-opacity="1" fill-rule="nonzero"/><path fill="#2b2625" d="M 673.464844 443.683594 L 706.84375 387.636719 L 686.671875 376.082031 C 686.128906 375.695312 685.554688 375.371094 684.949219 375.089844 C 680.867188 373.222656 675.484375 373.726562 669.558594 377.148438 C 656.800781 384.503906 646.46875 402.40625 646.46875 417.125 C 646.46875 424.132812 648.832031 429.125 652.660156 431.667969 L 652.65625 431.675781 L 652.691406 431.699219 C 653.054688 431.9375 653.433594 432.15625 653.828125 432.351562 L 673.464844 443.683594 " fill-opacity="1" fill-rule="nonzero"/><path fill="#393432" d="M 713.492188 402.503906 C 713.492188 417.222656 703.152344 435.121094 690.402344 442.484375 C 677.648438 449.847656 667.308594 443.875 667.308594 429.15625 C 667.308594 414.433594 677.648438 396.539062 690.402344 389.175781 C 703.152344 381.820312 713.492188 387.785156 713.492188 402.503906 " fill-opacity="1" fill-rule="nonzero"/><path fill="#23201e" d="M 704.929688 410.710938 C 704.929688 418.109375 699.710938 427.152344 693.320312 430.828125 C 687.421875 434.253906 682.539062 431.984375 681.765625 425.894531 C 681.714844 425.3125 681.667969 424.734375 681.667969 424.101562 C 681.667969 416.710938 686.890625 407.71875 693.320312 403.996094 C 693.855469 403.65625 694.386719 403.410156 694.921875 403.222656 C 700.574219 400.855469 704.929688 403.945312 704.929688 410.710938 " fill-opacity="1" fill-rule="nonzero"/><path fill="#72b49a" d="M 696.855469 408.632812 C 696.855469 414.632812 692.644531 421.882812 687.472656 424.875 C 685.292969 426.132812 683.3125 426.421875 681.765625 425.894531 C 681.714844 425.3125 681.667969 424.734375 681.667969 424.101562 C 681.667969 416.710938 686.890625 407.71875 693.320312 403.996094 C 693.855469 403.65625 694.386719 403.410156 694.921875 403.222656 C 696.132812 404.332031 696.855469 406.164062 696.855469 408.632812 " fill-opacity="1" fill-rule="nonzero"/><path fill="#101417" d="M 474.65625 403.074219 L 474.65625 471.183594 L 521.445312 498.183594 L 521.445312 430.074219 L 474.65625 403.074219 " fill-opacity="1" fill-rule="nonzero"/><path fill="#262d36" d="M 521.445312 430.074219 L 521.445312 498.183594 L 652.210938 422.703125 L 652.210938 354.59375 L 521.445312 430.074219 " fill-opacity="1" fill-rule="nonzero"/><path fill="#4a5565" d="M 446.917969 489.640625 L 431.425781 498.585938 L 446.917969 507.527344 L 462.414062 498.585938 L 446.917969 489.640625 " fill-opacity="1" fill-rule="nonzero"/><path fill="#a8e1d8" d="M 268.792969 304.140625 L 268.792969 473.960938 L 385.425781 541.273438 L 385.425781 371.457031 L 268.792969 304.140625 " fill-opacity="1" fill-rule="nonzero"/><path fill="#96dbd1" d="M 385.425781 371.457031 L 385.425781 541.273438 L 796.292969 304.140625 L 796.292969 134.324219 L 385.425781 371.457031 " fill-opacity="1" fill-rule="nonzero"/><g clip-path="url(#28b4cf5891)"><path fill="#ade3dd" d="M 679.648438 67.007812 L 268.792969 304.140625 L 385.425781 371.457031 L 796.292969 134.324219 L 679.648438 67.007812 " fill-opacity="1" fill-rule="nonzero"/></g><path fill="#5ebe95" d="M 483.035156 345.089844 L 401.359375 392.234375 L 401.359375 382.101562 L 483.035156 334.957031 L 483.035156 345.089844 " fill-opacity="1" fill-rule="nonzero"/><path fill="#5ebe95" d="M 461.234375 374.183594 L 401.359375 408.738281 L 401.359375 398.613281 L 461.234375 364.058594 L 461.234375 374.183594 " fill-opacity="1" fill-rule="nonzero"/><path fill="#5ebe95" d="M 438.40625 403.867188 L 401.359375 425.25 L 401.359375 415.117188 L 438.40625 393.738281 L 438.40625 403.867188 " fill-opacity="1" fill-rule="nonzero"/><path fill="#273e7e" d="M 432.957031 521.136719 C 413.089844 545.980469 412.578125 574.703125 412.578125 574.703125 L 308.570312 631.832031 L 308.570312 592.886719 L 432.957031 521.136719 " fill-opacity="1" fill-rule="nonzero"/><path fill="#343b43" d="M 21.882812 458.046875 L 15.128906 451.355469 C 12.863281 449.117188 7.609375 440.867188 8.21875 435.714844 L 12.4375 398.351562 C 13.046875 393.210938 20.167969 387.738281 22.429688 389.976562 L 29.179688 396.660156 C 31.441406 398.902344 32.777344 404.886719 32.164062 410.035156 L 27.082031 452.78125 C 26.472656 457.933594 24.144531 460.28125 21.882812 458.046875 " fill-opacity="1" fill-rule="nonzero"/><path fill="#4c5661" d="M 16.226562 449.480469 L 10.734375 444.035156 C 8.886719 442.214844 7.796875 437.339844 8.296875 433.144531 L 12.4375 398.351562 C 12.933594 394.164062 14.832031 392.246094 16.675781 394.074219 L 22.164062 399.511719 C 24.011719 401.339844 25.101562 406.214844 24.601562 410.402344 L 20.460938 445.195312 C 19.964844 449.390625 18.066406 451.300781 16.226562 449.480469 " fill-opacity="1" fill-rule="nonzero"/><path fill="#4c5661" d="M 16.191406 485.8125 L 10.378906 465.378906 C 9.75 463.203125 9.609375 460.871094 9.960938 458.628906 L 20.917969 388.726562 C 21.460938 385.269531 23.542969 382.332031 26.625 380.683594 C 29.71875 379.015625 33.308594 378.917969 36.496094 380.375 L 52.390625 387.679688 L 50.753906 391.242188 L 34.847656 383.941406 C 32.796875 383.007812 30.476562 383.070312 28.480469 384.140625 C 26.492188 385.207031 25.152344 387.105469 24.800781 389.332031 L 13.84375 459.234375 C 13.574219 460.941406 13.679688 462.648438 14.152344 464.296875 L 19.964844 484.738281 L 16.191406 485.8125 " fill-opacity="1" fill-rule="nonzero"/><path fill="#2552ab" d="M 314.371094 392.519531 C 299.679688 400.964844 154.871094 733.109375 153.859375 733.707031 C 103.25 742.742188 0.902344 694.644531 4.113281 648.160156 C 6.019531 620.925781 6.792969 597.328125 7.503906 573.195312 L 7.566406 573.195312 C 7.683594 569.742188 10.953125 567.601562 12.445312 566.828125 C 11.902344 563.917969 12.085938 560.167969 12.5625 556.78125 C 10.660156 554.875 9.167969 552.917969 8.21875 550.835938 L 8.21875 550.78125 C 8.277344 549.050781 8.339844 547.332031 8.394531 545.546875 C 8.699219 536.035156 9.113281 526.160156 9.582031 515.820312 C 10.003906 506.546875 10.417969 497.335938 10.832031 488.117188 C 11.074219 482.292969 11.367188 476.460938 11.726562 470.578125 C 12.378906 458.453125 15.832031 444.660156 18.269531 431.875 C 21.539062 414.816406 28.441406 398.050781 39.199219 381.996094 C 39.972656 380.871094 40.746094 379.742188 41.582031 378.667969 C 59.953125 352.984375 82.375 340.804688 104.140625 329.027344 C 114.429688 323.5 124.65625 318.207031 134.890625 312.742188 C 145.355469 307.210938 156.355469 300.019531 163.964844 305.722656 C 171.761719 311.546875 314.371094 392.519531 314.371094 392.519531 " fill-opacity="1" fill-rule="nonzero"/><path fill="#2e5ab1" d="M 338.289062 322.65625 L 229.117188 259.640625 C 229.117188 259.640625 191.285156 252.550781 159.207031 326.449219 L 268.378906 389.457031 L 338.289062 322.65625 " fill-opacity="1" fill-rule="nonzero"/><path fill="#273e7e" d="M 312.375 567.621094 L 338.289062 556.121094 L 338.289062 322.65625 C 338.289062 322.65625 300.453125 315.566406 268.378906 389.457031 L 291.21875 379.355469 L 314.371094 392.519531 L 312.375 567.621094 " fill-opacity="1" fill-rule="nonzero"/><path fill="#2b2625" d="M 264.53125 694.652344 L 323.621094 595.421875 L 303.214844 583.789062 C 302.253906 583.113281 301.234375 582.53125 300.167969 582.039062 C 292.933594 578.722656 283.398438 579.628906 272.910156 585.679688 C 250.335938 598.710938 232.035156 630.398438 232.035156 656.464844 C 232.035156 668.867188 236.214844 677.703125 242.992188 682.214844 L 242.992188 682.222656 L 243.054688 682.257812 C 243.703125 682.6875 244.367188 683.066406 245.058594 683.410156 L 264.53125 694.652344 " fill-opacity="1" fill-rule="nonzero"/><path fill="#393432" d="M 335.398438 621.75 C 335.398438 647.808594 317.097656 679.496094 294.523438 692.527344 C 271.949219 705.554688 253.644531 694.996094 253.644531 668.929688 C 253.644531 642.875 271.949219 611.183594 294.523438 598.15625 C 317.097656 585.125 335.398438 595.691406 335.398438 621.75 " fill-opacity="1" fill-rule="nonzero"/><path fill="#23201e" d="M 320.238281 636.28125 C 320.238281 649.375 310.996094 665.382812 299.695312 671.886719 C 289.246094 677.964844 280.601562 673.9375 279.230469 663.152344 C 279.144531 662.128906 279.0625 661.101562 279.0625 659.984375 C 279.0625 646.886719 288.308594 630.976562 299.695312 624.382812 C 300.636719 623.78125 301.578125 623.351562 302.519531 623.015625 C 312.535156 618.820312 320.238281 624.292969 320.238281 636.28125 " fill-opacity="1" fill-rule="nonzero"/><path fill="#72b49a" d="M 305.945312 632.597656 C 305.945312 643.214844 298.492188 656.050781 289.335938 661.355469 C 285.476562 663.582031 281.96875 664.09375 279.230469 663.152344 C 279.144531 662.128906 279.0625 661.101562 279.0625 659.984375 C 279.0625 646.886719 288.308594 630.976562 299.695312 624.382812 C 300.636719 623.78125 301.578125 623.351562 302.519531 623.015625 C 304.65625 624.980469 305.945312 628.234375 305.945312 632.597656 " fill-opacity="1" fill-rule="nonzero"/><path fill="#273e7e" d="M 319.957031 427.898438 L 319.957031 517.960938 C 319.957031 528.78125 319.359375 558.382812 319.359375 567.363281 C 319.359375 568.667969 319.359375 572.953125 319.359375 572.953125 C 319.359375 572.953125 314.308594 576.222656 313.054688 576.9375 C 308.601562 579.488281 304.199219 582.109375 299.792969 584.605469 C 285.046875 593.046875 271.433594 605.886719 260.960938 625.445312 C 256.148438 634.480469 252.457031 644.050781 250.082031 653.5625 C 247.460938 664.207031 247.285156 673.480469 247.285156 682.996094 C 247.285156 684.597656 247.285156 694.109375 247.285156 694.109375 L 246.632812 694.46875 C 245.683594 695.535156 243.539062 696.253906 242.527344 696.851562 C 241.699219 697.320312 240.742188 697.855469 239.675781 698.390625 C 239.195312 698.628906 238.726562 698.867188 238.183594 699.167969 C 215.882812 710.402344 153.804688 734.65625 153.859375 733.707031 C 156.121094 685.785156 157.726562 650.480469 159.988281 602.617188 C 160.402344 593.34375 160.816406 584.132812 161.230469 574.859375 C 161.472656 569.027344 161.773438 563.203125 162.066406 557.378906 C 162.777344 545.25 166.230469 531.460938 168.667969 518.671875 C 171.9375 501.613281 178.835938 484.847656 189.597656 468.792969 C 190.96875 466.714844 192.394531 464.753906 193.886719 462.851562 C 211.90625 438.890625 233.550781 427.179688 254.539062 415.828125 C 264.828125 410.296875 275.054688 405.007812 285.289062 399.53125 C 295.753906 394.011719 306.757812 386.816406 314.371094 392.519531 C 322.15625 398.347656 319.957031 415.171875 319.957031 427.898438 " fill-opacity="1" fill-rule="nonzero"/><path fill="#1e2b54" d="M 314.371094 392.519531 C 312.253906 390.941406 309.867188 390.414062 307.3125 390.503906 C 308.003906 390.820312 308.707031 391.09375 309.351562 391.585938 C 317.140625 397.507812 314.941406 414.609375 314.941406 427.546875 L 314.941406 519.113281 C 314.941406 530.117188 314.347656 560.214844 314.347656 569.34375 C 314.347656 570.671875 314.347656 575.019531 314.347656 575.019531 C 314.347656 575.019531 313.113281 575.835938 311.714844 576.742188 L 311.714844 577.710938 C 312.164062 577.453125 312.605469 577.191406 313.054688 576.9375 C 314.308594 576.222656 319.359375 572.953125 319.359375 572.953125 C 319.359375 572.953125 319.359375 568.667969 319.359375 567.363281 C 319.359375 558.382812 319.957031 528.78125 319.957031 517.960938 L 319.957031 427.898438 C 319.957031 415.171875 322.15625 398.347656 314.371094 392.519531 " fill-opacity="1" fill-rule="nonzero"/><path fill="#152133" d="M 186.785156 534.726562 C 187.195312 514.429688 190.035156 501.421875 201.757812 479.578125 C 206.734375 469.308594 214.273438 461.769531 221.035156 457.90625 L 262.851562 436.988281 C 265.371094 436.019531 268.425781 437.425781 268.378906 439.488281 L 267.542969 499.625 C 267.511719 501.972656 265.988281 504.105469 263.515625 505.230469 L 191.839844 538.050781 C 189.578125 539.171875 186.351562 537.046875 186.785156 534.726562 " fill-opacity="1" fill-rule="nonzero"/><path fill="#1bb4cd" d="M 206.734375 477.640625 C 208.980469 472.496094 216.734375 463.539062 222.714844 460.160156 L 264.671875 439.371094 L 263.605469 499.546875 C 263.589844 500.726562 262.804688 501.816406 261.554688 502.394531 L 192.140625 534.613281 C 191.136719 535.054688 190.011719 534.253906 190.089844 533.195312 C 191.59375 512.828125 192.710938 499.996094 206.734375 477.640625 " fill-opacity="1" fill-rule="nonzero"/><path fill="#10172a" d="M 180.53125 522.289062 L 180.53125 612.972656 L 223.679688 597.214844 L 223.679688 612.820312 L 244.046875 602.441406 C 249.15625 588.230469 269.902344 574.675781 272.996094 572.714844 L 272.996094 428.023438 C 267.265625 430.40625 238.832031 442.40625 219.019531 453.84375 C 201.890625 463.730469 182.835938 497.621094 180.53125 522.289062 Z M 222.1875 615.242188 L 222.1875 599.34375 L 179.042969 615.097656 L 179.046875 522.183594 C 181.417969 496.660156 200.476562 462.824219 218.273438 452.558594 C 240.378906 439.796875 273.128906 426.351562 273.460938 426.226562 L 274.484375 425.804688 L 274.484375 573.542969 L 274.125 573.761719 C 273.894531 573.910156 250.398438 588.574219 245.351562 603.207031 L 245.253906 603.488281 L 222.1875 615.242188 " fill-opacity="1" fill-rule="nonzero"/><path fill="#191f24" d="M 156.535156 611.828125 L 156.535156 629.191406 C 154.75 628.121094 152.910156 627.171875 151.003906 626.273438 C 150.824219 626.21875 150.589844 626.097656 150.410156 626.042969 C 147.96875 624.792969 145.472656 623.722656 142.980469 622.832031 L 142.859375 622.769531 C 133.640625 619.445312 124.304688 617.957031 116.8125 619.207031 C 113.894531 619.621094 111.28125 620.449219 109.019531 621.820312 C 106.699219 623.125 104.738281 624.910156 103.25 627.230469 C 102.300781 628.71875 101.527344 630.496094 100.992188 632.464844 C 100.753906 633.355469 100.515625 634.367188 100.394531 635.375 C 100.15625 637.332031 99.152344 638.582031 97.78125 639.0625 C 96.472656 639.476562 94.808594 639.238281 93.023438 638.234375 L 73.21875 626.753906 L 53.417969 615.34375 C 51.6875 614.332031 50.023438 612.722656 48.78125 610.824219 C 47.347656 608.738281 46.339844 606.308594 46.039062 603.988281 C 45.917969 602.792969 45.742188 601.605469 45.566406 600.476562 C 45.273438 597.980469 44.851562 595.605469 44.371094 593.289062 C 43.71875 589.773438 42.890625 586.445312 41.820312 583.242188 C 40.984375 580.261719 39.917969 577.472656 38.664062 574.730469 C 37.957031 573.066406 37.121094 571.464844 36.226562 569.863281 C 34.089844 565.9375 31.46875 562.367188 28.496094 558.980469 L 28.441406 558.921875 L 15.058594 547.863281 C 14.761719 547.683594 14.40625 547.386719 14.109375 547.09375 C 13.214844 546.4375 12.324219 545.90625 11.367188 545.363281 L 11.367188 528.066406 C 42.292969 556.367188 90.226562 584.308594 156.535156 611.828125 " fill-opacity="1" fill-rule="nonzero"/><path fill="#070809" d="M 156.859375 622.355469 L 156.859375 628.71875 C 90.554688 601.191406 42.621094 573.25 11.699219 544.894531 L 11.699219 538.589844 C 42.621094 566.890625 90.554688 594.828125 156.859375 622.355469 " fill-opacity="1" fill-rule="nonzero"/><path fill="#070809" d="M 116.8125 619.207031 C 113.894531 619.621094 111.28125 620.449219 109.019531 621.820312 C 82.851562 609.097656 60.496094 596.195312 41.820312 583.242188 C 40.984375 580.261719 39.917969 577.472656 38.664062 574.730469 C 59.777344 589.65625 85.769531 604.523438 116.8125 619.207031 " fill-opacity="1" fill-rule="nonzero"/><path fill="#070809" d="M 103.25 627.230469 C 102.300781 628.71875 101.527344 630.496094 100.992188 632.464844 C 79.9375 621.875 61.445312 611.183594 45.566406 600.476562 C 45.273438 597.980469 44.851562 595.605469 44.371094 593.289062 C 61.148438 604.699219 80.714844 615.996094 103.25 627.230469 " fill-opacity="1" fill-rule="nonzero"/><path fill="#b5ccbc" d="M 84.160156 596.335938 C 84.160156 603.308594 79.269531 606.132812 73.230469 602.644531 C 67.195312 599.160156 62.300781 590.6875 62.300781 583.71875 C 62.300781 576.753906 67.195312 573.929688 73.230469 577.417969 C 79.269531 580.902344 84.160156 589.375 84.160156 596.335938 " fill-opacity="1" fill-rule="nonzero"/><path fill="#1c284c" d="M 146.207031 711.316406 L 108.386719 700.003906 C 105.425781 699.140625 103.382812 695.578125 104.378906 693.125 L 110.628906 676.671875 C 111.167969 675.175781 112.679688 674.5 114.421875 674.964844 L 147.316406 684.210938 C 149.839844 685.234375 151.949219 688.203125 151.882812 690.617188 L 150.476562 708.925781 C 150.183594 711.175781 148.328125 712.203125 146.207031 711.316406 " fill-opacity="1" fill-rule="nonzero"/><path fill="#9eb6a5" d="M 109.238281 697.160156 C 108.484375 696.941406 107.746094 696.265625 107.351562 695.453125 C 107.050781 694.820312 107.078125 694.398438 107.136719 694.257812 L 113.40625 677.726562 L 146.515625 687.070312 C 147.667969 687.5625 148.9375 689.457031 148.910156 690.535156 L 147.519531 708.632812 L 109.238281 697.160156 " fill-opacity="1" fill-rule="nonzero"/><path fill="#1c284c" d="M 8.101562 636.140625 L 24.066406 655.171875 C 25.71875 656.730469 26.867188 654.882812 26.316406 651.625 L 25.199219 631.59375 C 25.25 629.863281 24.777344 628.152344 24.011719 627.285156 L 10.1875 611.695312 C 8.976562 610.5 7.902344 611.386719 7.867188 613.621094 L 6.898438 630.453125 C 6.730469 632.570312 7.257812 635.050781 8.101562 636.140625 " fill-opacity="1" fill-rule="nonzero"/><path fill="#9eb6a5" d="M 8.648438 633.757812 C 8.421875 633.417969 7.890625 631.488281 8.035156 629.554688 L 8.992188 613.007812 L 22.164062 627.863281 C 22.304688 628.058594 22.726562 629.078125 22.683594 630.546875 L 23.855469 651.914062 L 8.648438 633.757812 " fill-opacity="1" fill-rule="nonzero"/><path fill="#b9cebf" d="M 131.65625 694.089844 C 131.292969 698.824219 126.792969 701.148438 121.613281 699.289062 C 116.425781 697.425781 112.519531 692.078125 112.878906 687.351562 C 113.242188 682.617188 117.734375 680.289062 122.921875 682.152344 C 128.109375 684.015625 132.015625 689.359375 131.65625 694.089844 " fill-opacity="1" fill-rule="nonzero"/><path fill="#bae7d1" d="M 127.496094 692.597656 C 127.292969 695.234375 124.789062 696.535156 121.902344 695.492188 C 119.011719 694.453125 116.835938 691.476562 117.039062 688.839844 C 117.234375 686.207031 119.742188 684.90625 122.632812 685.945312 C 125.515625 686.984375 127.691406 689.964844 127.496094 692.597656 " fill-opacity="1" fill-rule="nonzero"/><path fill="#b9cebf" d="M 147.5 695.769531 C 147.21875 699.40625 143.757812 701.199219 139.773438 699.765625 C 135.789062 698.332031 132.78125 694.222656 133.0625 690.582031 C 133.335938 686.949219 136.792969 685.160156 140.78125 686.59375 C 144.765625 688.019531 147.773438 692.136719 147.5 695.769531 " fill-opacity="1" fill-rule="nonzero"/><path fill="#bae7d1" d="M 144.300781 694.621094 C 144.144531 696.644531 142.21875 697.644531 140 696.851562 C 137.777344 696.050781 136.105469 693.757812 136.261719 691.734375 C 136.414062 689.703125 138.332031 688.707031 140.5625 689.507812 C 142.78125 690.300781 144.457031 692.597656 144.300781 694.621094 " fill-opacity="1" fill-rule="nonzero"/><path fill="#b9cebf" d="M 22.597656 635.527344 C 23.40625 641.203125 21.734375 645.167969 18.859375 644.386719 C 15.980469 643.609375 12.984375 638.375 12.175781 632.695312 C 11.359375 627.027344 13.035156 623.054688 15.914062 623.835938 C 18.789062 624.617188 21.785156 629.851562 22.597656 635.527344 " fill-opacity="1" fill-rule="nonzero"/><path fill="#bae7d1" d="M 20.285156 634.902344 C 20.742188 638.0625 19.808594 640.269531 18.207031 639.839844 C 16.605469 639.398438 14.9375 636.484375 14.480469 633.320312 C 14.03125 630.167969 14.960938 627.953125 16.570312 628.390625 C 18.171875 628.824219 19.835938 631.742188 20.285156 634.902344 " fill-opacity="1" fill-rule="nonzero"/><path fill="#b9cebf" d="M 11.3125 626.71875 C 10.207031 627.320312 9.0625 625.675781 8.761719 623.042969 C 8.457031 620.40625 9.113281 617.789062 10.214844 617.183594 C 11.320312 616.570312 12.457031 618.222656 12.757812 620.851562 C 13.070312 623.484375 12.414062 626.113281 11.3125 626.71875 " fill-opacity="1" fill-rule="nonzero"/><path fill="#bae7d1" d="M 11.066406 624.601562 C 10.453125 624.941406 9.816406 624.027344 9.644531 622.558594 C 9.476562 621.089844 9.84375 619.628906 10.453125 619.289062 C 11.074219 618.953125 11.707031 619.875 11.875 621.335938 C 12.042969 622.804688 11.683594 624.265625 11.066406 624.601562 " fill-opacity="1" fill-rule="nonzero"/><path fill="#191f24" d="M 107.59375 665.753906 C 107.59375 666.464844 107.527344 667.179688 107.234375 667.894531 L 105.871094 671.523438 L 104.324219 675.441406 L 102.117188 681.089844 L 99.269531 688.460938 L 97.128906 694.054688 C 96.050781 696.90625 92.726562 698.09375 90.050781 696.546875 C 67.566406 688.40625 48.007812 678.476562 34.863281 664.683594 C 32.71875 663.496094 31.414062 661.234375 31.292969 658.796875 L 31.292969 658.4375 L 30.878906 649.46875 L 30.695312 645.484375 L 30.28125 636.320312 L 30.042969 631.277344 L 29.691406 623.429688 C 29.691406 622.832031 29.804688 622.234375 30.042969 621.765625 C 30.878906 620.335938 32.777344 619.683594 34.386719 620.570312 C 48.835938 637.875 72.625 651.308594 104.914062 661.292969 C 106.523438 662.183594 107.527344 663.914062 107.527344 665.753906 L 107.59375 665.753906 " fill-opacity="1" fill-rule="nonzero"/><path fill="#050606" d="M 107.59375 665.753906 C 107.59375 666.464844 107.527344 667.179688 107.234375 667.894531 L 105.871094 671.523438 C 85.53125 668.375 50.324219 654.398438 30.042969 631.277344 L 29.691406 623.429688 C 29.691406 622.832031 29.804688 622.234375 30.042969 621.765625 C 47.765625 646.550781 86.421875 662.84375 107.527344 665.753906 L 107.59375 665.753906 " fill-opacity="1" fill-rule="nonzero"/><path fill="#050606" d="M 104.324219 675.441406 L 102.117188 681.089844 C 83.863281 678.597656 51.929688 666.167969 30.695312 645.484375 L 30.28125 636.320312 C 50.144531 658.917969 85.648438 673.417969 104.324219 675.441406 " fill-opacity="1" fill-rule="nonzero"/><path fill="#050606" d="M 99.269531 688.460938 L 97.128906 694.054688 C 78.691406 689.65625 50.742188 677.171875 31.292969 658.4375 L 30.878906 649.46875 C 49.371094 669.855469 80 684.125 99.269531 688.460938 " fill-opacity="1" fill-rule="nonzero"/><g clip-path="url(#1d360f994a)"><path fill="#3f6356" d="M 5.121094 632.464844 C 4.839844 637.179688 14.417969 648.714844 18.804688 653.640625 C 21.59375 656.78125 24.414062 658.425781 26.289062 658.601562 C 27.632812 658.726562 28.734375 659.597656 29.289062 660.820312 C 31.265625 665.164062 37.546875 673.558594 57.4375 684.871094 C 81.75 698.691406 92.382812 700.917969 97.613281 699.054688 C 99.296875 698.460938 101.105469 698.703125 102.398438 699.941406 C 104.835938 702.265625 110.269531 705.695312 122.265625 708.632812 C 141.503906 713.347656 153.207031 717.929688 154.84375 710.144531 C 155.03125 709.214844 155.511719 708.351562 156.332031 707.878906 L 165.738281 702.449219 C 166.371094 702.085938 167.164062 702.519531 167.164062 703.257812 C 167.136719 708.042969 167.066406 722.09375 167.171875 729.023438 C 167.304688 737.453125 151.414062 740.191406 126.203125 737.453125 C 101 734.71875 72.964844 725.953125 44.371094 709.519531 C 15.789062 693.085938 -0.101562 667.410156 0.179688 655.734375 C 0.453125 644.058594 0.488281 635.132812 5.121094 632.464844 " fill-opacity="1" fill-rule="nonzero"/></g><path fill="#233466" d="M 238.183594 658.4375 L 237.953125 686.445312 L 179.667969 712.484375 L 179.785156 700.945312 L 179.90625 684.484375 L 228.4375 662.78125 L 238.183594 658.4375 " fill-opacity="1" fill-rule="nonzero"/><path fill="#192343" d="M 228.4375 662.78125 L 228.316406 679.25 L 179.785156 700.945312 L 179.90625 684.484375 L 228.4375 662.78125 " fill-opacity="1" fill-rule="nonzero"/><path fill="#618095" d="M 228.316406 679.25 L 237.953125 686.445312 L 179.667969 712.484375 L 179.785156 700.945312 L 226.890625 679.257812 L 228.316406 679.25 " fill-opacity="1" fill-rule="nonzero"/><path fill="#7ba5bd" d="M 226.890625 679.257812 L 235.816406 685.925781 L 179.679688 710.664062 L 179.785156 699.96875 L 226.890625 679.257812 " fill-opacity="1" fill-rule="nonzero"/><path fill="#233466" d="M 238.183594 625.214844 L 237.953125 653.210938 L 179.667969 679.25 L 179.785156 667.714844 L 179.90625 651.246094 L 228.4375 629.546875 L 238.183594 625.214844 " fill-opacity="1" fill-rule="nonzero"/><path fill="#192343" d="M 228.4375 629.546875 L 228.316406 646.015625 L 179.785156 667.714844 L 179.90625 651.246094 L 228.4375 629.546875 " fill-opacity="1" fill-rule="nonzero"/><path fill="#618095" d="M 228.316406 646.015625 L 237.953125 653.210938 L 179.667969 679.25 L 179.785156 667.714844 L 226.890625 646.023438 L 228.316406 646.015625 " fill-opacity="1" fill-rule="nonzero"/><path fill="#7ba5bd" d="M 226.890625 646.023438 L 235.816406 652.691406 L 179.679688 677.429688 L 179.785156 666.742188 L 226.890625 646.023438 " fill-opacity="1" fill-rule="nonzero"/><path fill="#10172a" d="M 319.480469 555.789062 C 269.839844 580.902344 238.183594 621.308594 238.183594 658.4375 L 238.183594 699.167969 C 238.726562 698.867188 239.195312 698.628906 239.675781 698.390625 L 239.675781 658.4375 C 239.675781 621.863281 270.308594 582.355469 319.453125 557.492188 L 319.480469 555.789062 " fill-opacity="1" fill-rule="nonzero"/><path fill="#192343" d="M 213.921875 614.808594 L 213.210938 627.40625 C 213.148438 629.253906 211.960938 630.855469 210.238281 631.507812 L 166.828125 649.585938 C 160.339844 652.023438 153.269531 652.199219 146.726562 650.175781 L 121.804688 642.566406 C 117.699219 641.324219 115.679688 636.6875 117.523438 632.816406 C 119.363281 629.191406 122.226562 626.160156 126.386719 625.390625 C 127.335938 625.207031 128.347656 625.148438 129.476562 625.207031 C 134.171875 625.566406 141.726562 627.882812 147.96875 630.082031 C 154.992188 632.578125 162.660156 632.519531 169.617188 629.84375 L 206.492188 614.035156 L 210.472656 612.308594 C 212.199219 611.597656 214.042969 612.960938 213.921875 614.808594 " fill-opacity="1" fill-rule="nonzero"/><path fill="#0f1526" d="M 206.492188 614.035156 L 205.953125 623.070312 C 205.832031 624.910156 204.644531 626.511719 202.921875 627.171875 L 162.839844 643.515625 C 157.726562 645.484375 152.3125 645.363281 147.433594 643.222656 L 127.8125 637.332031 C 124.003906 636.625 122.042969 632.878906 123.707031 629.429688 C 124.425781 627.941406 125.316406 626.578125 126.386719 625.390625 C 127.335938 625.207031 128.347656 625.148438 129.476562 625.207031 C 134.171875 625.566406 141.726562 627.882812 147.96875 630.082031 C 154.992188 632.578125 162.660156 632.519531 169.617188 629.84375 L 206.492188 614.035156 " fill-opacity="1" fill-rule="nonzero"/><path fill="#192343" d="M 35.09375 586.800781 C 35.160156 590.609375 34.679688 593.464844 33.613281 592.867188 C 22.84375 586.800781 11.605469 578.777344 7.566406 573.195312 C 7.683594 569.742188 10.953125 567.601562 12.445312 566.828125 C 11.902344 563.917969 12.085938 560.167969 12.5625 556.78125 C 13.390625 557.617188 14.230469 558.445312 15.175781 559.21875 C 20.46875 563.976562 27.363281 568.492188 31.828125 573.367188 C 33.972656 575.6875 35.039062 581.988281 35.09375 586.800781 " fill-opacity="1" fill-rule="nonzero"/><path fill="#0f1526" d="M 35.09375 586.800781 C 25.882812 581.273438 17.257812 574.675781 13.75 569.984375 C 13.152344 569.148438 12.738281 568.078125 12.445312 566.828125 C 11.902344 563.917969 12.085938 560.167969 12.5625 556.78125 C 13.390625 557.617188 14.230469 558.445312 15.175781 559.21875 C 20.46875 563.976562 27.363281 568.492188 31.828125 573.367188 C 33.972656 575.6875 35.039062 581.988281 35.09375 586.800781 " fill-opacity="1" fill-rule="nonzero"/><path fill="#0f1526" d="M 7.503906 573.128906 L 7.566406 573.195312 L 7.503906 573.195312 Z M 7.503906 573.128906 " fill-opacity="1" fill-rule="nonzero"/><path fill="#343b43" d="M 241.425781 556.90625 L 241.347656 557.300781 C 241.183594 561.929688 237.496094 564.832031 233.027344 563.738281 L 219.046875 560.597656 C 214.414062 559.5 210.570312 554.707031 210.570312 549.921875 L 210.570312 547.722656 L 210.484375 543.640625 L 210.484375 542.074219 L 210.410156 533.519531 L 210.410156 532.34375 L 210.332031 521.742188 L 210.332031 515.308594 L 210.253906 509.8125 C 210.253906 504.945312 214.019531 501.878906 218.652344 502.984375 L 232.632812 506.125 C 233.652344 506.363281 234.671875 506.828125 235.613281 507.382812 C 238.832031 509.339844 241.109375 513.109375 241.109375 516.796875 L 241.425781 556.90625 " fill-opacity="1" fill-rule="nonzero"/><path fill="#4c5661" d="M 235.613281 554.320312 C 235.613281 558.242188 232.554688 560.757812 228.78125 559.894531 L 217.394531 557.300781 C 213.867188 556.515625 210.878906 553.0625 210.570312 549.375 C 210.484375 549.136719 210.484375 548.90625 210.484375 548.664062 L 210.484375 543.640625 L 210.410156 542.074219 L 210.410156 532.34375 L 210.332031 521.742188 L 210.253906 515.9375 C 210.253906 515.699219 210.253906 515.460938 210.332031 515.308594 C 210.648438 511.773438 213.550781 509.65625 217.085938 510.4375 L 225.800781 512.40625 L 228.472656 513.03125 C 232.238281 513.894531 235.378906 517.746094 235.378906 521.664062 L 235.535156 546.78125 L 235.613281 554.320312 " fill-opacity="1" fill-rule="nonzero"/><path fill="#4c5661" d="M 212.453125 573.195312 C 211.714844 573.195312 210.972656 573.125 210.234375 572.988281 L 165.117188 564.882812 C 162.425781 564.398438 163.121094 560.53125 165.8125 561.015625 L 210.929688 569.125 C 213.421875 569.582031 215.96875 568.90625 217.90625 567.285156 C 219.855469 565.65625 220.972656 563.273438 220.972656 560.738281 L 220.972656 493.097656 C 220.972656 489.832031 219.066406 486.816406 216.128906 485.410156 L 192.578125 475.039062 C 190.449219 474.023438 192.136719 470.480469 194.273438 471.5 L 217.824219 481.871094 C 222.117188 483.929688 224.894531 488.335938 224.894531 493.097656 L 224.894531 560.738281 C 224.894531 564.4375 223.261719 567.917969 220.429688 570.292969 C 218.167969 572.183594 215.347656 573.195312 212.453125 573.195312 " fill-opacity="1" fill-rule="nonzero"/><path fill="#191f24" d="M 193.878906 462.851562 C 192.394531 464.753906 190.96875 466.714844 189.597656 468.792969 C 178.835938 484.847656 171.9375 501.613281 168.667969 518.671875 C 166.230469 531.460938 162.777344 545.25 162.066406 557.378906 L 162.054688 557.554688 C 161.652344 565.449219 153.070312 570.152344 146.226562 566.195312 L 16.40625 491.328125 C 12.984375 489.351562 10.933594 485.644531 11.121094 481.703125 C 11.296875 478.007812 11.5 474.304688 11.726562 470.578125 C 12.378906 458.453125 15.832031 444.660156 18.269531 431.875 C 21.769531 413.621094 29.421875 395.703125 41.519531 378.636719 L 193.878906 462.851562 " fill-opacity="1" fill-rule="nonzero"/><path fill="#3abfda" d="M 184.664062 463.566406 C 183.890625 464.636719 183.117188 465.703125 182.40625 466.835938 C 171.824219 482.585938 164.800781 499.351562 161.472656 516.710938 C 160.878906 519.859375 160.226562 523.015625 159.574219 526.226562 C 157.550781 535.859375 155.523438 545.839844 154.992188 554.941406 C 154.75 559.578125 151.003906 562.253906 147.5 562.253906 C 146.246094 562.253906 144.996094 561.894531 143.808594 561.242188 L 98.195312 534.902344 L 85.945312 527.890625 L 69.828125 518.550781 L 49.550781 506.902344 L 41.878906 502.441406 L 26.359375 493.527344 L 16.78125 487.996094 C 14.339844 486.570312 12.914062 483.957031 13.035156 481.214844 C 13.214844 477.589844 13.390625 473.964844 13.632812 470.339844 C 14.109375 461.601562 16.125 451.792969 18.085938 442.277344 C 18.746094 439.066406 19.402344 435.921875 19.992188 432.828125 C 23.265625 415.828125 30.226562 399.421875 40.808594 384.019531 L 78.988281 405.125 L 97.128906 415.171875 L 106.523438 420.34375 L 123.652344 429.855469 L 143.929688 441.035156 L 156.355469 447.929688 L 184.664062 463.566406 " fill-opacity="1" fill-rule="nonzero"/><path fill="#41c1d9" d="M 41.878906 502.441406 L 26.359375 493.527344 C 32.65625 480.507812 39.734375 467.542969 47.289062 454.765625 C 57.21875 437.347656 67.925781 420.757812 78.988281 405.125 L 97.128906 415.171875 C 77.496094 443.289062 59.246094 473.488281 41.878906 502.441406 " fill-opacity="1" fill-rule="nonzero"/><path fill="#41c1d9" d="M 98.195312 534.902344 L 85.945312 527.890625 C 102.417969 500.539062 121.867188 469.804688 143.929688 441.035156 L 156.355469 447.929688 C 133.34375 474.800781 113.539062 505.890625 98.195312 534.902344 " fill-opacity="1" fill-rule="nonzero"/><path fill="#41c1d9" d="M 69.828125 518.550781 L 49.550781 506.902344 C 67.152344 479.375 86.066406 448.167969 106.523438 420.34375 L 123.652344 429.855469 C 108.539062 449.648438 94.394531 471.886719 81.902344 495.726562 C 77.558594 503.867188 73.574219 511.476562 69.828125 518.550781 " fill-opacity="1" fill-rule="nonzero"/><path fill="#262d36" d="M 193.886719 462.851562 C 196.792969 464.53125 185.078125 476.902344 182.667969 487.96875 C 180.257812 499.027344 25.171875 412.304688 21.785156 408.582031 C 18.390625 404.859375 29.113281 386.035156 41.519531 378.636719 L 193.886719 462.851562 " fill-opacity="1" fill-rule="nonzero"/><path fill="#101417" d="M 134.867188 456.570312 L 134.867188 462.617188 L 110.425781 449.148438 L 110.425781 440.050781 L 105.960938 440.050781 L 105.960938 446.691406 L 85.320312 435.316406 L 85.320312 425.640625 L 80.863281 425.640625 L 80.863281 432.855469 L 58.359375 420.457031 L 58.359375 410.316406 L 53.894531 410.316406 L 53.894531 423.089844 L 139.332031 470.164062 L 139.332031 456.570312 L 134.867188 456.570312 " fill-opacity="1" fill-rule="nonzero"/><path fill="#101417" d="M 61.667969 386.984375 C 55.105469 384.566406 45.8125 388.628906 45.714844 396.195312 C 45.625 403.304688 50.8125 412.390625 57.664062 414.96875 C 64.507812 417.554688 71.71875 410.191406 72.238281 403.707031 C 72.808594 396.703125 68.289062 389.429688 61.667969 386.984375 " fill-opacity="1" fill-rule="nonzero"/><path fill="#262d36" d="M 65.949219 407.871094 C 65.949219 414.132812 61.550781 416.667969 56.125 413.542969 C 50.707031 410.410156 46.304688 402.792969 46.304688 396.53125 C 46.304688 390.273438 50.707031 387.730469 56.125 390.863281 C 61.550781 393.996094 65.949219 401.605469 65.949219 407.871094 " fill-opacity="1" fill-rule="nonzero"/><path fill="#9eb6a5" d="M 64.289062 407.710938 C 64.289062 413.351562 60.328125 415.636719 55.441406 412.820312 C 50.550781 409.996094 46.585938 403.128906 46.585938 397.488281 C 46.585938 391.847656 50.550781 389.554688 55.441406 392.378906 C 60.328125 395.207031 64.289062 402.0625 64.289062 407.710938 " fill-opacity="1" fill-rule="nonzero"/><path fill="#b9cebf" d="M 61.4375 402.449219 C 63.074219 406.910156 61.699219 410.621094 58.359375 410.738281 C 55.019531 410.859375 50.992188 407.347656 49.355469 402.882812 C 47.71875 398.421875 49.097656 394.714844 52.433594 394.59375 C 55.773438 394.472656 59.800781 397.988281 61.4375 402.449219 " fill-opacity="1" fill-rule="nonzero"/><path fill="#bae7d1" d="M 58.757812 402.546875 C 59.671875 405.027344 58.90625 407.101562 57.042969 407.164062 C 55.1875 407.226562 52.949219 405.273438 52.035156 402.785156 C 51.121094 400.304688 51.886719 398.234375 53.75 398.171875 C 55.605469 398.101562 57.851562 400.058594 58.757812 402.546875 " fill-opacity="1" fill-rule="nonzero"/><path fill="#101417" d="M 87.703125 402.011719 C 81.136719 399.589844 71.851562 403.648438 71.746094 411.21875 C 71.65625 418.335938 76.84375 427.417969 83.695312 429.996094 C 90.542969 432.574219 97.753906 425.214844 98.28125 418.726562 C 98.847656 411.722656 94.324219 404.453125 87.703125 402.011719 " fill-opacity="1" fill-rule="nonzero"/><path fill="#262d36" d="M 91.980469 422.894531 C 91.980469 429.160156 87.589844 431.699219 82.164062 428.5625 C 76.730469 425.4375 72.339844 417.820312 72.339844 411.5625 C 72.339844 405.292969 76.738281 402.757812 82.164062 405.890625 C 87.589844 409.019531 91.980469 416.632812 91.980469 422.894531 " fill-opacity="1" fill-rule="nonzero"/><path fill="#9eb6a5" d="M 90.324219 422.734375 C 90.324219 428.375 86.359375 430.664062 81.476562 427.839844 C 76.582031 425.023438 72.621094 418.160156 72.621094 412.515625 C 72.621094 406.867188 76.582031 404.585938 81.476562 407.410156 C 86.359375 410.226562 90.324219 417.089844 90.324219 422.734375 " fill-opacity="1" fill-rule="nonzero"/><path fill="#b9cebf" d="M 87.46875 417.476562 C 89.109375 421.933594 87.730469 425.648438 84.390625 425.769531 C 81.054688 425.886719 77.027344 422.367188 75.386719 417.90625 C 73.75 413.445312 75.128906 409.734375 78.46875 409.617188 C 81.804688 409.496094 85.832031 413.015625 87.46875 417.476562 " fill-opacity="1" fill-rule="nonzero"/><path fill="#bae7d1" d="M 84.792969 417.570312 C 85.707031 420.054688 84.941406 422.121094 83.078125 422.191406 C 81.222656 422.253906 78.972656 420.292969 78.066406 417.808594 C 77.152344 415.328125 77.917969 413.261719 79.78125 413.191406 C 81.636719 413.128906 83.886719 415.089844 84.792969 417.570312 " fill-opacity="1" fill-rule="nonzero"/><path fill="#101417" d="M 113.734375 417.035156 C 107.171875 414.617188 97.878906 418.679688 97.78125 426.246094 C 97.6875 433.355469 102.875 442.441406 109.730469 445.019531 C 116.574219 447.605469 123.785156 440.242188 124.304688 433.757812 C 124.875 426.75 120.355469 419.480469 113.734375 417.035156 " fill-opacity="1" fill-rule="nonzero"/><path fill="#262d36" d="M 118.015625 437.921875 C 118.015625 444.183594 113.617188 446.71875 108.191406 443.59375 C 102.761719 440.460938 98.371094 432.84375 98.371094 426.582031 C 98.371094 420.324219 102.761719 417.78125 108.191406 420.914062 C 113.617188 424.046875 118.015625 431.65625 118.015625 437.921875 " fill-opacity="1" fill-rule="nonzero"/><path fill="#9eb6a5" d="M 116.355469 437.761719 C 116.355469 443.402344 112.390625 445.6875 107.507812 442.871094 C 102.617188 440.042969 98.652344 433.1875 98.652344 427.539062 C 98.652344 421.898438 102.617188 419.605469 107.507812 422.429688 C 112.390625 425.253906 116.355469 432.113281 116.355469 437.761719 " fill-opacity="1" fill-rule="nonzero"/><path fill="#b9cebf" d="M 113.503906 432.5 C 115.140625 436.960938 113.761719 440.671875 110.425781 440.789062 C 107.085938 440.910156 103.058594 437.390625 101.421875 432.933594 C 99.785156 428.472656 101.160156 424.757812 104.5 424.644531 C 107.839844 424.523438 111.867188 428.039062 113.503906 432.5 " fill-opacity="1" fill-rule="nonzero"/><path fill="#bae7d1" d="M 110.824219 432.597656 C 111.738281 435.078125 110.972656 437.144531 109.109375 437.214844 C 107.253906 437.277344 105.003906 435.324219 104.097656 432.835938 C 103.183594 430.355469 103.953125 428.285156 105.8125 428.214844 C 107.667969 428.148438 109.910156 430.109375 110.824219 432.597656 " fill-opacity="1" fill-rule="nonzero"/><path fill="#101417" d="M 139.765625 432.0625 C 133.203125 429.640625 123.910156 433.699219 123.8125 441.265625 C 123.722656 448.378906 128.910156 457.46875 135.753906 460.046875 C 142.605469 462.625 149.8125 455.261719 150.339844 448.777344 C 150.90625 441.773438 146.386719 434.5 139.765625 432.0625 " fill-opacity="1" fill-rule="nonzero"/><path fill="#262d36" d="M 144.046875 452.945312 C 144.046875 459.210938 139.648438 461.746094 134.222656 458.613281 C 128.796875 455.480469 124.402344 447.871094 124.402344 441.613281 C 124.402344 435.34375 128.796875 432.808594 134.222656 435.933594 C 139.648438 439.066406 144.046875 446.683594 144.046875 452.945312 " fill-opacity="1" fill-rule="nonzero"/><path fill="#9eb6a5" d="M 142.390625 452.78125 C 142.390625 458.425781 138.425781 460.714844 133.539062 457.890625 C 128.648438 455.074219 124.683594 448.207031 124.683594 442.566406 C 124.683594 436.917969 128.648438 434.632812 133.539062 437.460938 C 138.425781 440.277344 142.390625 447.140625 142.390625 452.78125 " fill-opacity="1" fill-rule="nonzero"/><path fill="#b9cebf" d="M 139.535156 447.527344 C 141.171875 451.980469 139.796875 455.699219 136.457031 455.816406 C 133.117188 455.9375 129.089844 452.417969 127.453125 447.957031 C 125.816406 443.496094 127.195312 439.785156 130.53125 439.664062 C 133.871094 439.546875 137.898438 443.066406 139.535156 447.527344 " fill-opacity="1" fill-rule="nonzero"/><path fill="#bae7d1" d="M 136.859375 447.617188 C 137.769531 450.105469 137.003906 452.171875 135.144531 452.242188 C 133.289062 452.304688 131.039062 450.34375 130.132812 447.859375 C 129.21875 445.378906 129.984375 443.3125 131.847656 443.242188 C 133.703125 443.179688 135.949219 445.136719 136.859375 447.617188 " fill-opacity="1" fill-rule="nonzero"/><path fill="#2648a1" d="M 268.378906 389.457031 C 278.582031 389.457031 309.351562 389.457031 309.351562 389.457031 L 291.21875 379.355469 L 268.378906 389.457031 " fill-opacity="1" fill-rule="nonzero"/><g fill="#3c5e91" fill-opacity="1"><g transform="translate(423.68547, 366.130226)"><g><path d="M 3.9375 0.140625 C 3.382812 0.140625 2.945312 -0.015625 2.625 -0.328125 C 2.300781 -0.640625 2.140625 -1.050781 2.140625 -1.5625 C 2.140625 -2.070312 2.300781 -2.488281 2.625 -2.8125 C 2.945312 -3.144531 3.382812 -3.3125 3.9375 -3.3125 C 4.507812 -3.3125 4.953125 -3.15625 5.265625 -2.84375 C 5.585938 -2.53125 5.75 -2.113281 5.75 -1.59375 C 5.75 -1.082031 5.585938 -0.664062 5.265625 -0.34375 C 4.941406 -0.0195312 4.5 0.140625 3.9375 0.140625 Z M 3.9375 0.140625 "/></g></g></g></svg>